<?xml version="1.0" encoding="utf-8" ?>
<svg baseProfile="full" height="1000" version="1.1" width="1000" xmlns="http://www.w3.org/2000/svg" xmlns:ev="http://www.w3.org/2001/xml-events" xmlns:xlink="http://www.w3.org/1999/xlink"><defs /><path d="M775,824 L776,824 L777,824 L778,824 L779,824 L780,824 L781,824 L782,824 L783,824 L784,824 L785,824 L786,824 L787,824 L788,824 L789,824 L790,824 L791,824 L792,824 L793,824 L794,824 L795,824 L796,824 L797,824 L798,824 L799,824 L800,824 L801,824 L802,824 L803,824 L804,824 L805,824 L806,824 L807,824 L808,824 L809,824 L810,824 L811,824 L812,824 L813,824 L814,824 L815,824 L816,824 L817,824 L818,824 L819,824 L820,824 L821,824 L822,824 L823,824 L824,824 L825,824 L826,824 L827,824 L828,824 L829,824 L830,824 L831,824 L832,824 L833,824 L834,824 L835,824 L836,824 L837,824 L838,824 L839,824 L840,824 L841,824 L842,824 L843,824 L844,824 L845,824 L846,824 L847,824 L848,824 L849,824 L850,824 L851,824 L852,824 L853,824 L854,824 L855,824 L856,824 L857,824 L858,824 L859,824 L860,824 L861,824 L862,824 L863,824 L864,824 L865,824 L866,824 L867,824 L868,824 L869,824 L870,825 L870,826 L870,827 L870,828 L870,829 L870,830 L870,831 L870,832 L870,833 L870,834 L870,835 L870,836 L870,837 L870,838 L870,839 L870,840 L870,841 L870,842 L870,843 L870,844 L870,845 L870,846 L870,847 L870,848 L870,849 L870,850 L870,851 L870,852 L870,853 L870,854 L870,855 L870,856 L870,857 L870,858 L870,859 L870,860 L870,861 L870,862 L870,863 L870,864 L870,865 L870,866 L870,867 L870,868 L870,869 L870,870 L870,871 L870,872 L870,873 L870,874 L870,875 L870,876 L870,877 L870,878 L870,879 L870,880 L870,881 L870,882 L870,883 L870,884 L870,885 L870,886 L870,887 L870,888 L870,889 L870,890 L870,891 L870,892 L870,893 L870,894 L870,895 L870,896 L870,897 L870,898 L870,899 L870,900 L870,901 L870,902 L870,903 L870,904 L870,905 L870,906 L870,907 L870,908 L870,909 L870,910 L870,911 L869,911 L868,911 L867,911 L866,911 L865,911 L864,911 L863,911 L862,911 L861,911 L860,911 L859,911 L858,911 L857,911 L856,911 L855,911 L854,911 L853,911 L852,911 L851,911 L850,911 L849,911 L848,911 L847,911 L846,911 L845,911 L844,911 L843,911 L842,911 L841,911 L840,911 L839,911 L838,911 L837,911 L836,911 L835,911 L834,911 L833,911 L832,911 L831,911 L830,911 L829,911 L828,911 L827,911 L826,911 L825,911 L824,911 L823,911 L822,911 L821,911 L820,911 L819,911 L818,911 L817,911 L816,911 L815,911 L814,911 L813,911 L812,911 L811,911 L810,911 L809,911 L808,911 L807,911 L806,911 L805,911 L804,911 L803,911 L802,911 L801,911 L800,911 L799,911 L798,911 L797,911 L796,911 L795,911 L794,911 L793,911 L792,911 L791,911 L790,911 L789,911 L788,911 L787,911 L786,911 L785,911 L784,911 L783,911 L782,911 L781,911 L780,911 L779,911 L778,911 L777,911 L776,911 L775,911 L774,911 L773,911 L772,910 L772,909 L772,908 L772,907 L772,906 L772,905 L772,904 L772,903 L772,902 L772,901 L772,900 L772,899 L772,898 L772,897 L772,896 L772,895 L772,894 L772,893 L772,892 L772,891 L772,890 L772,889 L772,888 L772,887 L772,886 L772,885 L772,884 L772,883 L772,882 L772,881 L772,880 L772,879 L772,878 L772,877 L772,876 L772,875 L772,874 L772,873 L772,872 L772,871 L772,870 L772,869 L772,868 L772,867 L772,866 L772,865 L772,864 L772,863 L772,862 L772,861 L772,860 L772,859 L772,858 L772,857 L772,856 L772,855 L772,854 L772,853 L772,852 L772,851 L772,850 L772,849 L772,848 L772,847 L772,846 L772,845 L772,844 L772,843 L772,842 L772,841 L772,840 L772,839 L772,838 L772,837 L772,836 L772,835 L772,834 L772,833 L772,832 L772,831 L772,830 L772,829 L772,828 L772,827 L772,826 L773,825 Z" fill="none" id="G5P6" stroke="none" stroke-width="1" /><path d="M588,823 L589,823 L590,823 L591,823 L592,823 L593,823 L594,823 L595,823 L596,823 L597,823 L598,823 L599,823 L600,823 L601,823 L602,823 L603,823 L604,823 L605,823 L606,823 L607,823 L608,823 L609,823 L610,823 L611,823 L612,823 L613,823 L614,823 L615,823 L616,823 L617,823 L618,823 L619,823 L620,823 L621,823 L622,823 L623,823 L624,823 L625,823 L626,823 L627,823 L628,823 L629,823 L630,823 L631,823 L632,823 L633,823 L634,823 L635,823 L636,823 L637,823 L638,823 L639,823 L640,823 L641,823 L642,823 L643,823 L644,823 L645,823 L646,823 L647,823 L648,823 L649,823 L650,823 L651,823 L652,823 L653,823 L654,823 L655,823 L656,823 L657,823 L658,823 L659,823 L660,823 L661,823 L662,823 L663,823 L664,823 L665,823 L666,823 L667,823 L668,823 L669,823 L670,823 L671,823 L672,823 L673,823 L674,823 L675,823 L676,823 L677,823 L678,823 L679,823 L680,823 L681,823 L682,823 L683,824 L683,825 L683,826 L683,827 L683,828 L683,829 L683,830 L683,831 L683,832 L683,833 L683,834 L683,835 L683,836 L683,837 L683,838 L683,839 L683,840 L683,841 L683,842 L683,843 L683,844 L683,845 L683,846 L683,847 L683,848 L683,849 L683,850 L683,851 L683,852 L683,853 L683,854 L683,855 L683,856 L683,857 L683,858 L683,859 L683,860 L683,861 L683,862 L683,863 L683,864 L683,865 L683,866 L683,867 L683,868 L683,869 L683,870 L683,871 L683,872 L683,873 L683,874 L683,875 L683,876 L683,877 L683,878 L683,879 L683,880 L683,881 L683,882 L683,883 L683,884 L683,885 L683,886 L683,887 L683,888 L683,889 L683,890 L683,891 L683,892 L683,893 L683,894 L683,895 L683,896 L683,897 L683,898 L683,899 L683,900 L683,901 L683,902 L683,903 L683,904 L683,905 L683,906 L683,907 L683,908 L683,909 L683,910 L682,910 L681,910 L680,910 L679,910 L678,910 L677,910 L676,910 L675,910 L674,910 L673,910 L672,910 L671,910 L670,910 L669,910 L668,910 L667,910 L666,910 L665,910 L664,910 L663,910 L662,910 L661,910 L660,910 L659,910 L658,910 L657,910 L656,910 L655,910 L654,910 L653,910 L652,910 L651,910 L650,910 L649,910 L648,910 L647,910 L646,910 L645,910 L644,910 L643,910 L642,910 L641,910 L640,910 L639,910 L638,910 L637,910 L636,910 L635,910 L634,910 L633,910 L632,910 L631,910 L630,910 L629,910 L628,910 L627,910 L626,910 L625,910 L624,910 L623,910 L622,910 L621,910 L620,910 L619,910 L618,910 L617,910 L616,910 L615,910 L614,910 L613,910 L612,910 L611,910 L610,910 L609,910 L608,910 L607,910 L606,910 L605,910 L604,910 L603,910 L602,910 L601,910 L600,910 L599,910 L598,910 L597,910 L596,910 L595,910 L594,910 L593,910 L592,910 L591,910 L590,910 L589,910 L588,910 L587,910 L586,910 L585,909 L585,908 L585,907 L585,906 L585,905 L585,904 L585,903 L585,902 L585,901 L585,900 L585,899 L585,898 L585,897 L585,896 L585,895 L585,894 L585,893 L585,892 L585,891 L585,890 L585,889 L585,888 L585,887 L585,886 L585,885 L585,884 L585,883 L585,882 L585,881 L585,880 L585,879 L585,878 L585,877 L585,876 L585,875 L585,874 L585,873 L585,872 L585,871 L585,870 L585,869 L585,868 L585,867 L585,866 L585,865 L585,864 L585,863 L585,862 L585,861 L585,860 L585,859 L585,858 L585,857 L585,856 L585,855 L585,854 L585,853 L585,852 L585,851 L585,850 L585,849 L585,848 L585,847 L585,846 L585,845 L585,844 L585,843 L585,842 L585,841 L585,840 L585,839 L585,838 L585,837 L585,836 L585,835 L585,834 L585,833 L585,832 L585,831 L585,830 L585,829 L585,828 L585,827 L585,826 L585,825 L586,824 Z" fill="none" id="G4P6" stroke="none" stroke-width="1" /><path d="M415,821 L416,821 L417,821 L418,821 L419,821 L420,821 L421,821 L422,821 L423,821 L424,821 L425,821 L426,821 L427,821 L428,821 L429,821 L430,821 L431,821 L432,821 L433,821 L434,821 L435,821 L436,821 L437,821 L438,821 L439,821 L440,821 L441,821 L442,821 L443,821 L444,821 L445,821 L446,821 L447,821 L448,821 L449,821 L450,821 L451,821 L452,821 L453,821 L454,821 L455,821 L456,821 L457,821 L458,821 L459,821 L460,821 L461,821 L462,821 L463,821 L464,821 L465,821 L466,821 L467,821 L468,821 L469,821 L470,821 L471,821 L472,821 L473,821 L474,821 L475,821 L476,821 L477,821 L478,821 L479,821 L480,821 L481,821 L482,821 L483,821 L484,821 L485,821 L486,821 L487,821 L488,821 L489,821 L490,821 L491,821 L492,821 L493,821 L494,821 L495,821 L496,821 L497,821 L498,821 L499,821 L500,821 L501,821 L502,821 L503,821 L504,821 L505,821 L506,821 L507,821 L508,821 L509,821 L510,822 L510,823 L510,824 L510,825 L510,826 L510,827 L510,828 L510,829 L510,830 L510,831 L510,832 L510,833 L510,834 L510,835 L510,836 L510,837 L510,838 L510,839 L510,840 L510,841 L510,842 L510,843 L510,844 L510,845 L510,846 L510,847 L510,848 L510,849 L510,850 L510,851 L510,852 L510,853 L510,854 L510,855 L510,856 L510,857 L510,858 L510,859 L510,860 L510,861 L510,862 L510,863 L510,864 L510,865 L510,866 L510,867 L510,868 L510,869 L510,870 L510,871 L510,872 L510,873 L510,874 L510,875 L510,876 L510,877 L510,878 L510,879 L510,880 L510,881 L510,882 L510,883 L510,884 L510,885 L510,886 L510,887 L510,888 L510,889 L510,890 L510,891 L510,892 L510,893 L510,894 L510,895 L510,896 L510,897 L510,898 L510,899 L510,900 L510,901 L510,902 L510,903 L510,904 L510,905 L510,906 L510,907 L510,908 L509,908 L508,908 L507,908 L506,908 L505,908 L504,908 L503,908 L502,908 L501,908 L500,908 L499,908 L498,908 L497,908 L496,908 L495,908 L494,908 L493,908 L492,908 L491,908 L490,908 L489,908 L488,908 L487,908 L486,908 L485,908 L484,908 L483,908 L482,908 L481,908 L480,908 L479,908 L478,908 L477,908 L476,908 L475,908 L474,908 L473,908 L472,908 L471,908 L470,908 L469,908 L468,908 L467,908 L466,908 L465,908 L464,908 L463,908 L462,908 L461,908 L460,908 L459,908 L458,908 L457,908 L456,908 L455,908 L454,908 L453,908 L452,908 L451,908 L450,908 L449,908 L448,908 L447,908 L446,908 L445,908 L444,908 L443,908 L442,908 L441,908 L440,908 L439,908 L438,908 L437,908 L436,908 L435,908 L434,908 L433,908 L432,908 L431,908 L430,908 L429,908 L428,908 L427,908 L426,908 L425,908 L424,908 L423,908 L422,908 L421,908 L420,908 L419,908 L418,908 L417,908 L416,908 L415,908 L414,908 L413,908 L412,907 L412,906 L412,905 L412,904 L412,903 L412,902 L412,901 L412,900 L412,899 L412,898 L412,897 L412,896 L412,895 L412,894 L412,893 L412,892 L412,891 L412,890 L412,889 L412,888 L412,887 L412,886 L412,885 L412,884 L412,883 L412,882 L412,881 L412,880 L412,879 L412,878 L412,877 L412,876 L412,875 L412,874 L412,873 L412,872 L412,871 L412,870 L412,869 L412,868 L412,867 L412,866 L412,865 L412,864 L412,863 L412,862 L412,861 L412,860 L412,859 L412,858 L412,857 L412,856 L412,855 L412,854 L412,853 L412,852 L412,851 L412,850 L412,849 L412,848 L412,847 L412,846 L412,845 L412,844 L412,843 L412,842 L412,841 L412,840 L412,839 L412,838 L412,837 L412,836 L412,835 L412,834 L412,833 L412,832 L412,831 L412,830 L412,829 L412,828 L412,827 L412,826 L412,825 L412,824 L412,823 L413,822 Z" fill="none" id="G3P6" stroke="none" stroke-width="1" /><path d="M240,821 L241,821 L242,821 L243,821 L244,821 L245,821 L246,821 L247,821 L248,821 L249,821 L250,821 L251,821 L252,821 L253,821 L254,821 L255,821 L256,821 L257,821 L258,821 L259,821 L260,821 L261,821 L262,821 L263,821 L264,821 L265,821 L266,821 L267,821 L268,821 L269,821 L270,821 L271,821 L272,821 L273,821 L274,821 L275,821 L276,821 L277,821 L278,821 L279,821 L280,821 L281,821 L282,821 L283,821 L284,821 L285,821 L286,821 L287,821 L288,821 L289,821 L290,821 L291,821 L292,821 L293,821 L294,821 L295,821 L296,821 L297,821 L298,821 L299,821 L300,821 L301,821 L302,821 L303,821 L304,821 L305,821 L306,821 L307,821 L308,821 L309,821 L310,821 L311,821 L312,821 L313,821 L314,821 L315,821 L316,821 L317,821 L318,821 L319,821 L320,821 L321,821 L322,821 L323,821 L324,821 L325,821 L326,821 L327,821 L328,821 L329,821 L330,821 L331,821 L332,821 L333,821 L334,821 L335,822 L335,823 L335,824 L335,825 L335,826 L335,827 L335,828 L335,829 L335,830 L335,831 L335,832 L335,833 L335,834 L335,835 L335,836 L335,837 L335,838 L335,839 L335,840 L335,841 L335,842 L335,843 L335,844 L335,845 L335,846 L335,847 L335,848 L335,849 L335,850 L335,851 L335,852 L335,853 L335,854 L335,855 L335,856 L335,857 L335,858 L335,859 L335,860 L335,861 L335,862 L335,863 L335,864 L335,865 L335,866 L335,867 L335,868 L335,869 L335,870 L335,871 L335,872 L335,873 L335,874 L335,875 L335,876 L335,877 L335,878 L335,879 L335,880 L335,881 L335,882 L335,883 L335,884 L335,885 L335,886 L335,887 L335,888 L335,889 L335,890 L335,891 L335,892 L335,893 L335,894 L335,895 L335,896 L335,897 L335,898 L335,899 L335,900 L335,901 L335,902 L335,903 L335,904 L335,905 L335,906 L335,907 L335,908 L334,908 L333,908 L332,908 L331,908 L330,908 L329,908 L328,908 L327,908 L326,908 L325,908 L324,908 L323,908 L322,908 L321,908 L320,908 L319,908 L318,908 L317,908 L316,908 L315,908 L314,908 L313,908 L312,908 L311,908 L310,908 L309,908 L308,908 L307,908 L306,908 L305,908 L304,908 L303,908 L302,908 L301,908 L300,908 L299,908 L298,908 L297,908 L296,908 L295,908 L294,908 L293,908 L292,908 L291,908 L290,908 L289,908 L288,908 L287,908 L286,908 L285,908 L284,908 L283,908 L282,908 L281,908 L280,908 L279,908 L278,908 L277,908 L276,908 L275,908 L274,908 L273,908 L272,908 L271,908 L270,908 L269,908 L268,908 L267,908 L266,908 L265,908 L264,908 L263,908 L262,908 L261,908 L260,908 L259,908 L258,908 L257,908 L256,908 L255,908 L254,908 L253,908 L252,908 L251,908 L250,908 L249,908 L248,908 L247,908 L246,908 L245,908 L244,908 L243,908 L242,908 L241,908 L240,908 L239,908 L238,908 L237,907 L237,906 L237,905 L237,904 L237,903 L237,902 L237,901 L237,900 L237,899 L237,898 L237,897 L237,896 L237,895 L237,894 L237,893 L237,892 L237,891 L237,890 L237,889 L237,888 L237,887 L237,886 L237,885 L237,884 L237,883 L237,882 L237,881 L237,880 L237,879 L237,878 L237,877 L237,876 L237,875 L237,874 L237,873 L237,872 L237,871 L237,870 L237,869 L237,868 L237,867 L237,866 L237,865 L237,864 L237,863 L237,862 L237,861 L237,860 L237,859 L237,858 L237,857 L237,856 L237,855 L237,854 L237,853 L237,852 L237,851 L237,850 L237,849 L237,848 L237,847 L237,846 L237,845 L237,844 L237,843 L237,842 L237,841 L237,840 L237,839 L237,838 L237,837 L237,836 L237,835 L237,834 L237,833 L237,832 L237,831 L237,830 L237,829 L237,828 L237,827 L237,826 L237,825 L237,824 L237,823 L238,822 Z" fill="none" id="G2P6" stroke="none" stroke-width="1" /><path d="M60,821 L61,821 L62,821 L63,821 L64,821 L65,821 L66,821 L67,821 L68,821 L69,821 L70,821 L71,821 L72,821 L73,821 L74,821 L75,821 L76,821 L77,821 L78,821 L79,821 L80,821 L81,821 L82,821 L83,821 L84,821 L85,821 L86,821 L87,821 L88,821 L89,821 L90,821 L91,821 L92,821 L93,821 L94,821 L95,821 L96,821 L97,821 L98,821 L99,821 L100,821 L101,821 L102,821 L103,821 L104,821 L105,821 L106,821 L107,821 L108,821 L109,821 L110,821 L111,821 L112,821 L113,821 L114,821 L115,821 L116,821 L117,821 L118,821 L119,821 L120,821 L121,821 L122,821 L123,821 L124,821 L125,821 L126,821 L127,821 L128,821 L129,821 L130,821 L131,821 L132,821 L133,821 L134,821 L135,821 L136,821 L137,821 L138,821 L139,821 L140,821 L141,821 L142,821 L143,821 L144,821 L145,821 L146,821 L147,821 L148,821 L149,821 L150,821 L151,821 L152,821 L153,821 L154,821 L155,822 L155,823 L155,824 L155,825 L155,826 L155,827 L155,828 L155,829 L155,830 L155,831 L155,832 L155,833 L155,834 L155,835 L155,836 L155,837 L155,838 L155,839 L155,840 L155,841 L155,842 L155,843 L155,844 L155,845 L155,846 L155,847 L155,848 L155,849 L155,850 L155,851 L155,852 L155,853 L155,854 L155,855 L155,856 L155,857 L155,858 L155,859 L155,860 L155,861 L155,862 L155,863 L155,864 L155,865 L155,866 L155,867 L155,868 L155,869 L155,870 L155,871 L155,872 L155,873 L155,874 L155,875 L155,876 L155,877 L155,878 L155,879 L155,880 L155,881 L155,882 L155,883 L155,884 L155,885 L155,886 L155,887 L155,888 L155,889 L155,890 L155,891 L155,892 L155,893 L155,894 L155,895 L155,896 L155,897 L155,898 L155,899 L155,900 L155,901 L155,902 L155,903 L155,904 L155,905 L155,906 L155,907 L155,908 L154,908 L153,908 L152,908 L151,908 L150,908 L149,908 L148,908 L147,908 L146,908 L145,908 L144,908 L143,908 L142,908 L141,908 L140,908 L139,908 L138,908 L137,908 L136,908 L135,908 L134,908 L133,908 L132,908 L131,908 L130,908 L129,908 L128,908 L127,908 L126,908 L125,908 L124,908 L123,908 L122,908 L121,908 L120,908 L119,908 L118,908 L117,908 L116,908 L115,908 L114,908 L113,908 L112,908 L111,908 L110,908 L109,908 L108,908 L107,908 L106,908 L105,908 L104,908 L103,908 L102,908 L101,908 L100,908 L99,908 L98,908 L97,908 L96,908 L95,908 L94,908 L93,908 L92,908 L91,908 L90,908 L89,908 L88,908 L87,908 L86,908 L85,908 L84,908 L83,908 L82,908 L81,908 L80,908 L79,908 L78,908 L77,908 L76,908 L75,908 L74,908 L73,908 L72,908 L71,908 L70,908 L69,908 L68,908 L67,908 L66,908 L65,908 L64,908 L63,908 L62,908 L61,908 L60,908 L59,908 L58,908 L57,907 L57,906 L57,905 L57,904 L57,903 L57,902 L57,901 L57,900 L57,899 L57,898 L57,897 L57,896 L57,895 L57,894 L57,893 L57,892 L57,891 L57,890 L57,889 L57,888 L57,887 L57,886 L57,885 L57,884 L57,883 L57,882 L57,881 L57,880 L57,879 L57,878 L57,877 L57,876 L57,875 L57,874 L57,873 L57,872 L57,871 L57,870 L57,869 L57,868 L57,867 L57,866 L57,865 L57,864 L57,863 L57,862 L57,861 L57,860 L57,859 L57,858 L57,857 L57,856 L57,855 L57,854 L57,853 L57,852 L57,851 L57,850 L57,849 L57,848 L57,847 L57,846 L57,845 L57,844 L57,843 L57,842 L57,841 L57,840 L57,839 L57,838 L57,837 L57,836 L57,835 L57,834 L57,833 L57,832 L57,831 L57,830 L57,829 L57,828 L57,827 L57,826 L57,825 L57,824 L57,823 L58,822 Z" fill="none" id="G1P6" stroke="none" stroke-width="1" /><path d="M780,662 L781,662 L782,662 L783,662 L784,662 L785,662 L786,662 L787,662 L788,662 L789,662 L790,662 L791,662 L792,662 L793,662 L794,662 L795,662 L796,662 L797,662 L798,662 L799,662 L800,662 L801,662 L802,662 L803,662 L804,662 L805,662 L806,662 L807,662 L808,662 L809,662 L810,662 L811,662 L812,662 L813,662 L814,662 L815,662 L816,662 L817,662 L818,662 L819,662 L820,662 L821,662 L822,662 L823,662 L824,662 L825,662 L826,662 L827,662 L828,662 L829,662 L830,662 L831,662 L832,662 L833,662 L834,662 L835,662 L836,662 L837,662 L838,662 L839,662 L840,662 L841,662 L842,662 L843,662 L844,662 L845,662 L846,662 L847,662 L848,662 L849,662 L850,662 L851,662 L852,662 L853,662 L854,662 L855,662 L856,662 L857,662 L858,662 L859,662 L860,662 L861,662 L862,662 L863,662 L864,662 L865,662 L866,662 L867,662 L868,662 L869,662 L870,662 L871,662 L872,662 L873,662 L874,662 L875,663 L875,664 L875,665 L875,666 L875,667 L875,668 L875,669 L875,670 L875,671 L875,672 L875,673 L875,674 L875,675 L875,676 L875,677 L875,678 L875,679 L875,680 L875,681 L875,682 L875,683 L875,684 L875,685 L875,686 L875,687 L875,688 L875,689 L875,690 L875,691 L875,692 L875,693 L875,694 L875,695 L875,696 L875,697 L875,698 L875,699 L875,700 L875,701 L875,702 L875,703 L875,704 L875,705 L875,706 L875,707 L875,708 L875,709 L875,710 L875,711 L875,712 L875,713 L875,714 L875,715 L875,716 L875,717 L875,718 L875,719 L875,720 L875,721 L875,722 L875,723 L875,724 L875,725 L875,726 L875,727 L875,728 L875,729 L875,730 L875,731 L875,732 L875,733 L875,734 L875,735 L875,736 L875,737 L875,738 L875,739 L875,740 L875,741 L875,742 L875,743 L875,744 L875,745 L875,746 L875,747 L875,748 L875,749 L874,749 L873,749 L872,749 L871,749 L870,749 L869,749 L868,749 L867,749 L866,749 L865,749 L864,749 L863,749 L862,749 L861,749 L860,749 L859,749 L858,749 L857,749 L856,749 L855,749 L854,749 L853,749 L852,749 L851,749 L850,749 L849,749 L848,749 L847,749 L846,749 L845,749 L844,749 L843,749 L842,749 L841,749 L840,749 L839,749 L838,749 L837,749 L836,749 L835,749 L834,749 L833,749 L832,749 L831,749 L830,749 L829,749 L828,749 L827,749 L826,749 L825,749 L824,749 L823,749 L822,749 L821,749 L820,749 L819,749 L818,749 L817,749 L816,749 L815,749 L814,749 L813,749 L812,749 L811,749 L810,749 L809,749 L808,749 L807,749 L806,749 L805,749 L804,749 L803,749 L802,749 L801,749 L800,749 L799,749 L798,749 L797,749 L796,749 L795,749 L794,749 L793,749 L792,749 L791,749 L790,749 L789,749 L788,749 L787,749 L786,749 L785,749 L784,749 L783,749 L782,749 L781,749 L780,749 L779,749 L778,749 L777,748 L777,747 L777,746 L777,745 L777,744 L777,743 L777,742 L777,741 L777,740 L777,739 L777,738 L777,737 L777,736 L777,735 L777,734 L777,733 L777,732 L777,731 L777,730 L777,729 L777,728 L777,727 L777,726 L777,725 L777,724 L777,723 L777,722 L777,721 L777,720 L777,719 L777,718 L777,717 L777,716 L777,715 L777,714 L777,713 L777,712 L777,711 L777,710 L777,709 L777,708 L777,707 L777,706 L777,705 L777,704 L777,703 L777,702 L777,701 L777,700 L777,699 L777,698 L777,697 L777,696 L777,695 L777,694 L777,693 L777,692 L777,691 L777,690 L777,689 L777,688 L777,687 L777,686 L777,685 L777,684 L777,683 L777,682 L777,681 L777,680 L777,679 L777,678 L777,677 L777,676 L777,675 L777,674 L777,673 L777,672 L777,671 L777,670 L777,669 L777,668 L777,667 L777,666 L777,665 L777,664 L778,663 Z" fill="none" id="G5P5" stroke="none" stroke-width="1" /><path d="M593,661 L594,661 L595,661 L596,661 L597,661 L598,661 L599,661 L600,661 L601,661 L602,661 L603,661 L604,661 L605,661 L606,661 L607,661 L608,661 L609,661 L610,661 L611,661 L612,661 L613,661 L614,661 L615,661 L616,661 L617,661 L618,661 L619,661 L620,661 L621,661 L622,661 L623,661 L624,661 L625,661 L626,661 L627,661 L628,661 L629,661 L630,661 L631,661 L632,661 L633,661 L634,661 L635,661 L636,661 L637,661 L638,661 L639,661 L640,661 L641,661 L642,661 L643,661 L644,661 L645,661 L646,661 L647,661 L648,661 L649,661 L650,661 L651,661 L652,661 L653,661 L654,661 L655,661 L656,661 L657,661 L658,661 L659,661 L660,661 L661,661 L662,661 L663,661 L664,661 L665,661 L666,661 L667,661 L668,661 L669,661 L670,661 L671,661 L672,661 L673,661 L674,661 L675,661 L676,661 L677,661 L678,661 L679,661 L680,661 L681,661 L682,661 L683,661 L684,661 L685,661 L686,661 L687,661 L688,662 L688,663 L688,664 L688,665 L688,666 L688,667 L688,668 L688,669 L688,670 L688,671 L688,672 L688,673 L688,674 L688,675 L688,676 L688,677 L688,678 L688,679 L688,680 L688,681 L688,682 L688,683 L688,684 L688,685 L688,686 L688,687 L688,688 L688,689 L688,690 L688,691 L688,692 L688,693 L688,694 L688,695 L688,696 L688,697 L688,698 L688,699 L688,700 L688,701 L688,702 L688,703 L688,704 L688,705 L688,706 L688,707 L688,708 L688,709 L688,710 L688,711 L688,712 L688,713 L688,714 L688,715 L688,716 L688,717 L688,718 L688,719 L688,720 L688,721 L688,722 L688,723 L688,724 L688,725 L688,726 L688,727 L688,728 L688,729 L688,730 L688,731 L688,732 L688,733 L688,734 L688,735 L688,736 L688,737 L688,738 L688,739 L688,740 L688,741 L688,742 L688,743 L688,744 L688,745 L688,746 L688,747 L688,748 L687,748 L686,748 L685,748 L684,748 L683,748 L682,748 L681,748 L680,748 L679,748 L678,748 L677,748 L676,748 L675,748 L674,748 L673,748 L672,748 L671,748 L670,748 L669,748 L668,748 L667,748 L666,748 L665,748 L664,748 L663,748 L662,748 L661,748 L660,748 L659,748 L658,748 L657,748 L656,748 L655,748 L654,748 L653,748 L652,748 L651,748 L650,748 L649,748 L648,748 L647,748 L646,748 L645,748 L644,748 L643,748 L642,748 L641,748 L640,748 L639,748 L638,748 L637,748 L636,748 L635,748 L634,748 L633,748 L632,748 L631,748 L630,748 L629,748 L628,748 L627,748 L626,748 L625,748 L624,748 L623,748 L622,748 L621,748 L620,748 L619,748 L618,748 L617,748 L616,748 L615,748 L614,748 L613,748 L612,748 L611,748 L610,748 L609,748 L608,748 L607,748 L606,748 L605,748 L604,748 L603,748 L602,748 L601,748 L600,748 L599,748 L598,748 L597,748 L596,748 L595,748 L594,748 L593,748 L592,748 L591,748 L590,747 L590,746 L590,745 L590,744 L590,743 L590,742 L590,741 L590,740 L590,739 L590,738 L590,737 L590,736 L590,735 L590,734 L590,733 L590,732 L590,731 L590,730 L590,729 L590,728 L590,727 L590,726 L590,725 L590,724 L590,723 L590,722 L590,721 L590,720 L590,719 L590,718 L590,717 L590,716 L590,715 L590,714 L590,713 L590,712 L590,711 L590,710 L590,709 L590,708 L590,707 L590,706 L590,705 L590,704 L590,703 L590,702 L590,701 L590,700 L590,699 L590,698 L590,697 L590,696 L590,695 L590,694 L590,693 L590,692 L590,691 L590,690 L590,689 L590,688 L590,687 L590,686 L590,685 L590,684 L590,683 L590,682 L590,681 L590,680 L590,679 L590,678 L590,677 L590,676 L590,675 L590,674 L590,673 L590,672 L590,671 L590,670 L590,669 L590,668 L590,667 L590,666 L590,665 L590,664 L590,663 L591,662 Z" fill="none" id="G4P5" stroke="none" stroke-width="1" /><path d="M420,659 L421,659 L422,659 L423,659 L424,659 L425,659 L426,659 L427,659 L428,659 L429,659 L430,659 L431,659 L432,659 L433,659 L434,659 L435,659 L436,659 L437,659 L438,659 L439,659 L440,659 L441,659 L442,659 L443,659 L444,659 L445,659 L446,659 L447,659 L448,659 L449,659 L450,659 L451,659 L452,659 L453,659 L454,659 L455,659 L456,659 L457,659 L458,659 L459,659 L460,659 L461,659 L462,659 L463,659 L464,659 L465,659 L466,659 L467,659 L468,659 L469,659 L470,659 L471,659 L472,659 L473,659 L474,659 L475,659 L476,659 L477,659 L478,659 L479,659 L480,659 L481,659 L482,659 L483,659 L484,659 L485,659 L486,659 L487,659 L488,659 L489,659 L490,659 L491,659 L492,659 L493,659 L494,659 L495,659 L496,659 L497,659 L498,659 L499,659 L500,659 L501,659 L502,659 L503,659 L504,659 L505,659 L506,659 L507,659 L508,659 L509,659 L510,659 L511,659 L512,659 L513,659 L514,659 L515,660 L515,661 L515,662 L515,663 L515,664 L515,665 L515,666 L515,667 L515,668 L515,669 L515,670 L515,671 L515,672 L515,673 L515,674 L515,675 L515,676 L515,677 L515,678 L515,679 L515,680 L515,681 L515,682 L515,683 L515,684 L515,685 L515,686 L515,687 L515,688 L515,689 L515,690 L515,691 L515,692 L515,693 L515,694 L515,695 L515,696 L515,697 L515,698 L515,699 L515,700 L515,701 L515,702 L515,703 L515,704 L515,705 L515,706 L515,707 L515,708 L515,709 L515,710 L515,711 L515,712 L515,713 L515,714 L515,715 L515,716 L515,717 L515,718 L515,719 L515,720 L515,721 L515,722 L515,723 L515,724 L515,725 L515,726 L515,727 L515,728 L515,729 L515,730 L515,731 L515,732 L515,733 L515,734 L515,735 L515,736 L515,737 L515,738 L515,739 L515,740 L515,741 L515,742 L515,743 L515,744 L515,745 L515,746 L514,746 L513,746 L512,746 L511,746 L510,746 L509,746 L508,746 L507,746 L506,746 L505,746 L504,746 L503,746 L502,746 L501,746 L500,746 L499,746 L498,746 L497,746 L496,746 L495,746 L494,746 L493,746 L492,746 L491,746 L490,746 L489,746 L488,746 L487,746 L486,746 L485,746 L484,746 L483,746 L482,746 L481,746 L480,746 L479,746 L478,746 L477,746 L476,746 L475,746 L474,746 L473,746 L472,746 L471,746 L470,746 L469,746 L468,746 L467,746 L466,746 L465,746 L464,746 L463,746 L462,746 L461,746 L460,746 L459,746 L458,746 L457,746 L456,746 L455,746 L454,746 L453,746 L452,746 L451,746 L450,746 L449,746 L448,746 L447,746 L446,746 L445,746 L444,746 L443,746 L442,746 L441,746 L440,746 L439,746 L438,746 L437,746 L436,746 L435,746 L434,746 L433,746 L432,746 L431,746 L430,746 L429,746 L428,746 L427,746 L426,746 L425,746 L424,746 L423,746 L422,746 L421,746 L420,746 L419,746 L418,746 L417,745 L417,744 L417,743 L417,742 L417,741 L417,740 L417,739 L417,738 L417,737 L417,736 L417,735 L417,734 L417,733 L417,732 L417,731 L417,730 L417,729 L417,728 L417,727 L417,726 L417,725 L417,724 L417,723 L417,722 L417,721 L417,720 L417,719 L417,718 L417,717 L417,716 L417,715 L417,714 L417,713 L417,712 L417,711 L417,710 L417,709 L417,708 L417,707 L417,706 L417,705 L417,704 L417,703 L417,702 L417,701 L417,700 L417,699 L417,698 L417,697 L417,696 L417,695 L417,694 L417,693 L417,692 L417,691 L417,690 L417,689 L417,688 L417,687 L417,686 L417,685 L417,684 L417,683 L417,682 L417,681 L417,680 L417,679 L417,678 L417,677 L417,676 L417,675 L417,674 L417,673 L417,672 L417,671 L417,670 L417,669 L417,668 L417,667 L417,666 L417,665 L417,664 L417,663 L417,662 L417,661 L418,660 Z" fill="none" id="G3P5" stroke="none" stroke-width="1" /><path d="M245,659 L246,659 L247,659 L248,659 L249,659 L250,659 L251,659 L252,659 L253,659 L254,659 L255,659 L256,659 L257,659 L258,659 L259,659 L260,659 L261,659 L262,659 L263,659 L264,659 L265,659 L266,659 L267,659 L268,659 L269,659 L270,659 L271,659 L272,659 L273,659 L274,659 L275,659 L276,659 L277,659 L278,659 L279,659 L280,659 L281,659 L282,659 L283,659 L284,659 L285,659 L286,659 L287,659 L288,659 L289,659 L290,659 L291,659 L292,659 L293,659 L294,659 L295,659 L296,659 L297,659 L298,659 L299,659 L300,659 L301,659 L302,659 L303,659 L304,659 L305,659 L306,659 L307,659 L308,659 L309,659 L310,659 L311,659 L312,659 L313,659 L314,659 L315,659 L316,659 L317,659 L318,659 L319,659 L320,659 L321,659 L322,659 L323,659 L324,659 L325,659 L326,659 L327,659 L328,659 L329,659 L330,659 L331,659 L332,659 L333,659 L334,659 L335,659 L336,659 L337,659 L338,659 L339,659 L340,660 L340,661 L340,662 L340,663 L340,664 L340,665 L340,666 L340,667 L340,668 L340,669 L340,670 L340,671 L340,672 L340,673 L340,674 L340,675 L340,676 L340,677 L340,678 L340,679 L340,680 L340,681 L340,682 L340,683 L340,684 L340,685 L340,686 L340,687 L340,688 L340,689 L340,690 L340,691 L340,692 L340,693 L340,694 L340,695 L340,696 L340,697 L340,698 L340,699 L340,700 L340,701 L340,702 L340,703 L340,704 L340,705 L340,706 L340,707 L340,708 L340,709 L340,710 L340,711 L340,712 L340,713 L340,714 L340,715 L340,716 L340,717 L340,718 L340,719 L340,720 L340,721 L340,722 L340,723 L340,724 L340,725 L340,726 L340,727 L340,728 L340,729 L340,730 L340,731 L340,732 L340,733 L340,734 L340,735 L340,736 L340,737 L340,738 L340,739 L340,740 L340,741 L340,742 L340,743 L340,744 L340,745 L340,746 L339,746 L338,746 L337,746 L336,746 L335,746 L334,746 L333,746 L332,746 L331,746 L330,746 L329,746 L328,746 L327,746 L326,746 L325,746 L324,746 L323,746 L322,746 L321,746 L320,746 L319,746 L318,746 L317,746 L316,746 L315,746 L314,746 L313,746 L312,746 L311,746 L310,746 L309,746 L308,746 L307,746 L306,746 L305,746 L304,746 L303,746 L302,746 L301,746 L300,746 L299,746 L298,746 L297,746 L296,746 L295,746 L294,746 L293,746 L292,746 L291,746 L290,746 L289,746 L288,746 L287,746 L286,746 L285,746 L284,746 L283,746 L282,746 L281,746 L280,746 L279,746 L278,746 L277,746 L276,746 L275,746 L274,746 L273,746 L272,746 L271,746 L270,746 L269,746 L268,746 L267,746 L266,746 L265,746 L264,746 L263,746 L262,746 L261,746 L260,746 L259,746 L258,746 L257,746 L256,746 L255,746 L254,746 L253,746 L252,746 L251,746 L250,746 L249,746 L248,746 L247,746 L246,746 L245,746 L244,746 L243,746 L242,745 L242,744 L242,743 L242,742 L242,741 L242,740 L242,739 L242,738 L242,737 L242,736 L242,735 L242,734 L242,733 L242,732 L242,731 L242,730 L242,729 L242,728 L242,727 L242,726 L242,725 L242,724 L242,723 L242,722 L242,721 L242,720 L242,719 L242,718 L242,717 L242,716 L242,715 L242,714 L242,713 L242,712 L242,711 L242,710 L242,709 L242,708 L242,707 L242,706 L242,705 L242,704 L242,703 L242,702 L242,701 L242,700 L242,699 L242,698 L242,697 L242,696 L242,695 L242,694 L242,693 L242,692 L242,691 L242,690 L242,689 L242,688 L242,687 L242,686 L242,685 L242,684 L242,683 L242,682 L242,681 L242,680 L242,679 L242,678 L242,677 L242,676 L242,675 L242,674 L242,673 L242,672 L242,671 L242,670 L242,669 L242,668 L242,667 L242,666 L242,665 L242,664 L242,663 L242,662 L242,661 L243,660 Z" fill="none" id="G2P5" stroke="none" stroke-width="1" /><path d="M65,659 L66,659 L67,659 L68,659 L69,659 L70,659 L71,659 L72,659 L73,659 L74,659 L75,659 L76,659 L77,659 L78,659 L79,659 L80,659 L81,659 L82,659 L83,659 L84,659 L85,659 L86,659 L87,659 L88,659 L89,659 L90,659 L91,659 L92,659 L93,659 L94,659 L95,659 L96,659 L97,659 L98,659 L99,659 L100,659 L101,659 L102,659 L103,659 L104,659 L105,659 L106,659 L107,659 L108,659 L109,659 L110,659 L111,659 L112,659 L113,659 L114,659 L115,659 L116,659 L117,659 L118,659 L119,659 L120,659 L121,659 L122,659 L123,659 L124,659 L125,659 L126,659 L127,659 L128,659 L129,659 L130,659 L131,659 L132,659 L133,659 L134,659 L135,659 L136,659 L137,659 L138,659 L139,659 L140,659 L141,659 L142,659 L143,659 L144,659 L145,659 L146,659 L147,659 L148,659 L149,659 L150,659 L151,659 L152,659 L153,659 L154,659 L155,659 L156,659 L157,659 L158,659 L159,659 L160,660 L160,661 L160,662 L160,663 L160,664 L160,665 L160,666 L160,667 L160,668 L160,669 L160,670 L160,671 L160,672 L160,673 L160,674 L160,675 L160,676 L160,677 L160,678 L160,679 L160,680 L160,681 L160,682 L160,683 L160,684 L160,685 L160,686 L160,687 L160,688 L160,689 L160,690 L160,691 L160,692 L160,693 L160,694 L160,695 L160,696 L160,697 L160,698 L160,699 L160,700 L160,701 L160,702 L160,703 L160,704 L160,705 L160,706 L160,707 L160,708 L160,709 L160,710 L160,711 L160,712 L160,713 L160,714 L160,715 L160,716 L160,717 L160,718 L160,719 L160,720 L160,721 L160,722 L160,723 L160,724 L160,725 L160,726 L160,727 L160,728 L160,729 L160,730 L160,731 L160,732 L160,733 L160,734 L160,735 L160,736 L160,737 L160,738 L160,739 L160,740 L160,741 L160,742 L160,743 L160,744 L160,745 L160,746 L159,746 L158,746 L157,746 L156,746 L155,746 L154,746 L153,746 L152,746 L151,746 L150,746 L149,746 L148,746 L147,746 L146,746 L145,746 L144,746 L143,746 L142,746 L141,746 L140,746 L139,746 L138,746 L137,746 L136,746 L135,746 L134,746 L133,746 L132,746 L131,746 L130,746 L129,746 L128,746 L127,746 L126,746 L125,746 L124,746 L123,746 L122,746 L121,746 L120,746 L119,746 L118,746 L117,746 L116,746 L115,746 L114,746 L113,746 L112,746 L111,746 L110,746 L109,746 L108,746 L107,746 L106,746 L105,746 L104,746 L103,746 L102,746 L101,746 L100,746 L99,746 L98,746 L97,746 L96,746 L95,746 L94,746 L93,746 L92,746 L91,746 L90,746 L89,746 L88,746 L87,746 L86,746 L85,746 L84,746 L83,746 L82,746 L81,746 L80,746 L79,746 L78,746 L77,746 L76,746 L75,746 L74,746 L73,746 L72,746 L71,746 L70,746 L69,746 L68,746 L67,746 L66,746 L65,746 L64,746 L63,746 L62,745 L62,744 L62,743 L62,742 L62,741 L62,740 L62,739 L62,738 L62,737 L62,736 L62,735 L62,734 L62,733 L62,732 L62,731 L62,730 L62,729 L62,728 L62,727 L62,726 L62,725 L62,724 L62,723 L62,722 L62,721 L62,720 L62,719 L62,718 L62,717 L62,716 L62,715 L62,714 L62,713 L62,712 L62,711 L62,710 L62,709 L62,708 L62,707 L62,706 L62,705 L62,704 L62,703 L62,702 L62,701 L62,700 L62,699 L62,698 L62,697 L62,696 L62,695 L62,694 L62,693 L62,692 L62,691 L62,690 L62,689 L62,688 L62,687 L62,686 L62,685 L62,684 L62,683 L62,682 L62,681 L62,680 L62,679 L62,678 L62,677 L62,676 L62,675 L62,674 L62,673 L62,672 L62,671 L62,670 L62,669 L62,668 L62,667 L62,666 L62,665 L62,664 L62,663 L62,662 L62,661 L63,660 Z" fill="none" id="G1P5" stroke="none" stroke-width="1" /><path d="M776,515 L777,515 L778,515 L779,515 L780,515 L781,515 L782,515 L783,515 L784,515 L785,515 L786,515 L787,515 L788,515 L789,515 L790,515 L791,515 L792,515 L793,515 L794,515 L795,515 L796,515 L797,515 L798,515 L799,515 L800,515 L801,515 L802,515 L803,515 L804,515 L805,515 L806,515 L807,515 L808,515 L809,515 L810,515 L811,515 L812,515 L813,515 L814,515 L815,515 L816,515 L817,515 L818,515 L819,515 L820,515 L821,515 L822,515 L823,515 L824,515 L825,515 L826,515 L827,515 L828,515 L829,515 L830,515 L831,515 L832,515 L833,515 L834,515 L835,515 L836,515 L837,515 L838,515 L839,515 L840,515 L841,515 L842,515 L843,515 L844,515 L845,515 L846,515 L847,515 L848,515 L849,515 L850,515 L851,515 L852,515 L853,515 L854,515 L855,515 L856,515 L857,515 L858,515 L859,515 L860,515 L861,515 L862,515 L863,515 L864,515 L865,515 L866,515 L867,515 L868,515 L869,515 L870,515 L871,516 L871,517 L871,518 L871,519 L871,520 L871,521 L871,522 L871,523 L871,524 L871,525 L871,526 L871,527 L871,528 L871,529 L871,530 L871,531 L871,532 L871,533 L871,534 L871,535 L871,536 L871,537 L871,538 L871,539 L871,540 L871,541 L871,542 L871,543 L871,544 L871,545 L871,546 L871,547 L871,548 L871,549 L871,550 L871,551 L871,552 L871,553 L871,554 L871,555 L871,556 L871,557 L871,558 L871,559 L871,560 L871,561 L871,562 L871,563 L871,564 L871,565 L871,566 L871,567 L871,568 L871,569 L871,570 L871,571 L871,572 L871,573 L871,574 L871,575 L871,576 L871,577 L871,578 L871,579 L871,580 L871,581 L871,582 L871,583 L871,584 L871,585 L871,586 L871,587 L871,588 L871,589 L871,590 L871,591 L871,592 L871,593 L871,594 L871,595 L871,596 L871,597 L871,598 L871,599 L871,600 L871,601 L871,602 L870,602 L869,602 L868,602 L867,602 L866,602 L865,602 L864,602 L863,602 L862,602 L861,602 L860,602 L859,602 L858,602 L857,602 L856,602 L855,602 L854,602 L853,602 L852,602 L851,602 L850,602 L849,602 L848,602 L847,602 L846,602 L845,602 L844,602 L843,602 L842,602 L841,602 L840,602 L839,602 L838,602 L837,602 L836,602 L835,602 L834,602 L833,602 L832,602 L831,602 L830,602 L829,602 L828,602 L827,602 L826,602 L825,602 L824,602 L823,602 L822,602 L821,602 L820,602 L819,602 L818,602 L817,602 L816,602 L815,602 L814,602 L813,602 L812,602 L811,602 L810,602 L809,602 L808,602 L807,602 L806,602 L805,602 L804,602 L803,602 L802,602 L801,602 L800,602 L799,602 L798,602 L797,602 L796,602 L795,602 L794,602 L793,602 L792,602 L791,602 L790,602 L789,602 L788,602 L787,602 L786,602 L785,602 L784,602 L783,602 L782,602 L781,602 L780,602 L779,602 L778,602 L777,602 L776,602 L775,602 L774,602 L773,601 L773,600 L773,599 L773,598 L773,597 L773,596 L773,595 L773,594 L773,593 L773,592 L773,591 L773,590 L773,589 L773,588 L773,587 L773,586 L773,585 L773,584 L773,583 L773,582 L773,581 L773,580 L773,579 L773,578 L773,577 L773,576 L773,575 L773,574 L773,573 L773,572 L773,571 L773,570 L773,569 L773,568 L773,567 L773,566 L773,565 L773,564 L773,563 L773,562 L773,561 L773,560 L773,559 L773,558 L773,557 L773,556 L773,555 L773,554 L773,553 L773,552 L773,551 L773,550 L773,549 L773,548 L773,547 L773,546 L773,545 L773,544 L773,543 L773,542 L773,541 L773,540 L773,539 L773,538 L773,537 L773,536 L773,535 L773,534 L773,533 L773,532 L773,531 L773,530 L773,529 L773,528 L773,527 L773,526 L773,525 L773,524 L773,523 L773,522 L773,521 L773,520 L773,519 L773,518 L773,517 L774,516 Z" fill="none" id="G5P4" stroke="none" stroke-width="1" /><path d="M589,514 L590,514 L591,514 L592,514 L593,514 L594,514 L595,514 L596,514 L597,514 L598,514 L599,514 L600,514 L601,514 L602,514 L603,514 L604,514 L605,514 L606,514 L607,514 L608,514 L609,514 L610,514 L611,514 L612,514 L613,514 L614,514 L615,514 L616,514 L617,514 L618,514 L619,514 L620,514 L621,514 L622,514 L623,514 L624,514 L625,514 L626,514 L627,514 L628,514 L629,514 L630,514 L631,514 L632,514 L633,514 L634,514 L635,514 L636,514 L637,514 L638,514 L639,514 L640,514 L641,514 L642,514 L643,514 L644,514 L645,514 L646,514 L647,514 L648,514 L649,514 L650,514 L651,514 L652,514 L653,514 L654,514 L655,514 L656,514 L657,514 L658,514 L659,514 L660,514 L661,514 L662,514 L663,514 L664,514 L665,514 L666,514 L667,514 L668,514 L669,514 L670,514 L671,514 L672,514 L673,514 L674,514 L675,514 L676,514 L677,514 L678,514 L679,514 L680,514 L681,514 L682,514 L683,514 L684,515 L684,516 L684,517 L684,518 L684,519 L684,520 L684,521 L684,522 L684,523 L684,524 L684,525 L684,526 L684,527 L684,528 L684,529 L684,530 L684,531 L684,532 L684,533 L684,534 L684,535 L684,536 L684,537 L684,538 L684,539 L684,540 L684,541 L684,542 L684,543 L684,544 L684,545 L684,546 L684,547 L684,548 L684,549 L684,550 L684,551 L684,552 L684,553 L684,554 L684,555 L684,556 L684,557 L684,558 L684,559 L684,560 L684,561 L684,562 L684,563 L684,564 L684,565 L684,566 L684,567 L684,568 L684,569 L684,570 L684,571 L684,572 L684,573 L684,574 L684,575 L684,576 L684,577 L684,578 L684,579 L684,580 L684,581 L684,582 L684,583 L684,584 L684,585 L684,586 L684,587 L684,588 L684,589 L684,590 L684,591 L684,592 L684,593 L684,594 L684,595 L684,596 L684,597 L684,598 L684,599 L684,600 L684,601 L683,601 L682,601 L681,601 L680,601 L679,601 L678,601 L677,601 L676,601 L675,601 L674,601 L673,601 L672,601 L671,601 L670,601 L669,601 L668,601 L667,601 L666,601 L665,601 L664,601 L663,601 L662,601 L661,601 L660,601 L659,601 L658,601 L657,601 L656,601 L655,601 L654,601 L653,601 L652,601 L651,601 L650,601 L649,601 L648,601 L647,601 L646,601 L645,601 L644,601 L643,601 L642,601 L641,601 L640,601 L639,601 L638,601 L637,601 L636,601 L635,601 L634,601 L633,601 L632,601 L631,601 L630,601 L629,601 L628,601 L627,601 L626,601 L625,601 L624,601 L623,601 L622,601 L621,601 L620,601 L619,601 L618,601 L617,601 L616,601 L615,601 L614,601 L613,601 L612,601 L611,601 L610,601 L609,601 L608,601 L607,601 L606,601 L605,601 L604,601 L603,601 L602,601 L601,601 L600,601 L599,601 L598,601 L597,601 L596,601 L595,601 L594,601 L593,601 L592,601 L591,601 L590,601 L589,601 L588,601 L587,601 L586,600 L586,599 L586,598 L586,597 L586,596 L586,595 L586,594 L586,593 L586,592 L586,591 L586,590 L586,589 L586,588 L586,587 L586,586 L586,585 L586,584 L586,583 L586,582 L586,581 L586,580 L586,579 L586,578 L586,577 L586,576 L586,575 L586,574 L586,573 L586,572 L586,571 L586,570 L586,569 L586,568 L586,567 L586,566 L586,565 L586,564 L586,563 L586,562 L586,561 L586,560 L586,559 L586,558 L586,557 L586,556 L586,555 L586,554 L586,553 L586,552 L586,551 L586,550 L586,549 L586,548 L586,547 L586,546 L586,545 L586,544 L586,543 L586,542 L586,541 L586,540 L586,539 L586,538 L586,537 L586,536 L586,535 L586,534 L586,533 L586,532 L586,531 L586,530 L586,529 L586,528 L586,527 L586,526 L586,525 L586,524 L586,523 L586,522 L586,521 L586,520 L586,519 L586,518 L586,517 L586,516 L587,515 Z" fill="none" id="G4P4" stroke="none" stroke-width="1" /><path d="M416,512 L417,512 L418,512 L419,512 L420,512 L421,512 L422,512 L423,512 L424,512 L425,512 L426,512 L427,512 L428,512 L429,512 L430,512 L431,512 L432,512 L433,512 L434,512 L435,512 L436,512 L437,512 L438,512 L439,512 L440,512 L441,512 L442,512 L443,512 L444,512 L445,512 L446,512 L447,512 L448,512 L449,512 L450,512 L451,512 L452,512 L453,512 L454,512 L455,512 L456,512 L457,512 L458,512 L459,512 L460,512 L461,512 L462,512 L463,512 L464,512 L465,512 L466,512 L467,512 L468,512 L469,512 L470,512 L471,512 L472,512 L473,512 L474,512 L475,512 L476,512 L477,512 L478,512 L479,512 L480,512 L481,512 L482,512 L483,512 L484,512 L485,512 L486,512 L487,512 L488,512 L489,512 L490,512 L491,512 L492,512 L493,512 L494,512 L495,512 L496,512 L497,512 L498,512 L499,512 L500,512 L501,512 L502,512 L503,512 L504,512 L505,512 L506,512 L507,512 L508,512 L509,512 L510,512 L511,513 L511,514 L511,515 L511,516 L511,517 L511,518 L511,519 L511,520 L511,521 L511,522 L511,523 L511,524 L511,525 L511,526 L511,527 L511,528 L511,529 L511,530 L511,531 L511,532 L511,533 L511,534 L511,535 L511,536 L511,537 L511,538 L511,539 L511,540 L511,541 L511,542 L511,543 L511,544 L511,545 L511,546 L511,547 L511,548 L511,549 L511,550 L511,551 L511,552 L511,553 L511,554 L511,555 L511,556 L511,557 L511,558 L511,559 L511,560 L511,561 L511,562 L511,563 L511,564 L511,565 L511,566 L511,567 L511,568 L511,569 L511,570 L511,571 L511,572 L511,573 L511,574 L511,575 L511,576 L511,577 L511,578 L511,579 L511,580 L511,581 L511,582 L511,583 L511,584 L511,585 L511,586 L511,587 L511,588 L511,589 L511,590 L511,591 L511,592 L511,593 L511,594 L511,595 L511,596 L511,597 L511,598 L511,599 L510,599 L509,599 L508,599 L507,599 L506,599 L505,599 L504,599 L503,599 L502,599 L501,599 L500,599 L499,599 L498,599 L497,599 L496,599 L495,599 L494,599 L493,599 L492,599 L491,599 L490,599 L489,599 L488,599 L487,599 L486,599 L485,599 L484,599 L483,599 L482,599 L481,599 L480,599 L479,599 L478,599 L477,599 L476,599 L475,599 L474,599 L473,599 L472,599 L471,599 L470,599 L469,599 L468,599 L467,599 L466,599 L465,599 L464,599 L463,599 L462,599 L461,599 L460,599 L459,599 L458,599 L457,599 L456,599 L455,599 L454,599 L453,599 L452,599 L451,599 L450,599 L449,599 L448,599 L447,599 L446,599 L445,599 L444,599 L443,599 L442,599 L441,599 L440,599 L439,599 L438,599 L437,599 L436,599 L435,599 L434,599 L433,599 L432,599 L431,599 L430,599 L429,599 L428,599 L427,599 L426,599 L425,599 L424,599 L423,599 L422,599 L421,599 L420,599 L419,599 L418,599 L417,599 L416,599 L415,599 L414,599 L413,598 L413,597 L413,596 L413,595 L413,594 L413,593 L413,592 L413,591 L413,590 L413,589 L413,588 L413,587 L413,586 L413,585 L413,584 L413,583 L413,582 L413,581 L413,580 L413,579 L413,578 L413,577 L413,576 L413,575 L413,574 L413,573 L413,572 L413,571 L413,570 L413,569 L413,568 L413,567 L413,566 L413,565 L413,564 L413,563 L413,562 L413,561 L413,560 L413,559 L413,558 L413,557 L413,556 L413,555 L413,554 L413,553 L413,552 L413,551 L413,550 L413,549 L413,548 L413,547 L413,546 L413,545 L413,544 L413,543 L413,542 L413,541 L413,540 L413,539 L413,538 L413,537 L413,536 L413,535 L413,534 L413,533 L413,532 L413,531 L413,530 L413,529 L413,528 L413,527 L413,526 L413,525 L413,524 L413,523 L413,522 L413,521 L413,520 L413,519 L413,518 L413,517 L413,516 L413,515 L413,514 L414,513 Z" fill="none" id="G3P4" stroke="none" stroke-width="1" /><path d="M241,512 L242,512 L243,512 L244,512 L245,512 L246,512 L247,512 L248,512 L249,512 L250,512 L251,512 L252,512 L253,512 L254,512 L255,512 L256,512 L257,512 L258,512 L259,512 L260,512 L261,512 L262,512 L263,512 L264,512 L265,512 L266,512 L267,512 L268,512 L269,512 L270,512 L271,512 L272,512 L273,512 L274,512 L275,512 L276,512 L277,512 L278,512 L279,512 L280,512 L281,512 L282,512 L283,512 L284,512 L285,512 L286,512 L287,512 L288,512 L289,512 L290,512 L291,512 L292,512 L293,512 L294,512 L295,512 L296,512 L297,512 L298,512 L299,512 L300,512 L301,512 L302,512 L303,512 L304,512 L305,512 L306,512 L307,512 L308,512 L309,512 L310,512 L311,512 L312,512 L313,512 L314,512 L315,512 L316,512 L317,512 L318,512 L319,512 L320,512 L321,512 L322,512 L323,512 L324,512 L325,512 L326,512 L327,512 L328,512 L329,512 L330,512 L331,512 L332,512 L333,512 L334,512 L335,512 L336,513 L336,514 L336,515 L336,516 L336,517 L336,518 L336,519 L336,520 L336,521 L336,522 L336,523 L336,524 L336,525 L336,526 L336,527 L336,528 L336,529 L336,530 L336,531 L336,532 L336,533 L336,534 L336,535 L336,536 L336,537 L336,538 L336,539 L336,540 L336,541 L336,542 L336,543 L336,544 L336,545 L336,546 L336,547 L336,548 L336,549 L336,550 L336,551 L336,552 L336,553 L336,554 L336,555 L336,556 L336,557 L336,558 L336,559 L336,560 L336,561 L336,562 L336,563 L336,564 L336,565 L336,566 L336,567 L336,568 L336,569 L336,570 L336,571 L336,572 L336,573 L336,574 L336,575 L336,576 L336,577 L336,578 L336,579 L336,580 L336,581 L336,582 L336,583 L336,584 L336,585 L336,586 L336,587 L336,588 L336,589 L336,590 L336,591 L336,592 L336,593 L336,594 L336,595 L336,596 L336,597 L336,598 L336,599 L335,599 L334,599 L333,599 L332,599 L331,599 L330,599 L329,599 L328,599 L327,599 L326,599 L325,599 L324,599 L323,599 L322,599 L321,599 L320,599 L319,599 L318,599 L317,599 L316,599 L315,599 L314,599 L313,599 L312,599 L311,599 L310,599 L309,599 L308,599 L307,599 L306,599 L305,599 L304,599 L303,599 L302,599 L301,599 L300,599 L299,599 L298,599 L297,599 L296,599 L295,599 L294,599 L293,599 L292,599 L291,599 L290,599 L289,599 L288,599 L287,599 L286,599 L285,599 L284,599 L283,599 L282,599 L281,599 L280,599 L279,599 L278,599 L277,599 L276,599 L275,599 L274,599 L273,599 L272,599 L271,599 L270,599 L269,599 L268,599 L267,599 L266,599 L265,599 L264,599 L263,599 L262,599 L261,599 L260,599 L259,599 L258,599 L257,599 L256,599 L255,599 L254,599 L253,599 L252,599 L251,599 L250,599 L249,599 L248,599 L247,599 L246,599 L245,599 L244,599 L243,599 L242,599 L241,599 L240,599 L239,599 L238,598 L238,597 L238,596 L238,595 L238,594 L238,593 L238,592 L238,591 L238,590 L238,589 L238,588 L238,587 L238,586 L238,585 L238,584 L238,583 L238,582 L238,581 L238,580 L238,579 L238,578 L238,577 L238,576 L238,575 L238,574 L238,573 L238,572 L238,571 L238,570 L238,569 L238,568 L238,567 L238,566 L238,565 L238,564 L238,563 L238,562 L238,561 L238,560 L238,559 L238,558 L238,557 L238,556 L238,555 L238,554 L238,553 L238,552 L238,551 L238,550 L238,549 L238,548 L238,547 L238,546 L238,545 L238,544 L238,543 L238,542 L238,541 L238,540 L238,539 L238,538 L238,537 L238,536 L238,535 L238,534 L238,533 L238,532 L238,531 L238,530 L238,529 L238,528 L238,527 L238,526 L238,525 L238,524 L238,523 L238,522 L238,521 L238,520 L238,519 L238,518 L238,517 L238,516 L238,515 L238,514 L239,513 Z" fill="none" id="G2P4" stroke="none" stroke-width="1" /><path d="M61,512 L62,512 L63,512 L64,512 L65,512 L66,512 L67,512 L68,512 L69,512 L70,512 L71,512 L72,512 L73,512 L74,512 L75,512 L76,512 L77,512 L78,512 L79,512 L80,512 L81,512 L82,512 L83,512 L84,512 L85,512 L86,512 L87,512 L88,512 L89,512 L90,512 L91,512 L92,512 L93,512 L94,512 L95,512 L96,512 L97,512 L98,512 L99,512 L100,512 L101,512 L102,512 L103,512 L104,512 L105,512 L106,512 L107,512 L108,512 L109,512 L110,512 L111,512 L112,512 L113,512 L114,512 L115,512 L116,512 L117,512 L118,512 L119,512 L120,512 L121,512 L122,512 L123,512 L124,512 L125,512 L126,512 L127,512 L128,512 L129,512 L130,512 L131,512 L132,512 L133,512 L134,512 L135,512 L136,512 L137,512 L138,512 L139,512 L140,512 L141,512 L142,512 L143,512 L144,512 L145,512 L146,512 L147,512 L148,512 L149,512 L150,512 L151,512 L152,512 L153,512 L154,512 L155,512 L156,513 L156,514 L156,515 L156,516 L156,517 L156,518 L156,519 L156,520 L156,521 L156,522 L156,523 L156,524 L156,525 L156,526 L156,527 L156,528 L156,529 L156,530 L156,531 L156,532 L156,533 L156,534 L156,535 L156,536 L156,537 L156,538 L156,539 L156,540 L156,541 L156,542 L156,543 L156,544 L156,545 L156,546 L156,547 L156,548 L156,549 L156,550 L156,551 L156,552 L156,553 L156,554 L156,555 L156,556 L156,557 L156,558 L156,559 L156,560 L156,561 L156,562 L156,563 L156,564 L156,565 L156,566 L156,567 L156,568 L156,569 L156,570 L156,571 L156,572 L156,573 L156,574 L156,575 L156,576 L156,577 L156,578 L156,579 L156,580 L156,581 L156,582 L156,583 L156,584 L156,585 L156,586 L156,587 L156,588 L156,589 L156,590 L156,591 L156,592 L156,593 L156,594 L156,595 L156,596 L156,597 L156,598 L156,599 L155,599 L154,599 L153,599 L152,599 L151,599 L150,599 L149,599 L148,599 L147,599 L146,599 L145,599 L144,599 L143,599 L142,599 L141,599 L140,599 L139,599 L138,599 L137,599 L136,599 L135,599 L134,599 L133,599 L132,599 L131,599 L130,599 L129,599 L128,599 L127,599 L126,599 L125,599 L124,599 L123,599 L122,599 L121,599 L120,599 L119,599 L118,599 L117,599 L116,599 L115,599 L114,599 L113,599 L112,599 L111,599 L110,599 L109,599 L108,599 L107,599 L106,599 L105,599 L104,599 L103,599 L102,599 L101,599 L100,599 L99,599 L98,599 L97,599 L96,599 L95,599 L94,599 L93,599 L92,599 L91,599 L90,599 L89,599 L88,599 L87,599 L86,599 L85,599 L84,599 L83,599 L82,599 L81,599 L80,599 L79,599 L78,599 L77,599 L76,599 L75,599 L74,599 L73,599 L72,599 L71,599 L70,599 L69,599 L68,599 L67,599 L66,599 L65,599 L64,599 L63,599 L62,599 L61,599 L60,599 L59,599 L58,598 L58,597 L58,596 L58,595 L58,594 L58,593 L58,592 L58,591 L58,590 L58,589 L58,588 L58,587 L58,586 L58,585 L58,584 L58,583 L58,582 L58,581 L58,580 L58,579 L58,578 L58,577 L58,576 L58,575 L58,574 L58,573 L58,572 L58,571 L58,570 L58,569 L58,568 L58,567 L58,566 L58,565 L58,564 L58,563 L58,562 L58,561 L58,560 L58,559 L58,558 L58,557 L58,556 L58,555 L58,554 L58,553 L58,552 L58,551 L58,550 L58,549 L58,548 L58,547 L58,546 L58,545 L58,544 L58,543 L58,542 L58,541 L58,540 L58,539 L58,538 L58,537 L58,536 L58,535 L58,534 L58,533 L58,532 L58,531 L58,530 L58,529 L58,528 L58,527 L58,526 L58,525 L58,524 L58,523 L58,522 L58,521 L58,520 L58,519 L58,518 L58,517 L58,516 L58,515 L58,514 L59,513 Z" fill="none" id="G1P4" stroke="none" stroke-width="1" /><path d="M770,363 L771,363 L772,363 L773,363 L774,363 L775,363 L776,363 L777,363 L778,363 L779,363 L780,363 L781,363 L782,363 L783,363 L784,363 L785,363 L786,363 L787,363 L788,363 L789,363 L790,363 L791,363 L792,363 L793,363 L794,363 L795,363 L796,363 L797,363 L798,363 L799,363 L800,363 L801,363 L802,363 L803,363 L804,363 L805,363 L806,363 L807,363 L808,363 L809,363 L810,363 L811,363 L812,363 L813,363 L814,363 L815,363 L816,363 L817,363 L818,363 L819,363 L820,363 L821,363 L822,363 L823,363 L824,363 L825,363 L826,363 L827,363 L828,363 L829,363 L830,363 L831,363 L832,363 L833,363 L834,363 L835,363 L836,363 L837,363 L838,363 L839,363 L840,363 L841,363 L842,363 L843,363 L844,363 L845,363 L846,363 L847,363 L848,363 L849,363 L850,363 L851,363 L852,363 L853,363 L854,363 L855,363 L856,363 L857,363 L858,363 L859,363 L860,363 L861,363 L862,363 L863,363 L864,363 L865,364 L865,365 L865,366 L865,367 L865,368 L865,369 L865,370 L865,371 L865,372 L865,373 L865,374 L865,375 L865,376 L865,377 L865,378 L865,379 L865,380 L865,381 L865,382 L865,383 L865,384 L865,385 L865,386 L865,387 L865,388 L865,389 L865,390 L865,391 L865,392 L865,393 L865,394 L865,395 L865,396 L865,397 L865,398 L865,399 L865,400 L865,401 L865,402 L865,403 L865,404 L865,405 L865,406 L865,407 L865,408 L865,409 L865,410 L865,411 L865,412 L865,413 L865,414 L865,415 L865,416 L865,417 L865,418 L865,419 L865,420 L865,421 L865,422 L865,423 L865,424 L865,425 L865,426 L865,427 L865,428 L865,429 L865,430 L865,431 L865,432 L865,433 L865,434 L865,435 L865,436 L865,437 L865,438 L865,439 L865,440 L865,441 L865,442 L865,443 L865,444 L865,445 L865,446 L865,447 L865,448 L865,449 L865,450 L864,450 L863,450 L862,450 L861,450 L860,450 L859,450 L858,450 L857,450 L856,450 L855,450 L854,450 L853,450 L852,450 L851,450 L850,450 L849,450 L848,450 L847,450 L846,450 L845,450 L844,450 L843,450 L842,450 L841,450 L840,450 L839,450 L838,450 L837,450 L836,450 L835,450 L834,450 L833,450 L832,450 L831,450 L830,450 L829,450 L828,450 L827,450 L826,450 L825,450 L824,450 L823,450 L822,450 L821,450 L820,450 L819,450 L818,450 L817,450 L816,450 L815,450 L814,450 L813,450 L812,450 L811,450 L810,450 L809,450 L808,450 L807,450 L806,450 L805,450 L804,450 L803,450 L802,450 L801,450 L800,450 L799,450 L798,450 L797,450 L796,450 L795,450 L794,450 L793,450 L792,450 L791,450 L790,450 L789,450 L788,450 L787,450 L786,450 L785,450 L784,450 L783,450 L782,450 L781,450 L780,450 L779,450 L778,450 L777,450 L776,450 L775,450 L774,450 L773,450 L772,450 L771,450 L770,450 L769,450 L768,450 L767,449 L767,448 L767,447 L767,446 L767,445 L767,444 L767,443 L767,442 L767,441 L767,440 L767,439 L767,438 L767,437 L767,436 L767,435 L767,434 L767,433 L767,432 L767,431 L767,430 L767,429 L767,428 L767,427 L767,426 L767,425 L767,424 L767,423 L767,422 L767,421 L767,420 L767,419 L767,418 L767,417 L767,416 L767,415 L767,414 L767,413 L767,412 L767,411 L767,410 L767,409 L767,408 L767,407 L767,406 L767,405 L767,404 L767,403 L767,402 L767,401 L767,400 L767,399 L767,398 L767,397 L767,396 L767,395 L767,394 L767,393 L767,392 L767,391 L767,390 L767,389 L767,388 L767,387 L767,386 L767,385 L767,384 L767,383 L767,382 L767,381 L767,380 L767,379 L767,378 L767,377 L767,376 L767,375 L767,374 L767,373 L767,372 L767,371 L767,370 L767,369 L767,368 L767,367 L767,366 L767,365 L768,364 Z" fill="none" id="G5P3" stroke="none" stroke-width="1" /><path d="M583,362 L584,362 L585,362 L586,362 L587,362 L588,362 L589,362 L590,362 L591,362 L592,362 L593,362 L594,362 L595,362 L596,362 L597,362 L598,362 L599,362 L600,362 L601,362 L602,362 L603,362 L604,362 L605,362 L606,362 L607,362 L608,362 L609,362 L610,362 L611,362 L612,362 L613,362 L614,362 L615,362 L616,362 L617,362 L618,362 L619,362 L620,362 L621,362 L622,362 L623,362 L624,362 L625,362 L626,362 L627,362 L628,362 L629,362 L630,362 L631,362 L632,362 L633,362 L634,362 L635,362 L636,362 L637,362 L638,362 L639,362 L640,362 L641,362 L642,362 L643,362 L644,362 L645,362 L646,362 L647,362 L648,362 L649,362 L650,362 L651,362 L652,362 L653,362 L654,362 L655,362 L656,362 L657,362 L658,362 L659,362 L660,362 L661,362 L662,362 L663,362 L664,362 L665,362 L666,362 L667,362 L668,362 L669,362 L670,362 L671,362 L672,362 L673,362 L674,362 L675,362 L676,362 L677,362 L678,363 L678,364 L678,365 L678,366 L678,367 L678,368 L678,369 L678,370 L678,371 L678,372 L678,373 L678,374 L678,375 L678,376 L678,377 L678,378 L678,379 L678,380 L678,381 L678,382 L678,383 L678,384 L678,385 L678,386 L678,387 L678,388 L678,389 L678,390 L678,391 L678,392 L678,393 L678,394 L678,395 L678,396 L678,397 L678,398 L678,399 L678,400 L678,401 L678,402 L678,403 L678,404 L678,405 L678,406 L678,407 L678,408 L678,409 L678,410 L678,411 L678,412 L678,413 L678,414 L678,415 L678,416 L678,417 L678,418 L678,419 L678,420 L678,421 L678,422 L678,423 L678,424 L678,425 L678,426 L678,427 L678,428 L678,429 L678,430 L678,431 L678,432 L678,433 L678,434 L678,435 L678,436 L678,437 L678,438 L678,439 L678,440 L678,441 L678,442 L678,443 L678,444 L678,445 L678,446 L678,447 L678,448 L678,449 L677,449 L676,449 L675,449 L674,449 L673,449 L672,449 L671,449 L670,449 L669,449 L668,449 L667,449 L666,449 L665,449 L664,449 L663,449 L662,449 L661,449 L660,449 L659,449 L658,449 L657,449 L656,449 L655,449 L654,449 L653,449 L652,449 L651,449 L650,449 L649,449 L648,449 L647,449 L646,449 L645,449 L644,449 L643,449 L642,449 L641,449 L640,449 L639,449 L638,449 L637,449 L636,449 L635,449 L634,449 L633,449 L632,449 L631,449 L630,449 L629,449 L628,449 L627,449 L626,449 L625,449 L624,449 L623,449 L622,449 L621,449 L620,449 L619,449 L618,449 L617,449 L616,449 L615,449 L614,449 L613,449 L612,449 L611,449 L610,449 L609,449 L608,449 L607,449 L606,449 L605,449 L604,449 L603,449 L602,449 L601,449 L600,449 L599,449 L598,449 L597,449 L596,449 L595,449 L594,449 L593,449 L592,449 L591,449 L590,449 L589,449 L588,449 L587,449 L586,449 L585,449 L584,449 L583,449 L582,449 L581,449 L580,448 L580,447 L580,446 L580,445 L580,444 L580,443 L580,442 L580,441 L580,440 L580,439 L580,438 L580,437 L580,436 L580,435 L580,434 L580,433 L580,432 L580,431 L580,430 L580,429 L580,428 L580,427 L580,426 L580,425 L580,424 L580,423 L580,422 L580,421 L580,420 L580,419 L580,418 L580,417 L580,416 L580,415 L580,414 L580,413 L580,412 L580,411 L580,410 L580,409 L580,408 L580,407 L580,406 L580,405 L580,404 L580,403 L580,402 L580,401 L580,400 L580,399 L580,398 L580,397 L580,396 L580,395 L580,394 L580,393 L580,392 L580,391 L580,390 L580,389 L580,388 L580,387 L580,386 L580,385 L580,384 L580,383 L580,382 L580,381 L580,380 L580,379 L580,378 L580,377 L580,376 L580,375 L580,374 L580,373 L580,372 L580,371 L580,370 L580,369 L580,368 L580,367 L580,366 L580,365 L580,364 L581,363 Z" fill="none" id="G4P3" stroke="none" stroke-width="1" /><path d="M410,360 L411,360 L412,360 L413,360 L414,360 L415,360 L416,360 L417,360 L418,360 L419,360 L420,360 L421,360 L422,360 L423,360 L424,360 L425,360 L426,360 L427,360 L428,360 L429,360 L430,360 L431,360 L432,360 L433,360 L434,360 L435,360 L436,360 L437,360 L438,360 L439,360 L440,360 L441,360 L442,360 L443,360 L444,360 L445,360 L446,360 L447,360 L448,360 L449,360 L450,360 L451,360 L452,360 L453,360 L454,360 L455,360 L456,360 L457,360 L458,360 L459,360 L460,360 L461,360 L462,360 L463,360 L464,360 L465,360 L466,360 L467,360 L468,360 L469,360 L470,360 L471,360 L472,360 L473,360 L474,360 L475,360 L476,360 L477,360 L478,360 L479,360 L480,360 L481,360 L482,360 L483,360 L484,360 L485,360 L486,360 L487,360 L488,360 L489,360 L490,360 L491,360 L492,360 L493,360 L494,360 L495,360 L496,360 L497,360 L498,360 L499,360 L500,360 L501,360 L502,360 L503,360 L504,360 L505,361 L505,362 L505,363 L505,364 L505,365 L505,366 L505,367 L505,368 L505,369 L505,370 L505,371 L505,372 L505,373 L505,374 L505,375 L505,376 L505,377 L505,378 L505,379 L505,380 L505,381 L505,382 L505,383 L505,384 L505,385 L505,386 L505,387 L505,388 L505,389 L505,390 L505,391 L505,392 L505,393 L505,394 L505,395 L505,396 L505,397 L505,398 L505,399 L505,400 L505,401 L505,402 L505,403 L505,404 L505,405 L505,406 L505,407 L505,408 L505,409 L505,410 L505,411 L505,412 L505,413 L505,414 L505,415 L505,416 L505,417 L505,418 L505,419 L505,420 L505,421 L505,422 L505,423 L505,424 L505,425 L505,426 L505,427 L505,428 L505,429 L505,430 L505,431 L505,432 L505,433 L505,434 L505,435 L505,436 L505,437 L505,438 L505,439 L505,440 L505,441 L505,442 L505,443 L505,444 L505,445 L505,446 L505,447 L504,447 L503,447 L502,447 L501,447 L500,447 L499,447 L498,447 L497,447 L496,447 L495,447 L494,447 L493,447 L492,447 L491,447 L490,447 L489,447 L488,447 L487,447 L486,447 L485,447 L484,447 L483,447 L482,447 L481,447 L480,447 L479,447 L478,447 L477,447 L476,447 L475,447 L474,447 L473,447 L472,447 L471,447 L470,447 L469,447 L468,447 L467,447 L466,447 L465,447 L464,447 L463,447 L462,447 L461,447 L460,447 L459,447 L458,447 L457,447 L456,447 L455,447 L454,447 L453,447 L452,447 L451,447 L450,447 L449,447 L448,447 L447,447 L446,447 L445,447 L444,447 L443,447 L442,447 L441,447 L440,447 L439,447 L438,447 L437,447 L436,447 L435,447 L434,447 L433,447 L432,447 L431,447 L430,447 L429,447 L428,447 L427,447 L426,447 L425,447 L424,447 L423,447 L422,447 L421,447 L420,447 L419,447 L418,447 L417,447 L416,447 L415,447 L414,447 L413,447 L412,447 L411,447 L410,447 L409,447 L408,447 L407,446 L407,445 L407,444 L407,443 L407,442 L407,441 L407,440 L407,439 L407,438 L407,437 L407,436 L407,435 L407,434 L407,433 L407,432 L407,431 L407,430 L407,429 L407,428 L407,427 L407,426 L407,425 L407,424 L407,423 L407,422 L407,421 L407,420 L407,419 L407,418 L407,417 L407,416 L407,415 L407,414 L407,413 L407,412 L407,411 L407,410 L407,409 L407,408 L407,407 L407,406 L407,405 L407,404 L407,403 L407,402 L407,401 L407,400 L407,399 L407,398 L407,397 L407,396 L407,395 L407,394 L407,393 L407,392 L407,391 L407,390 L407,389 L407,388 L407,387 L407,386 L407,385 L407,384 L407,383 L407,382 L407,381 L407,380 L407,379 L407,378 L407,377 L407,376 L407,375 L407,374 L407,373 L407,372 L407,371 L407,370 L407,369 L407,368 L407,367 L407,366 L407,365 L407,364 L407,363 L407,362 L408,361 Z" fill="none" id="G3P3" stroke="none" stroke-width="1" /><path d="M235,360 L236,360 L237,360 L238,360 L239,360 L240,360 L241,360 L242,360 L243,360 L244,360 L245,360 L246,360 L247,360 L248,360 L249,360 L250,360 L251,360 L252,360 L253,360 L254,360 L255,360 L256,360 L257,360 L258,360 L259,360 L260,360 L261,360 L262,360 L263,360 L264,360 L265,360 L266,360 L267,360 L268,360 L269,360 L270,360 L271,360 L272,360 L273,360 L274,360 L275,360 L276,360 L277,360 L278,360 L279,360 L280,360 L281,360 L282,360 L283,360 L284,360 L285,360 L286,360 L287,360 L288,360 L289,360 L290,360 L291,360 L292,360 L293,360 L294,360 L295,360 L296,360 L297,360 L298,360 L299,360 L300,360 L301,360 L302,360 L303,360 L304,360 L305,360 L306,360 L307,360 L308,360 L309,360 L310,360 L311,360 L312,360 L313,360 L314,360 L315,360 L316,360 L317,360 L318,360 L319,360 L320,360 L321,360 L322,360 L323,360 L324,360 L325,360 L326,360 L327,360 L328,360 L329,360 L330,361 L330,362 L330,363 L330,364 L330,365 L330,366 L330,367 L330,368 L330,369 L330,370 L330,371 L330,372 L330,373 L330,374 L330,375 L330,376 L330,377 L330,378 L330,379 L330,380 L330,381 L330,382 L330,383 L330,384 L330,385 L330,386 L330,387 L330,388 L330,389 L330,390 L330,391 L330,392 L330,393 L330,394 L330,395 L330,396 L330,397 L330,398 L330,399 L330,400 L330,401 L330,402 L330,403 L330,404 L330,405 L330,406 L330,407 L330,408 L330,409 L330,410 L330,411 L330,412 L330,413 L330,414 L330,415 L330,416 L330,417 L330,418 L330,419 L330,420 L330,421 L330,422 L330,423 L330,424 L330,425 L330,426 L330,427 L330,428 L330,429 L330,430 L330,431 L330,432 L330,433 L330,434 L330,435 L330,436 L330,437 L330,438 L330,439 L330,440 L330,441 L330,442 L330,443 L330,444 L330,445 L330,446 L330,447 L329,447 L328,447 L327,447 L326,447 L325,447 L324,447 L323,447 L322,447 L321,447 L320,447 L319,447 L318,447 L317,447 L316,447 L315,447 L314,447 L313,447 L312,447 L311,447 L310,447 L309,447 L308,447 L307,447 L306,447 L305,447 L304,447 L303,447 L302,447 L301,447 L300,447 L299,447 L298,447 L297,447 L296,447 L295,447 L294,447 L293,447 L292,447 L291,447 L290,447 L289,447 L288,447 L287,447 L286,447 L285,447 L284,447 L283,447 L282,447 L281,447 L280,447 L279,447 L278,447 L277,447 L276,447 L275,447 L274,447 L273,447 L272,447 L271,447 L270,447 L269,447 L268,447 L267,447 L266,447 L265,447 L264,447 L263,447 L262,447 L261,447 L260,447 L259,447 L258,447 L257,447 L256,447 L255,447 L254,447 L253,447 L252,447 L251,447 L250,447 L249,447 L248,447 L247,447 L246,447 L245,447 L244,447 L243,447 L242,447 L241,447 L240,447 L239,447 L238,447 L237,447 L236,447 L235,447 L234,447 L233,447 L232,446 L232,445 L232,444 L232,443 L232,442 L232,441 L232,440 L232,439 L232,438 L232,437 L232,436 L232,435 L232,434 L232,433 L232,432 L232,431 L232,430 L232,429 L232,428 L232,427 L232,426 L232,425 L232,424 L232,423 L232,422 L232,421 L232,420 L232,419 L232,418 L232,417 L232,416 L232,415 L232,414 L232,413 L232,412 L232,411 L232,410 L232,409 L232,408 L232,407 L232,406 L232,405 L232,404 L232,403 L232,402 L232,401 L232,400 L232,399 L232,398 L232,397 L232,396 L232,395 L232,394 L232,393 L232,392 L232,391 L232,390 L232,389 L232,388 L232,387 L232,386 L232,385 L232,384 L232,383 L232,382 L232,381 L232,380 L232,379 L232,378 L232,377 L232,376 L232,375 L232,374 L232,373 L232,372 L232,371 L232,370 L232,369 L232,368 L232,367 L232,366 L232,365 L232,364 L232,363 L232,362 L233,361 Z" fill="none" id="G2P3" stroke="none" stroke-width="1" /><path d="M55,360 L56,360 L57,360 L58,360 L59,360 L60,360 L61,360 L62,360 L63,360 L64,360 L65,360 L66,360 L67,360 L68,360 L69,360 L70,360 L71,360 L72,360 L73,360 L74,360 L75,360 L76,360 L77,360 L78,360 L79,360 L80,360 L81,360 L82,360 L83,360 L84,360 L85,360 L86,360 L87,360 L88,360 L89,360 L90,360 L91,360 L92,360 L93,360 L94,360 L95,360 L96,360 L97,360 L98,360 L99,360 L100,360 L101,360 L102,360 L103,360 L104,360 L105,360 L106,360 L107,360 L108,360 L109,360 L110,360 L111,360 L112,360 L113,360 L114,360 L115,360 L116,360 L117,360 L118,360 L119,360 L120,360 L121,360 L122,360 L123,360 L124,360 L125,360 L126,360 L127,360 L128,360 L129,360 L130,360 L131,360 L132,360 L133,360 L134,360 L135,360 L136,360 L137,360 L138,360 L139,360 L140,360 L141,360 L142,360 L143,360 L144,360 L145,360 L146,360 L147,360 L148,360 L149,360 L150,361 L150,362 L150,363 L150,364 L150,365 L150,366 L150,367 L150,368 L150,369 L150,370 L150,371 L150,372 L150,373 L150,374 L150,375 L150,376 L150,377 L150,378 L150,379 L150,380 L150,381 L150,382 L150,383 L150,384 L150,385 L150,386 L150,387 L150,388 L150,389 L150,390 L150,391 L150,392 L150,393 L150,394 L150,395 L150,396 L150,397 L150,398 L150,399 L150,400 L150,401 L150,402 L150,403 L150,404 L150,405 L150,406 L150,407 L150,408 L150,409 L150,410 L150,411 L150,412 L150,413 L150,414 L150,415 L150,416 L150,417 L150,418 L150,419 L150,420 L150,421 L150,422 L150,423 L150,424 L150,425 L150,426 L150,427 L150,428 L150,429 L150,430 L150,431 L150,432 L150,433 L150,434 L150,435 L150,436 L150,437 L150,438 L150,439 L150,440 L150,441 L150,442 L150,443 L150,444 L150,445 L150,446 L150,447 L149,447 L148,447 L147,447 L146,447 L145,447 L144,447 L143,447 L142,447 L141,447 L140,447 L139,447 L138,447 L137,447 L136,447 L135,447 L134,447 L133,447 L132,447 L131,447 L130,447 L129,447 L128,447 L127,447 L126,447 L125,447 L124,447 L123,447 L122,447 L121,447 L120,447 L119,447 L118,447 L117,447 L116,447 L115,447 L114,447 L113,447 L112,447 L111,447 L110,447 L109,447 L108,447 L107,447 L106,447 L105,447 L104,447 L103,447 L102,447 L101,447 L100,447 L99,447 L98,447 L97,447 L96,447 L95,447 L94,447 L93,447 L92,447 L91,447 L90,447 L89,447 L88,447 L87,447 L86,447 L85,447 L84,447 L83,447 L82,447 L81,447 L80,447 L79,447 L78,447 L77,447 L76,447 L75,447 L74,447 L73,447 L72,447 L71,447 L70,447 L69,447 L68,447 L67,447 L66,447 L65,447 L64,447 L63,447 L62,447 L61,447 L60,447 L59,447 L58,447 L57,447 L56,447 L55,447 L54,447 L53,447 L52,446 L52,445 L52,444 L52,443 L52,442 L52,441 L52,440 L52,439 L52,438 L52,437 L52,436 L52,435 L52,434 L52,433 L52,432 L52,431 L52,430 L52,429 L52,428 L52,427 L52,426 L52,425 L52,424 L52,423 L52,422 L52,421 L52,420 L52,419 L52,418 L52,417 L52,416 L52,415 L52,414 L52,413 L52,412 L52,411 L52,410 L52,409 L52,408 L52,407 L52,406 L52,405 L52,404 L52,403 L52,402 L52,401 L52,400 L52,399 L52,398 L52,397 L52,396 L52,395 L52,394 L52,393 L52,392 L52,391 L52,390 L52,389 L52,388 L52,387 L52,386 L52,385 L52,384 L52,383 L52,382 L52,381 L52,380 L52,379 L52,378 L52,377 L52,376 L52,375 L52,374 L52,373 L52,372 L52,371 L52,370 L52,369 L52,368 L52,367 L52,366 L52,365 L52,364 L52,363 L52,362 L53,361 Z" fill="none" id="G1P3" stroke="none" stroke-width="1" /><path d="M770,205 L771,205 L772,205 L773,205 L774,205 L775,205 L776,205 L777,205 L778,205 L779,205 L780,205 L781,205 L782,205 L783,205 L784,205 L785,205 L786,205 L787,205 L788,205 L789,205 L790,205 L791,205 L792,205 L793,205 L794,205 L795,205 L796,205 L797,205 L798,205 L799,205 L800,205 L801,205 L802,205 L803,205 L804,205 L805,205 L806,205 L807,205 L808,205 L809,205 L810,205 L811,205 L812,205 L813,205 L814,205 L815,205 L816,205 L817,205 L818,205 L819,205 L820,205 L821,205 L822,205 L823,205 L824,205 L825,205 L826,205 L827,205 L828,205 L829,205 L830,205 L831,205 L832,205 L833,205 L834,205 L835,205 L836,205 L837,205 L838,205 L839,205 L840,205 L841,205 L842,205 L843,205 L844,205 L845,205 L846,205 L847,205 L848,205 L849,205 L850,205 L851,205 L852,205 L853,205 L854,205 L855,205 L856,205 L857,205 L858,205 L859,205 L860,205 L861,205 L862,205 L863,205 L864,205 L865,206 L865,207 L865,208 L865,209 L865,210 L865,211 L865,212 L865,213 L865,214 L865,215 L865,216 L865,217 L865,218 L865,219 L865,220 L865,221 L865,222 L865,223 L865,224 L865,225 L865,226 L865,227 L865,228 L865,229 L865,230 L865,231 L865,232 L865,233 L865,234 L865,235 L865,236 L865,237 L865,238 L865,239 L865,240 L865,241 L865,242 L865,243 L865,244 L865,245 L865,246 L865,247 L865,248 L865,249 L865,250 L865,251 L865,252 L865,253 L865,254 L865,255 L865,256 L865,257 L865,258 L865,259 L865,260 L865,261 L865,262 L865,263 L865,264 L865,265 L865,266 L865,267 L865,268 L865,269 L865,270 L865,271 L865,272 L865,273 L865,274 L865,275 L865,276 L865,277 L865,278 L865,279 L865,280 L865,281 L865,282 L865,283 L865,284 L865,285 L865,286 L865,287 L865,288 L865,289 L865,290 L865,291 L865,292 L864,292 L863,292 L862,292 L861,292 L860,292 L859,292 L858,292 L857,292 L856,292 L855,292 L854,292 L853,292 L852,292 L851,292 L850,292 L849,292 L848,292 L847,292 L846,292 L845,292 L844,292 L843,292 L842,292 L841,292 L840,292 L839,292 L838,292 L837,292 L836,292 L835,292 L834,292 L833,292 L832,292 L831,292 L830,292 L829,292 L828,292 L827,292 L826,292 L825,292 L824,292 L823,292 L822,292 L821,292 L820,292 L819,292 L818,292 L817,292 L816,292 L815,292 L814,292 L813,292 L812,292 L811,292 L810,292 L809,292 L808,292 L807,292 L806,292 L805,292 L804,292 L803,292 L802,292 L801,292 L800,292 L799,292 L798,292 L797,292 L796,292 L795,292 L794,292 L793,292 L792,292 L791,292 L790,292 L789,292 L788,292 L787,292 L786,292 L785,292 L784,292 L783,292 L782,292 L781,292 L780,292 L779,292 L778,292 L777,292 L776,292 L775,292 L774,292 L773,292 L772,292 L771,292 L770,292 L769,292 L768,292 L767,291 L767,290 L767,289 L767,288 L767,287 L767,286 L767,285 L767,284 L767,283 L767,282 L767,281 L767,280 L767,279 L767,278 L767,277 L767,276 L767,275 L767,274 L767,273 L767,272 L767,271 L767,270 L767,269 L767,268 L767,267 L767,266 L767,265 L767,264 L767,263 L767,262 L767,261 L767,260 L767,259 L767,258 L767,257 L767,256 L767,255 L767,254 L767,253 L767,252 L767,251 L767,250 L767,249 L767,248 L767,247 L767,246 L767,245 L767,244 L767,243 L767,242 L767,241 L767,240 L767,239 L767,238 L767,237 L767,236 L767,235 L767,234 L767,233 L767,232 L767,231 L767,230 L767,229 L767,228 L767,227 L767,226 L767,225 L767,224 L767,223 L767,222 L767,221 L767,220 L767,219 L767,218 L767,217 L767,216 L767,215 L767,214 L767,213 L767,212 L767,211 L767,210 L767,209 L767,208 L767,207 L768,206 Z" fill="none" id="G5P2" stroke="none" stroke-width="1" /><path d="M583,204 L584,204 L585,204 L586,204 L587,204 L588,204 L589,204 L590,204 L591,204 L592,204 L593,204 L594,204 L595,204 L596,204 L597,204 L598,204 L599,204 L600,204 L601,204 L602,204 L603,204 L604,204 L605,204 L606,204 L607,204 L608,204 L609,204 L610,204 L611,204 L612,204 L613,204 L614,204 L615,204 L616,204 L617,204 L618,204 L619,204 L620,204 L621,204 L622,204 L623,204 L624,204 L625,204 L626,204 L627,204 L628,204 L629,204 L630,204 L631,204 L632,204 L633,204 L634,204 L635,204 L636,204 L637,204 L638,204 L639,204 L640,204 L641,204 L642,204 L643,204 L644,204 L645,204 L646,204 L647,204 L648,204 L649,204 L650,204 L651,204 L652,204 L653,204 L654,204 L655,204 L656,204 L657,204 L658,204 L659,204 L660,204 L661,204 L662,204 L663,204 L664,204 L665,204 L666,204 L667,204 L668,204 L669,204 L670,204 L671,204 L672,204 L673,204 L674,204 L675,204 L676,204 L677,204 L678,205 L678,206 L678,207 L678,208 L678,209 L678,210 L678,211 L678,212 L678,213 L678,214 L678,215 L678,216 L678,217 L678,218 L678,219 L678,220 L678,221 L678,222 L678,223 L678,224 L678,225 L678,226 L678,227 L678,228 L678,229 L678,230 L678,231 L678,232 L678,233 L678,234 L678,235 L678,236 L678,237 L678,238 L678,239 L678,240 L678,241 L678,242 L678,243 L678,244 L678,245 L678,246 L678,247 L678,248 L678,249 L678,250 L678,251 L678,252 L678,253 L678,254 L678,255 L678,256 L678,257 L678,258 L678,259 L678,260 L678,261 L678,262 L678,263 L678,264 L678,265 L678,266 L678,267 L678,268 L678,269 L678,270 L678,271 L678,272 L678,273 L678,274 L678,275 L678,276 L678,277 L678,278 L678,279 L678,280 L678,281 L678,282 L678,283 L678,284 L678,285 L678,286 L678,287 L678,288 L678,289 L678,290 L678,291 L677,291 L676,291 L675,291 L674,291 L673,291 L672,291 L671,291 L670,291 L669,291 L668,291 L667,291 L666,291 L665,291 L664,291 L663,291 L662,291 L661,291 L660,291 L659,291 L658,291 L657,291 L656,291 L655,291 L654,291 L653,291 L652,291 L651,291 L650,291 L649,291 L648,291 L647,291 L646,291 L645,291 L644,291 L643,291 L642,291 L641,291 L640,291 L639,291 L638,291 L637,291 L636,291 L635,291 L634,291 L633,291 L632,291 L631,291 L630,291 L629,291 L628,291 L627,291 L626,291 L625,291 L624,291 L623,291 L622,291 L621,291 L620,291 L619,291 L618,291 L617,291 L616,291 L615,291 L614,291 L613,291 L612,291 L611,291 L610,291 L609,291 L608,291 L607,291 L606,291 L605,291 L604,291 L603,291 L602,291 L601,291 L600,291 L599,291 L598,291 L597,291 L596,291 L595,291 L594,291 L593,291 L592,291 L591,291 L590,291 L589,291 L588,291 L587,291 L586,291 L585,291 L584,291 L583,291 L582,291 L581,291 L580,290 L580,289 L580,288 L580,287 L580,286 L580,285 L580,284 L580,283 L580,282 L580,281 L580,280 L580,279 L580,278 L580,277 L580,276 L580,275 L580,274 L580,273 L580,272 L580,271 L580,270 L580,269 L580,268 L580,267 L580,266 L580,265 L580,264 L580,263 L580,262 L580,261 L580,260 L580,259 L580,258 L580,257 L580,256 L580,255 L580,254 L580,253 L580,252 L580,251 L580,250 L580,249 L580,248 L580,247 L580,246 L580,245 L580,244 L580,243 L580,242 L580,241 L580,240 L580,239 L580,238 L580,237 L580,236 L580,235 L580,234 L580,233 L580,232 L580,231 L580,230 L580,229 L580,228 L580,227 L580,226 L580,225 L580,224 L580,223 L580,222 L580,221 L580,220 L580,219 L580,218 L580,217 L580,216 L580,215 L580,214 L580,213 L580,212 L580,211 L580,210 L580,209 L580,208 L580,207 L580,206 L581,205 Z" fill="none" id="G4P2" stroke="none" stroke-width="1" /><path d="M410,202 L411,202 L412,202 L413,202 L414,202 L415,202 L416,202 L417,202 L418,202 L419,202 L420,202 L421,202 L422,202 L423,202 L424,202 L425,202 L426,202 L427,202 L428,202 L429,202 L430,202 L431,202 L432,202 L433,202 L434,202 L435,202 L436,202 L437,202 L438,202 L439,202 L440,202 L441,202 L442,202 L443,202 L444,202 L445,202 L446,202 L447,202 L448,202 L449,202 L450,202 L451,202 L452,202 L453,202 L454,202 L455,202 L456,202 L457,202 L458,202 L459,202 L460,202 L461,202 L462,202 L463,202 L464,202 L465,202 L466,202 L467,202 L468,202 L469,202 L470,202 L471,202 L472,202 L473,202 L474,202 L475,202 L476,202 L477,202 L478,202 L479,202 L480,202 L481,202 L482,202 L483,202 L484,202 L485,202 L486,202 L487,202 L488,202 L489,202 L490,202 L491,202 L492,202 L493,202 L494,202 L495,202 L496,202 L497,202 L498,202 L499,202 L500,202 L501,202 L502,202 L503,202 L504,202 L505,203 L505,204 L505,205 L505,206 L505,207 L505,208 L505,209 L505,210 L505,211 L505,212 L505,213 L505,214 L505,215 L505,216 L505,217 L505,218 L505,219 L505,220 L505,221 L505,222 L505,223 L505,224 L505,225 L505,226 L505,227 L505,228 L505,229 L505,230 L505,231 L505,232 L505,233 L505,234 L505,235 L505,236 L505,237 L505,238 L505,239 L505,240 L505,241 L505,242 L505,243 L505,244 L505,245 L505,246 L505,247 L505,248 L505,249 L505,250 L505,251 L505,252 L505,253 L505,254 L505,255 L505,256 L505,257 L505,258 L505,259 L505,260 L505,261 L505,262 L505,263 L505,264 L505,265 L505,266 L505,267 L505,268 L505,269 L505,270 L505,271 L505,272 L505,273 L505,274 L505,275 L505,276 L505,277 L505,278 L505,279 L505,280 L505,281 L505,282 L505,283 L505,284 L505,285 L505,286 L505,287 L505,288 L505,289 L504,289 L503,289 L502,289 L501,289 L500,289 L499,289 L498,289 L497,289 L496,289 L495,289 L494,289 L493,289 L492,289 L491,289 L490,289 L489,289 L488,289 L487,289 L486,289 L485,289 L484,289 L483,289 L482,289 L481,289 L480,289 L479,289 L478,289 L477,289 L476,289 L475,289 L474,289 L473,289 L472,289 L471,289 L470,289 L469,289 L468,289 L467,289 L466,289 L465,289 L464,289 L463,289 L462,289 L461,289 L460,289 L459,289 L458,289 L457,289 L456,289 L455,289 L454,289 L453,289 L452,289 L451,289 L450,289 L449,289 L448,289 L447,289 L446,289 L445,289 L444,289 L443,289 L442,289 L441,289 L440,289 L439,289 L438,289 L437,289 L436,289 L435,289 L434,289 L433,289 L432,289 L431,289 L430,289 L429,289 L428,289 L427,289 L426,289 L425,289 L424,289 L423,289 L422,289 L421,289 L420,289 L419,289 L418,289 L417,289 L416,289 L415,289 L414,289 L413,289 L412,289 L411,289 L410,289 L409,289 L408,289 L407,288 L407,287 L407,286 L407,285 L407,284 L407,283 L407,282 L407,281 L407,280 L407,279 L407,278 L407,277 L407,276 L407,275 L407,274 L407,273 L407,272 L407,271 L407,270 L407,269 L407,268 L407,267 L407,266 L407,265 L407,264 L407,263 L407,262 L407,261 L407,260 L407,259 L407,258 L407,257 L407,256 L407,255 L407,254 L407,253 L407,252 L407,251 L407,250 L407,249 L407,248 L407,247 L407,246 L407,245 L407,244 L407,243 L407,242 L407,241 L407,240 L407,239 L407,238 L407,237 L407,236 L407,235 L407,234 L407,233 L407,232 L407,231 L407,230 L407,229 L407,228 L407,227 L407,226 L407,225 L407,224 L407,223 L407,222 L407,221 L407,220 L407,219 L407,218 L407,217 L407,216 L407,215 L407,214 L407,213 L407,212 L407,211 L407,210 L407,209 L407,208 L407,207 L407,206 L407,205 L407,204 L408,203 Z" fill="none" id="G3P2" stroke="none" stroke-width="1" /><path d="M235,202 L236,202 L237,202 L238,202 L239,202 L240,202 L241,202 L242,202 L243,202 L244,202 L245,202 L246,202 L247,202 L248,202 L249,202 L250,202 L251,202 L252,202 L253,202 L254,202 L255,202 L256,202 L257,202 L258,202 L259,202 L260,202 L261,202 L262,202 L263,202 L264,202 L265,202 L266,202 L267,202 L268,202 L269,202 L270,202 L271,202 L272,202 L273,202 L274,202 L275,202 L276,202 L277,202 L278,202 L279,202 L280,202 L281,202 L282,202 L283,202 L284,202 L285,202 L286,202 L287,202 L288,202 L289,202 L290,202 L291,202 L292,202 L293,202 L294,202 L295,202 L296,202 L297,202 L298,202 L299,202 L300,202 L301,202 L302,202 L303,202 L304,202 L305,202 L306,202 L307,202 L308,202 L309,202 L310,202 L311,202 L312,202 L313,202 L314,202 L315,202 L316,202 L317,202 L318,202 L319,202 L320,202 L321,202 L322,202 L323,202 L324,202 L325,202 L326,202 L327,202 L328,202 L329,202 L330,203 L330,204 L330,205 L330,206 L330,207 L330,208 L330,209 L330,210 L330,211 L330,212 L330,213 L330,214 L330,215 L330,216 L330,217 L330,218 L330,219 L330,220 L330,221 L330,222 L330,223 L330,224 L330,225 L330,226 L330,227 L330,228 L330,229 L330,230 L330,231 L330,232 L330,233 L330,234 L330,235 L330,236 L330,237 L330,238 L330,239 L330,240 L330,241 L330,242 L330,243 L330,244 L330,245 L330,246 L330,247 L330,248 L330,249 L330,250 L330,251 L330,252 L330,253 L330,254 L330,255 L330,256 L330,257 L330,258 L330,259 L330,260 L330,261 L330,262 L330,263 L330,264 L330,265 L330,266 L330,267 L330,268 L330,269 L330,270 L330,271 L330,272 L330,273 L330,274 L330,275 L330,276 L330,277 L330,278 L330,279 L330,280 L330,281 L330,282 L330,283 L330,284 L330,285 L330,286 L330,287 L330,288 L330,289 L329,289 L328,289 L327,289 L326,289 L325,289 L324,289 L323,289 L322,289 L321,289 L320,289 L319,289 L318,289 L317,289 L316,289 L315,289 L314,289 L313,289 L312,289 L311,289 L310,289 L309,289 L308,289 L307,289 L306,289 L305,289 L304,289 L303,289 L302,289 L301,289 L300,289 L299,289 L298,289 L297,289 L296,289 L295,289 L294,289 L293,289 L292,289 L291,289 L290,289 L289,289 L288,289 L287,289 L286,289 L285,289 L284,289 L283,289 L282,289 L281,289 L280,289 L279,289 L278,289 L277,289 L276,289 L275,289 L274,289 L273,289 L272,289 L271,289 L270,289 L269,289 L268,289 L267,289 L266,289 L265,289 L264,289 L263,289 L262,289 L261,289 L260,289 L259,289 L258,289 L257,289 L256,289 L255,289 L254,289 L253,289 L252,289 L251,289 L250,289 L249,289 L248,289 L247,289 L246,289 L245,289 L244,289 L243,289 L242,289 L241,289 L240,289 L239,289 L238,289 L237,289 L236,289 L235,289 L234,289 L233,289 L232,288 L232,287 L232,286 L232,285 L232,284 L232,283 L232,282 L232,281 L232,280 L232,279 L232,278 L232,277 L232,276 L232,275 L232,274 L232,273 L232,272 L232,271 L232,270 L232,269 L232,268 L232,267 L232,266 L232,265 L232,264 L232,263 L232,262 L232,261 L232,260 L232,259 L232,258 L232,257 L232,256 L232,255 L232,254 L232,253 L232,252 L232,251 L232,250 L232,249 L232,248 L232,247 L232,246 L232,245 L232,244 L232,243 L232,242 L232,241 L232,240 L232,239 L232,238 L232,237 L232,236 L232,235 L232,234 L232,233 L232,232 L232,231 L232,230 L232,229 L232,228 L232,227 L232,226 L232,225 L232,224 L232,223 L232,222 L232,221 L232,220 L232,219 L232,218 L232,217 L232,216 L232,215 L232,214 L232,213 L232,212 L232,211 L232,210 L232,209 L232,208 L232,207 L232,206 L232,205 L232,204 L233,203 Z" fill="none" id="G2P2" stroke="none" stroke-width="1" /><path d="M55,202 L56,202 L57,202 L58,202 L59,202 L60,202 L61,202 L62,202 L63,202 L64,202 L65,202 L66,202 L67,202 L68,202 L69,202 L70,202 L71,202 L72,202 L73,202 L74,202 L75,202 L76,202 L77,202 L78,202 L79,202 L80,202 L81,202 L82,202 L83,202 L84,202 L85,202 L86,202 L87,202 L88,202 L89,202 L90,202 L91,202 L92,202 L93,202 L94,202 L95,202 L96,202 L97,202 L98,202 L99,202 L100,202 L101,202 L102,202 L103,202 L104,202 L105,202 L106,202 L107,202 L108,202 L109,202 L110,202 L111,202 L112,202 L113,202 L114,202 L115,202 L116,202 L117,202 L118,202 L119,202 L120,202 L121,202 L122,202 L123,202 L124,202 L125,202 L126,202 L127,202 L128,202 L129,202 L130,202 L131,202 L132,202 L133,202 L134,202 L135,202 L136,202 L137,202 L138,202 L139,202 L140,202 L141,202 L142,202 L143,202 L144,202 L145,202 L146,202 L147,202 L148,202 L149,202 L150,203 L150,204 L150,205 L150,206 L150,207 L150,208 L150,209 L150,210 L150,211 L150,212 L150,213 L150,214 L150,215 L150,216 L150,217 L150,218 L150,219 L150,220 L150,221 L150,222 L150,223 L150,224 L150,225 L150,226 L150,227 L150,228 L150,229 L150,230 L150,231 L150,232 L150,233 L150,234 L150,235 L150,236 L150,237 L150,238 L150,239 L150,240 L150,241 L150,242 L150,243 L150,244 L150,245 L150,246 L150,247 L150,248 L150,249 L150,250 L150,251 L150,252 L150,253 L150,254 L150,255 L150,256 L150,257 L150,258 L150,259 L150,260 L150,261 L150,262 L150,263 L150,264 L150,265 L150,266 L150,267 L150,268 L150,269 L150,270 L150,271 L150,272 L150,273 L150,274 L150,275 L150,276 L150,277 L150,278 L150,279 L150,280 L150,281 L150,282 L150,283 L150,284 L150,285 L150,286 L150,287 L150,288 L150,289 L149,289 L148,289 L147,289 L146,289 L145,289 L144,289 L143,289 L142,289 L141,289 L140,289 L139,289 L138,289 L137,289 L136,289 L135,289 L134,289 L133,289 L132,289 L131,289 L130,289 L129,289 L128,289 L127,289 L126,289 L125,289 L124,289 L123,289 L122,289 L121,289 L120,289 L119,289 L118,289 L117,289 L116,289 L115,289 L114,289 L113,289 L112,289 L111,289 L110,289 L109,289 L108,289 L107,289 L106,289 L105,289 L104,289 L103,289 L102,289 L101,289 L100,289 L99,289 L98,289 L97,289 L96,289 L95,289 L94,289 L93,289 L92,289 L91,289 L90,289 L89,289 L88,289 L87,289 L86,289 L85,289 L84,289 L83,289 L82,289 L81,289 L80,289 L79,289 L78,289 L77,289 L76,289 L75,289 L74,289 L73,289 L72,289 L71,289 L70,289 L69,289 L68,289 L67,289 L66,289 L65,289 L64,289 L63,289 L62,289 L61,289 L60,289 L59,289 L58,289 L57,289 L56,289 L55,289 L54,289 L53,289 L52,288 L52,287 L52,286 L52,285 L52,284 L52,283 L52,282 L52,281 L52,280 L52,279 L52,278 L52,277 L52,276 L52,275 L52,274 L52,273 L52,272 L52,271 L52,270 L52,269 L52,268 L52,267 L52,266 L52,265 L52,264 L52,263 L52,262 L52,261 L52,260 L52,259 L52,258 L52,257 L52,256 L52,255 L52,254 L52,253 L52,252 L52,251 L52,250 L52,249 L52,248 L52,247 L52,246 L52,245 L52,244 L52,243 L52,242 L52,241 L52,240 L52,239 L52,238 L52,237 L52,236 L52,235 L52,234 L52,233 L52,232 L52,231 L52,230 L52,229 L52,228 L52,227 L52,226 L52,225 L52,224 L52,223 L52,222 L52,221 L52,220 L52,219 L52,218 L52,217 L52,216 L52,215 L52,214 L52,213 L52,212 L52,211 L52,210 L52,209 L52,208 L52,207 L52,206 L52,205 L52,204 L53,203 Z" fill="none" id="G1P2" stroke="none" stroke-width="1" /><path d="M768,58 L769,58 L770,58 L771,58 L772,58 L773,58 L774,58 L775,58 L776,58 L777,58 L778,58 L779,58 L780,58 L781,58 L782,58 L783,58 L784,58 L785,58 L786,58 L787,58 L788,58 L789,58 L790,58 L791,58 L792,58 L793,58 L794,58 L795,58 L796,58 L797,58 L798,58 L799,58 L800,58 L801,58 L802,58 L803,58 L804,58 L805,58 L806,58 L807,58 L808,58 L809,58 L810,58 L811,58 L812,58 L813,58 L814,58 L815,58 L816,58 L817,58 L818,58 L819,58 L820,58 L821,58 L822,58 L823,58 L824,58 L825,58 L826,58 L827,58 L828,58 L829,58 L830,58 L831,58 L832,58 L833,58 L834,58 L835,58 L836,58 L837,58 L838,58 L839,58 L840,58 L841,58 L842,58 L843,58 L844,58 L845,58 L846,58 L847,58 L848,58 L849,58 L850,58 L851,58 L852,58 L853,58 L854,58 L855,58 L856,58 L857,58 L858,58 L859,58 L860,58 L861,58 L862,58 L863,59 L863,60 L863,61 L863,62 L863,63 L863,64 L863,65 L863,66 L863,67 L863,68 L863,69 L863,70 L863,71 L863,72 L863,73 L863,74 L863,75 L863,76 L863,77 L863,78 L863,79 L863,80 L863,81 L863,82 L863,83 L863,84 L863,85 L863,86 L863,87 L863,88 L863,89 L863,90 L863,91 L863,92 L863,93 L863,94 L863,95 L863,96 L863,97 L863,98 L863,99 L863,100 L863,101 L863,102 L863,103 L863,104 L863,105 L863,106 L863,107 L863,108 L863,109 L863,110 L863,111 L863,112 L863,113 L863,114 L863,115 L863,116 L863,117 L863,118 L863,119 L863,120 L863,121 L863,122 L863,123 L863,124 L863,125 L863,126 L863,127 L863,128 L863,129 L863,130 L863,131 L863,132 L863,133 L863,134 L863,135 L863,136 L863,137 L863,138 L863,139 L863,140 L863,141 L863,142 L863,143 L863,144 L863,145 L862,145 L861,145 L860,145 L859,145 L858,145 L857,145 L856,145 L855,145 L854,145 L853,145 L852,145 L851,145 L850,145 L849,145 L848,145 L847,145 L846,145 L845,145 L844,145 L843,145 L842,145 L841,145 L840,145 L839,145 L838,145 L837,145 L836,145 L835,145 L834,145 L833,145 L832,145 L831,145 L830,145 L829,145 L828,145 L827,145 L826,145 L825,145 L824,145 L823,145 L822,145 L821,145 L820,145 L819,145 L818,145 L817,145 L816,145 L815,145 L814,145 L813,145 L812,145 L811,145 L810,145 L809,145 L808,145 L807,145 L806,145 L805,145 L804,145 L803,145 L802,145 L801,145 L800,145 L799,145 L798,145 L797,145 L796,145 L795,145 L794,145 L793,145 L792,145 L791,145 L790,145 L789,145 L788,145 L787,145 L786,145 L785,145 L784,145 L783,145 L782,145 L781,145 L780,145 L779,145 L778,145 L777,145 L776,145 L775,145 L774,145 L773,145 L772,145 L771,145 L770,145 L769,145 L768,145 L767,145 L766,145 L765,144 L765,143 L765,142 L765,141 L765,140 L765,139 L765,138 L765,137 L765,136 L765,135 L765,134 L765,133 L765,132 L765,131 L765,130 L765,129 L765,128 L765,127 L765,126 L765,125 L765,124 L765,123 L765,122 L765,121 L765,120 L765,119 L765,118 L765,117 L765,116 L765,115 L765,114 L765,113 L765,112 L765,111 L765,110 L765,109 L765,108 L765,107 L765,106 L765,105 L765,104 L765,103 L765,102 L765,101 L765,100 L765,99 L765,98 L765,97 L765,96 L765,95 L765,94 L765,93 L765,92 L765,91 L765,90 L765,89 L765,88 L765,87 L765,86 L765,85 L765,84 L765,83 L765,82 L765,81 L765,80 L765,79 L765,78 L765,77 L765,76 L765,75 L765,74 L765,73 L765,72 L765,71 L765,70 L765,69 L765,68 L765,67 L765,66 L765,65 L765,64 L765,63 L765,62 L765,61 L765,60 L766,59 Z" fill="none" id="G5P1" stroke="none" stroke-width="1" /><path d="M581,57 L582,57 L583,57 L584,57 L585,57 L586,57 L587,57 L588,57 L589,57 L590,57 L591,57 L592,57 L593,57 L594,57 L595,57 L596,57 L597,57 L598,57 L599,57 L600,57 L601,57 L602,57 L603,57 L604,57 L605,57 L606,57 L607,57 L608,57 L609,57 L610,57 L611,57 L612,57 L613,57 L614,57 L615,57 L616,57 L617,57 L618,57 L619,57 L620,57 L621,57 L622,57 L623,57 L624,57 L625,57 L626,57 L627,57 L628,57 L629,57 L630,57 L631,57 L632,57 L633,57 L634,57 L635,57 L636,57 L637,57 L638,57 L639,57 L640,57 L641,57 L642,57 L643,57 L644,57 L645,57 L646,57 L647,57 L648,57 L649,57 L650,57 L651,57 L652,57 L653,57 L654,57 L655,57 L656,57 L657,57 L658,57 L659,57 L660,57 L661,57 L662,57 L663,57 L664,57 L665,57 L666,57 L667,57 L668,57 L669,57 L670,57 L671,57 L672,57 L673,57 L674,57 L675,57 L676,58 L676,59 L676,60 L676,61 L676,62 L676,63 L676,64 L676,65 L676,66 L676,67 L676,68 L676,69 L676,70 L676,71 L676,72 L676,73 L676,74 L676,75 L676,76 L676,77 L676,78 L676,79 L676,80 L676,81 L676,82 L676,83 L676,84 L676,85 L676,86 L676,87 L676,88 L676,89 L676,90 L676,91 L676,92 L676,93 L676,94 L676,95 L676,96 L676,97 L676,98 L676,99 L676,100 L676,101 L676,102 L676,103 L676,104 L676,105 L676,106 L676,107 L676,108 L676,109 L676,110 L676,111 L676,112 L676,113 L676,114 L676,115 L676,116 L676,117 L676,118 L676,119 L676,120 L676,121 L676,122 L676,123 L676,124 L676,125 L676,126 L676,127 L676,128 L676,129 L676,130 L676,131 L676,132 L676,133 L676,134 L676,135 L676,136 L676,137 L676,138 L676,139 L676,140 L676,141 L676,142 L676,143 L676,144 L675,144 L674,144 L673,144 L672,144 L671,144 L670,144 L669,144 L668,144 L667,144 L666,144 L665,144 L664,144 L663,144 L662,144 L661,144 L660,144 L659,144 L658,144 L657,144 L656,144 L655,144 L654,144 L653,144 L652,144 L651,144 L650,144 L649,144 L648,144 L647,144 L646,144 L645,144 L644,144 L643,144 L642,144 L641,144 L640,144 L639,144 L638,144 L637,144 L636,144 L635,144 L634,144 L633,144 L632,144 L631,144 L630,144 L629,144 L628,144 L627,144 L626,144 L625,144 L624,144 L623,144 L622,144 L621,144 L620,144 L619,144 L618,144 L617,144 L616,144 L615,144 L614,144 L613,144 L612,144 L611,144 L610,144 L609,144 L608,144 L607,144 L606,144 L605,144 L604,144 L603,144 L602,144 L601,144 L600,144 L599,144 L598,144 L597,144 L596,144 L595,144 L594,144 L593,144 L592,144 L591,144 L590,144 L589,144 L588,144 L587,144 L586,144 L585,144 L584,144 L583,144 L582,144 L581,144 L580,144 L579,144 L578,143 L578,142 L578,141 L578,140 L578,139 L578,138 L578,137 L578,136 L578,135 L578,134 L578,133 L578,132 L578,131 L578,130 L578,129 L578,128 L578,127 L578,126 L578,125 L578,124 L578,123 L578,122 L578,121 L578,120 L578,119 L578,118 L578,117 L578,116 L578,115 L578,114 L578,113 L578,112 L578,111 L578,110 L578,109 L578,108 L578,107 L578,106 L578,105 L578,104 L578,103 L578,102 L578,101 L578,100 L578,99 L578,98 L578,97 L578,96 L578,95 L578,94 L578,93 L578,92 L578,91 L578,90 L578,89 L578,88 L578,87 L578,86 L578,85 L578,84 L578,83 L578,82 L578,81 L578,80 L578,79 L578,78 L578,77 L578,76 L578,75 L578,74 L578,73 L578,72 L578,71 L578,70 L578,69 L578,68 L578,67 L578,66 L578,65 L578,64 L578,63 L578,62 L578,61 L578,60 L578,59 L579,58 Z" fill="none" id="G4P1" stroke="none" stroke-width="1" /><path d="M408,55 L409,55 L410,55 L411,55 L412,55 L413,55 L414,55 L415,55 L416,55 L417,55 L418,55 L419,55 L420,55 L421,55 L422,55 L423,55 L424,55 L425,55 L426,55 L427,55 L428,55 L429,55 L430,55 L431,55 L432,55 L433,55 L434,55 L435,55 L436,55 L437,55 L438,55 L439,55 L440,55 L441,55 L442,55 L443,55 L444,55 L445,55 L446,55 L447,55 L448,55 L449,55 L450,55 L451,55 L452,55 L453,55 L454,55 L455,55 L456,55 L457,55 L458,55 L459,55 L460,55 L461,55 L462,55 L463,55 L464,55 L465,55 L466,55 L467,55 L468,55 L469,55 L470,55 L471,55 L472,55 L473,55 L474,55 L475,55 L476,55 L477,55 L478,55 L479,55 L480,55 L481,55 L482,55 L483,55 L484,55 L485,55 L486,55 L487,55 L488,55 L489,55 L490,55 L491,55 L492,55 L493,55 L494,55 L495,55 L496,55 L497,55 L498,55 L499,55 L500,55 L501,55 L502,55 L503,56 L503,57 L503,58 L503,59 L503,60 L503,61 L503,62 L503,63 L503,64 L503,65 L503,66 L503,67 L503,68 L503,69 L503,70 L503,71 L503,72 L503,73 L503,74 L503,75 L503,76 L503,77 L503,78 L503,79 L503,80 L503,81 L503,82 L503,83 L503,84 L503,85 L503,86 L503,87 L503,88 L503,89 L503,90 L503,91 L503,92 L503,93 L503,94 L503,95 L503,96 L503,97 L503,98 L503,99 L503,100 L503,101 L503,102 L503,103 L503,104 L503,105 L503,106 L503,107 L503,108 L503,109 L503,110 L503,111 L503,112 L503,113 L503,114 L503,115 L503,116 L503,117 L503,118 L503,119 L503,120 L503,121 L503,122 L503,123 L503,124 L503,125 L503,126 L503,127 L503,128 L503,129 L503,130 L503,131 L503,132 L503,133 L503,134 L503,135 L503,136 L503,137 L503,138 L503,139 L503,140 L503,141 L503,142 L502,142 L501,142 L500,142 L499,142 L498,142 L497,142 L496,142 L495,142 L494,142 L493,142 L492,142 L491,142 L490,142 L489,142 L488,142 L487,142 L486,142 L485,142 L484,142 L483,142 L482,142 L481,142 L480,142 L479,142 L478,142 L477,142 L476,142 L475,142 L474,142 L473,142 L472,142 L471,142 L470,142 L469,142 L468,142 L467,142 L466,142 L465,142 L464,142 L463,142 L462,142 L461,142 L460,142 L459,142 L458,142 L457,142 L456,142 L455,142 L454,142 L453,142 L452,142 L451,142 L450,142 L449,142 L448,142 L447,142 L446,142 L445,142 L444,142 L443,142 L442,142 L441,142 L440,142 L439,142 L438,142 L437,142 L436,142 L435,142 L434,142 L433,142 L432,142 L431,142 L430,142 L429,142 L428,142 L427,142 L426,142 L425,142 L424,142 L423,142 L422,142 L421,142 L420,142 L419,142 L418,142 L417,142 L416,142 L415,142 L414,142 L413,142 L412,142 L411,142 L410,142 L409,142 L408,142 L407,142 L406,142 L405,141 L405,140 L405,139 L405,138 L405,137 L405,136 L405,135 L405,134 L405,133 L405,132 L405,131 L405,130 L405,129 L405,128 L405,127 L405,126 L405,125 L405,124 L405,123 L405,122 L405,121 L405,120 L405,119 L405,118 L405,117 L405,116 L405,115 L405,114 L405,113 L405,112 L405,111 L405,110 L405,109 L405,108 L405,107 L405,106 L405,105 L405,104 L405,103 L405,102 L405,101 L405,100 L405,99 L405,98 L405,97 L405,96 L405,95 L405,94 L405,93 L405,92 L405,91 L405,90 L405,89 L405,88 L405,87 L405,86 L405,85 L405,84 L405,83 L405,82 L405,81 L405,80 L405,79 L405,78 L405,77 L405,76 L405,75 L405,74 L405,73 L405,72 L405,71 L405,70 L405,69 L405,68 L405,67 L405,66 L405,65 L405,64 L405,63 L405,62 L405,61 L405,60 L405,59 L405,58 L405,57 L406,56 Z" fill="none" id="G3P1" stroke="none" stroke-width="1" /><path d="M233,55 L234,55 L235,55 L236,55 L237,55 L238,55 L239,55 L240,55 L241,55 L242,55 L243,55 L244,55 L245,55 L246,55 L247,55 L248,55 L249,55 L250,55 L251,55 L252,55 L253,55 L254,55 L255,55 L256,55 L257,55 L258,55 L259,55 L260,55 L261,55 L262,55 L263,55 L264,55 L265,55 L266,55 L267,55 L268,55 L269,55 L270,55 L271,55 L272,55 L273,55 L274,55 L275,55 L276,55 L277,55 L278,55 L279,55 L280,55 L281,55 L282,55 L283,55 L284,55 L285,55 L286,55 L287,55 L288,55 L289,55 L290,55 L291,55 L292,55 L293,55 L294,55 L295,55 L296,55 L297,55 L298,55 L299,55 L300,55 L301,55 L302,55 L303,55 L304,55 L305,55 L306,55 L307,55 L308,55 L309,55 L310,55 L311,55 L312,55 L313,55 L314,55 L315,55 L316,55 L317,55 L318,55 L319,55 L320,55 L321,55 L322,55 L323,55 L324,55 L325,55 L326,55 L327,55 L328,56 L328,57 L328,58 L328,59 L328,60 L328,61 L328,62 L328,63 L328,64 L328,65 L328,66 L328,67 L328,68 L328,69 L328,70 L328,71 L328,72 L328,73 L328,74 L328,75 L328,76 L328,77 L328,78 L328,79 L328,80 L328,81 L328,82 L328,83 L328,84 L328,85 L328,86 L328,87 L328,88 L328,89 L328,90 L328,91 L328,92 L328,93 L328,94 L328,95 L328,96 L328,97 L328,98 L328,99 L328,100 L328,101 L328,102 L328,103 L328,104 L328,105 L328,106 L328,107 L328,108 L328,109 L328,110 L328,111 L328,112 L328,113 L328,114 L328,115 L328,116 L328,117 L328,118 L328,119 L328,120 L328,121 L328,122 L328,123 L328,124 L328,125 L328,126 L328,127 L328,128 L328,129 L328,130 L328,131 L328,132 L328,133 L328,134 L328,135 L328,136 L328,137 L328,138 L328,139 L328,140 L328,141 L328,142 L327,142 L326,142 L325,142 L324,142 L323,142 L322,142 L321,142 L320,142 L319,142 L318,142 L317,142 L316,142 L315,142 L314,142 L313,142 L312,142 L311,142 L310,142 L309,142 L308,142 L307,142 L306,142 L305,142 L304,142 L303,142 L302,142 L301,142 L300,142 L299,142 L298,142 L297,142 L296,142 L295,142 L294,142 L293,142 L292,142 L291,142 L290,142 L289,142 L288,142 L287,142 L286,142 L285,142 L284,142 L283,142 L282,142 L281,142 L280,142 L279,142 L278,142 L277,142 L276,142 L275,142 L274,142 L273,142 L272,142 L271,142 L270,142 L269,142 L268,142 L267,142 L266,142 L265,142 L264,142 L263,142 L262,142 L261,142 L260,142 L259,142 L258,142 L257,142 L256,142 L255,142 L254,142 L253,142 L252,142 L251,142 L250,142 L249,142 L248,142 L247,142 L246,142 L245,142 L244,142 L243,142 L242,142 L241,142 L240,142 L239,142 L238,142 L237,142 L236,142 L235,142 L234,142 L233,142 L232,142 L231,142 L230,141 L230,140 L230,139 L230,138 L230,137 L230,136 L230,135 L230,134 L230,133 L230,132 L230,131 L230,130 L230,129 L230,128 L230,127 L230,126 L230,125 L230,124 L230,123 L230,122 L230,121 L230,120 L230,119 L230,118 L230,117 L230,116 L230,115 L230,114 L230,113 L230,112 L230,111 L230,110 L230,109 L230,108 L230,107 L230,106 L230,105 L230,104 L230,103 L230,102 L230,101 L230,100 L230,99 L230,98 L230,97 L230,96 L230,95 L230,94 L230,93 L230,92 L230,91 L230,90 L230,89 L230,88 L230,87 L230,86 L230,85 L230,84 L230,83 L230,82 L230,81 L230,80 L230,79 L230,78 L230,77 L230,76 L230,75 L230,74 L230,73 L230,72 L230,71 L230,70 L230,69 L230,68 L230,67 L230,66 L230,65 L230,64 L230,63 L230,62 L230,61 L230,60 L230,59 L230,58 L230,57 L231,56 Z" fill="none" id="G2P1" stroke="none" stroke-width="1" /><path d="M53,55 L54,55 L55,55 L56,55 L57,55 L58,55 L59,55 L60,55 L61,55 L62,55 L63,55 L64,55 L65,55 L66,55 L67,55 L68,55 L69,55 L70,55 L71,55 L72,55 L73,55 L74,55 L75,55 L76,55 L77,55 L78,55 L79,55 L80,55 L81,55 L82,55 L83,55 L84,55 L85,55 L86,55 L87,55 L88,55 L89,55 L90,55 L91,55 L92,55 L93,55 L94,55 L95,55 L96,55 L97,55 L98,55 L99,55 L100,55 L101,55 L102,55 L103,55 L104,55 L105,55 L106,55 L107,55 L108,55 L109,55 L110,55 L111,55 L112,55 L113,55 L114,55 L115,55 L116,55 L117,55 L118,55 L119,55 L120,55 L121,55 L122,55 L123,55 L124,55 L125,55 L126,55 L127,55 L128,55 L129,55 L130,55 L131,55 L132,55 L133,55 L134,55 L135,55 L136,55 L137,55 L138,55 L139,55 L140,55 L141,55 L142,55 L143,55 L144,55 L145,55 L146,55 L147,55 L148,56 L148,57 L148,58 L148,59 L148,60 L148,61 L148,62 L148,63 L148,64 L148,65 L148,66 L148,67 L148,68 L148,69 L148,70 L148,71 L148,72 L148,73 L148,74 L148,75 L148,76 L148,77 L148,78 L148,79 L148,80 L148,81 L148,82 L148,83 L148,84 L148,85 L148,86 L148,87 L148,88 L148,89 L148,90 L148,91 L148,92 L148,93 L148,94 L148,95 L148,96 L148,97 L148,98 L148,99 L148,100 L148,101 L148,102 L148,103 L148,104 L148,105 L148,106 L148,107 L148,108 L148,109 L148,110 L148,111 L148,112 L148,113 L148,114 L148,115 L148,116 L148,117 L148,118 L148,119 L148,120 L148,121 L148,122 L148,123 L148,124 L148,125 L148,126 L148,127 L148,128 L148,129 L148,130 L148,131 L148,132 L148,133 L148,134 L148,135 L148,136 L148,137 L148,138 L148,139 L148,140 L148,141 L148,142 L147,142 L146,142 L145,142 L144,142 L143,142 L142,142 L141,142 L140,142 L139,142 L138,142 L137,142 L136,142 L135,142 L134,142 L133,142 L132,142 L131,142 L130,142 L129,142 L128,142 L127,142 L126,142 L125,142 L124,142 L123,142 L122,142 L121,142 L120,142 L119,142 L118,142 L117,142 L116,142 L115,142 L114,142 L113,142 L112,142 L111,142 L110,142 L109,142 L108,142 L107,142 L106,142 L105,142 L104,142 L103,142 L102,142 L101,142 L100,142 L99,142 L98,142 L97,142 L96,142 L95,142 L94,142 L93,142 L92,142 L91,142 L90,142 L89,142 L88,142 L87,142 L86,142 L85,142 L84,142 L83,142 L82,142 L81,142 L80,142 L79,142 L78,142 L77,142 L76,142 L75,142 L74,142 L73,142 L72,142 L71,142 L70,142 L69,142 L68,142 L67,142 L66,142 L65,142 L64,142 L63,142 L62,142 L61,142 L60,142 L59,142 L58,142 L57,142 L56,142 L55,142 L54,142 L53,142 L52,142 L51,142 L50,141 L50,140 L50,139 L50,138 L50,137 L50,136 L50,135 L50,134 L50,133 L50,132 L50,131 L50,130 L50,129 L50,128 L50,127 L50,126 L50,125 L50,124 L50,123 L50,122 L50,121 L50,120 L50,119 L50,118 L50,117 L50,116 L50,115 L50,114 L50,113 L50,112 L50,111 L50,110 L50,109 L50,108 L50,107 L50,106 L50,105 L50,104 L50,103 L50,102 L50,101 L50,100 L50,99 L50,98 L50,97 L50,96 L50,95 L50,94 L50,93 L50,92 L50,91 L50,90 L50,89 L50,88 L50,87 L50,86 L50,85 L50,84 L50,83 L50,82 L50,81 L50,80 L50,79 L50,78 L50,77 L50,76 L50,75 L50,74 L50,73 L50,72 L50,71 L50,70 L50,69 L50,68 L50,67 L50,66 L50,65 L50,64 L50,63 L50,62 L50,61 L50,60 L50,59 L50,58 L50,57 L51,56 Z" fill="none" id="G1P1" stroke="none" stroke-width="1" /></svg>