<?xml version="1.0" encoding="utf-8" ?>
<svg baseProfile="full" height="879" version="1.1" width="1368" xmlns="http://www.w3.org/2000/svg" xmlns:ev="http://www.w3.org/2001/xml-events" xmlns:xlink="http://www.w3.org/1999/xlink"><defs /><path d="M940,536 L941,536 L942,536 L942,537 L943,538 L943,539 L944,540 L944,541 L945,542 L945,543 L946,544 L946,545 L947,545 L947,546 L947,547 L948,548 L948,549 L949,549 L949,550 L950,550 L950,551 L951,552 L951,553 L951,554 L951,555 L952,556 L952,557 L953,558 L953,559 L953,560 L953,561 L953,562 L953,563 L954,564 L954,565 L955,566 L955,567 L956,568 L956,569 L957,569 L957,570 L958,570 L958,571 L958,572 L959,573 L959,574 L960,575 L960,576 L961,576 L961,577 L962,578 L962,579 L963,580 L963,581 L964,581 L964,582 L965,583 L965,584 L966,585 L966,586 L967,587 L967,588 L968,588 L968,589 L968,590 L969,591 L969,592 L969,593 L969,594 L970,595 L970,596 L971,596 L971,597 L970,598 L969,598 L968,598 L967,598 L966,599 L965,599 L964,599 L963,600 L962,600 L961,601 L960,601 L959,601 L958,602 L957,602 L956,603 L955,603 L954,603 L953,603 L953,604 L952,604 L951,604 L951,603 L950,603 L950,602 L949,602 L949,601 L948,601 L948,600 L947,600 L946,600 L945,600 L944,601 L943,601 L943,602 L942,602 L941,603 L940,603 L940,604 L939,604 L938,605 L937,605 L936,606 L935,606 L935,607 L934,607 L934,608 L933,608 L932,608 L931,608 L930,609 L929,609 L928,609 L927,610 L926,610 L925,610 L924,609 L923,610 L922,610 L921,610 L920,610 L919,610 L918,610 L917,611 L916,611 L915,611 L914,611 L913,611 L912,611 L911,611 L910,612 L909,612 L908,612 L907,612 L906,613 L905,613 L904,613 L903,613 L902,613 L901,614 L900,614 L899,614 L898,614 L897,615 L896,615 L895,616 L894,616 L893,616 L892,616 L891,616 L890,616 L889,616 L888,615 L888,614 L888,613 L889,612 L889,611 L890,611 L890,610 L891,610 L892,609 L893,609 L893,608 L894,608 L894,607 L894,606 L894,605 L894,604 L894,603 L894,602 L894,601 L894,600 L894,599 L894,598 L895,598 L895,597 L896,597 L896,596 L897,595 L897,594 L898,593 L898,592 L899,592 L899,591 L900,591 L900,590 L901,590 L901,589 L902,589 L903,588 L904,588 L905,587 L906,587 L906,586 L907,586 L907,585 L908,585 L909,584 L910,584 L910,583 L911,582 L911,581 L911,580 L912,579 L913,578 L913,577 L913,576 L913,575 L913,574 L913,573 L913,572 L912,571 L912,570 L912,569 L912,568 L911,567 L911,566 L911,565 L911,564 L911,563 L911,562 L910,561 L910,560 L910,559 L910,558 L910,557 L909,556 L909,555 L909,554 L910,553 L910,552 L910,551 L910,550 L910,549 L910,548 L911,547 L911,546 L911,545 L912,544 L913,543 L914,543 L914,542 L915,542 L915,541 L916,541 L916,540 L917,540 L918,539 L919,539 L920,538 L921,538 L922,538 L923,538 L924,538 L925,538 L926,538 L927,538 L928,538 L929,538 L930,538 L931,538 L932,538 L933,538 L934,538 L935,538 L936,537 L937,537 L938,537 Z" fill="none" id="RE14" stroke="none" stroke-width="1" /><path d="M957,531 L958,531 L959,531 L960,532 L961,532 L962,533 L963,533 L964,534 L965,534 L966,535 L966,536 L967,537 L967,538 L967,539 L967,540 L967,541 L967,542 L967,543 L967,544 L967,545 L968,546 L969,546 L970,546 L971,546 L972,546 L973,545 L974,545 L975,545 L976,545 L977,545 L977,546 L978,546 L979,546 L980,547 L981,547 L981,548 L982,548 L983,549 L984,549 L985,549 L986,549 L987,549 L988,549 L989,549 L990,549 L991,549 L992,549 L993,549 L994,549 L995,549 L996,549 L997,549 L998,548 L999,548 L1000,548 L1001,548 L1002,548 L1003,548 L1004,548 L1005,548 L1006,548 L1007,548 L1008,548 L1009,548 L1010,549 L1011,549 L1011,550 L1012,550 L1012,551 L1013,551 L1013,552 L1014,552 L1015,553 L1016,553 L1016,554 L1017,554 L1018,555 L1019,556 L1019,557 L1020,557 L1020,558 L1021,558 L1021,559 L1022,559 L1023,559 L1024,559 L1025,559 L1026,559 L1027,559 L1028,558 L1029,558 L1030,558 L1031,558 L1032,558 L1033,557 L1034,557 L1035,557 L1036,557 L1037,556 L1038,556 L1039,556 L1040,556 L1041,556 L1042,557 L1043,557 L1044,558 L1045,558 L1046,558 L1047,558 L1048,558 L1049,558 L1050,558 L1051,557 L1052,557 L1053,557 L1054,557 L1055,557 L1056,557 L1057,557 L1058,557 L1059,557 L1060,558 L1061,558 L1062,558 L1063,558 L1064,558 L1065,557 L1066,557 L1067,557 L1068,557 L1069,557 L1070,558 L1071,558 L1072,559 L1073,559 L1074,560 L1075,560 L1076,561 L1077,562 L1077,563 L1078,563 L1078,564 L1079,565 L1080,565 L1081,565 L1082,564 L1083,564 L1084,564 L1085,563 L1086,563 L1087,563 L1088,563 L1089,562 L1090,563 L1091,563 L1092,564 L1093,564 L1093,565 L1094,565 L1095,566 L1096,566 L1097,567 L1098,567 L1099,567 L1100,567 L1100,566 L1101,565 L1102,564 L1103,564 L1103,563 L1104,563 L1104,562 L1105,562 L1105,561 L1106,561 L1106,560 L1107,560 L1107,559 L1108,559 L1108,558 L1109,557 L1110,556 L1111,556 L1111,555 L1112,554 L1112,553 L1113,553 L1113,552 L1114,552 L1114,551 L1115,551 L1116,551 L1117,551 L1118,551 L1119,551 L1119,550 L1120,550 L1120,549 L1121,549 L1121,548 L1122,548 L1123,547 L1124,547 L1125,547 L1126,547 L1127,548 L1127,549 L1128,549 L1128,550 L1129,550 L1130,550 L1130,549 L1131,549 L1132,548 L1133,548 L1133,547 L1134,547 L1134,546 L1135,546 L1136,545 L1137,545 L1138,545 L1139,546 L1140,546 L1141,546 L1142,546 L1143,546 L1144,547 L1145,547 L1145,548 L1146,549 L1146,550 L1147,550 L1147,551 L1148,552 L1148,553 L1149,554 L1149,555 L1150,555 L1150,556 L1151,556 L1152,557 L1153,557 L1154,558 L1155,558 L1156,558 L1157,557 L1157,556 L1158,556 L1158,555 L1158,554 L1158,553 L1158,552 L1158,551 L1159,551 L1160,550 L1161,550 L1162,550 L1163,550 L1164,550 L1165,550 L1166,550 L1167,550 L1168,549 L1169,549 L1170,550 L1171,550 L1172,551 L1173,551 L1173,552 L1174,552 L1174,553 L1175,553 L1176,553 L1176,552 L1177,552 L1177,551 L1178,551 L1179,550 L1180,550 L1181,550 L1182,550 L1183,550 L1184,550 L1185,550 L1186,550 L1187,550 L1188,549 L1189,549 L1190,549 L1191,549 L1192,549 L1192,548 L1193,548 L1193,547 L1194,547 L1195,547 L1196,547 L1197,548 L1198,548 L1199,549 L1200,549 L1200,550 L1200,551 L1199,551 L1198,552 L1197,552 L1196,553 L1196,554 L1196,555 L1196,556 L1196,557 L1196,558 L1195,559 L1196,560 Z" fill="none" id="RE15" stroke="none" stroke-width="1" /><path d="M1266,488 L1267,488 L1268,488 L1269,488 L1270,488 L1271,489 L1271,490 L1271,491 L1271,492 L1271,493 L1270,494 L1270,495 L1270,496 L1269,497 L1269,498 L1269,499 L1268,500 L1268,501 L1268,502 L1267,503 L1267,504 L1267,505 L1266,506 L1266,507 L1266,508 L1265,509 L1265,510 L1265,511 L1264,512 L1264,513 L1264,514 L1263,515 L1263,516 L1263,517 L1263,518 L1262,519 L1262,520 L1262,521 L1261,522 L1261,523 L1261,524 L1260,525 L1260,526 L1259,527 L1259,528 L1258,529 L1258,530 L1258,531 L1258,532 L1258,533 L1257,533 L1257,534 L1257,535 L1257,536 L1256,536 L1256,537 L1255,538 L1255,539 L1255,540 L1254,541 L1254,542 L1253,543 L1253,544 L1253,545 L1253,546 L1252,547 L1252,548 L1252,549 L1252,550 L1252,551 L1252,552 L1252,553 L1251,553 L1251,554 L1250,555 L1250,556 L1249,556 L1249,557 L1249,558 L1249,559 L1249,560 L1249,561 L1249,562 L1248,563 L1248,564 L1248,565 L1248,566 L1248,567 L1248,568 L1248,569 L1248,570 L1248,571 L1248,572 L1248,573 L1247,574 L1247,575 L1247,576 L1246,576 L1246,577 L1245,577 L1245,578 L1244,579 L1243,580 L1242,581 L1243,582 L1243,583 L1243,584 L1242,585 L1242,586 L1242,587 L1242,588 L1242,589 L1242,590 L1242,591 L1242,592 L1242,593 L1242,594 L1242,595 L1241,596 L1241,597 L1241,598 L1241,599 L1241,600 L1241,601 L1241,602 L1240,602 L1240,603 L1239,603 L1239,604 L1238,604 L1238,605 L1237,606 L1237,607 L1236,608 L1236,609 L1236,610 L1236,611 L1236,612 L1236,613 L1236,614 L1236,615 L1236,616 L1236,617 L1236,618 L1236,619 L1236,620 L1236,621 L1236,622 L1236,623 L1236,624 L1235,624 L1234,624 L1234,623 L1233,622 L1233,621 L1233,620 L1233,619 L1232,618 L1232,617 L1232,616 L1232,615 L1232,614 L1232,613 L1232,612 L1232,611 L1232,610 L1232,609 L1232,608 L1232,607 L1232,606 L1232,605 L1232,604 L1232,603 L1231,602 L1231,601 L1231,600 L1230,600 L1230,599 L1229,598 L1229,597 L1229,596 L1229,595 L1228,594 L1228,593 L1227,593 L1227,592 L1226,591 L1226,590 L1225,589 L1225,588 L1224,588 L1224,587 L1224,586 L1224,585 L1223,584 L1222,585 L1222,586 L1222,587 L1222,588 L1222,589 L1222,590 L1222,591 L1222,592 L1222,593 L1222,594 L1222,595 L1222,596 L1222,597 L1222,598 L1222,599 L1222,600 L1222,601 L1223,602 L1223,603 L1223,604 L1223,605 L1223,606 L1223,607 L1223,608 L1223,609 L1223,610 L1223,611 L1223,612 L1223,613 L1223,614 L1223,615 L1223,616 L1223,617 L1223,618 L1223,619 L1223,620 L1223,621 L1223,622 L1223,623 L1223,624 L1223,625 L1223,626 L1223,627 L1223,628 L1222,629 L1221,629 L1221,628 L1220,628 L1220,627 L1219,627 L1218,626 L1217,626 L1217,625 L1216,625 L1216,624 L1215,624 L1215,623 L1214,623 L1213,622 L1212,621 L1211,620 L1210,619 L1210,618 L1209,618 L1209,617 L1208,617 L1208,616 L1207,616 L1206,615 L1205,615 L1205,614 L1204,614 L1204,613 L1203,613 L1203,612 L1202,612 L1201,611 L1200,610 L1200,609 L1199,609 L1199,608 L1198,608 L1198,607 L1197,606 L1197,605 L1196,605 L1196,604 L1195,603 L1195,602 L1195,601 L1194,600 L1194,599 L1193,598 L1193,597 L1192,596 L1192,595 L1192,594 L1192,593 L1192,592 L1192,591 L1193,590 L1193,589 L1193,588 L1193,587 L1193,586 L1193,585 L1194,584 L1194,583 L1194,582 L1194,581 L1195,580 L1196,579 L1197,578 L1198,577 L1199,577 L1200,577 L1200,576 L1201,576 L1201,575 L1202,575 L1203,574 L1204,573 L1205,572 L1206,572 L1207,572 L1207,571 L1208,571 L1208,570 L1209,570 L1210,569 L1210,568 L1210,567 L1210,566 L1210,565 L1211,565 L1212,564 L1213,564 L1213,563 L1214,563 L1214,562 L1215,562 L1215,561 L1216,560 L1216,559 L1217,559 L1217,558 L1218,557 L1219,556 L1220,556 L1221,555 L1222,555 L1223,555 L1224,555 L1225,555 L1226,555 L1227,555 L1228,555 L1229,555 L1230,555 L1231,555 L1232,555 L1232,554 L1232,553 L1233,552 L1233,551 L1233,550 L1234,549 L1234,548 L1234,547 L1235,546 L1235,545 L1235,544 L1236,543 L1236,542 L1236,541 L1237,540 L1237,539 L1237,538 L1238,537 L1238,536 L1238,535 L1239,534 L1239,533 L1239,532 L1240,531 L1240,530 L1240,529 L1241,528 L1241,527 L1241,526 L1242,525 L1242,524 L1242,523 L1243,522 L1243,521 L1243,520 L1244,519 L1244,518 L1245,518 L1245,517 L1246,516 L1246,515 L1247,514 L1247,513 L1248,512 L1248,511 L1249,510 L1249,509 L1250,508 L1250,507 L1251,506 L1251,505 L1251,504 L1251,503 L1252,502 L1252,501 L1252,500 L1252,499 L1253,498 L1253,497 L1253,496 L1253,495 L1253,494 L1254,493 L1255,492 L1256,492 L1257,492 L1258,492 L1259,492 L1260,493 Z" fill="none" id="RE16" stroke="none" stroke-width="1" /><path d="M592,470 L593,470 L594,470 L595,470 L596,470 L597,470 L598,470 L599,470 L600,470 L601,471 L601,472 L602,473 L602,474 L602,475 L601,476 L601,477 L600,478 L600,479 L600,480 L600,481 L599,482 L599,483 L599,484 L599,485 L599,486 L598,487 L598,488 L598,489 L597,490 L596,491 L595,492 L594,493 L593,493 L592,494 L591,494 L591,495 L590,495 L589,496 L588,497 L587,498 L586,498 L585,498 L584,497 L583,497 L582,497 L581,497 L580,498 L579,498 L579,499 L579,500 L579,501 L579,502 L578,503 L577,504 L576,504 L576,505 L575,505 L574,506 L573,506 L572,507 L571,507 L570,508 L569,508 L569,509 L568,509 L567,510 L566,510 L566,511 L565,511 L564,512 L563,512 L562,512 L561,513 L560,513 L559,514 L558,514 L557,515 L556,516 L555,516 L554,517 L553,517 L552,518 L551,518 L551,519 L550,520 L550,521 L549,522 L549,523 L549,524 L548,525 L548,526 L548,527 L547,528 L547,529 L547,530 L547,531 L547,532 L546,532 L545,533 L544,533 L544,534 L543,534 L543,535 L542,535 L541,536 L540,536 L540,537 L539,537 L538,538 L537,539 L536,540 L535,540 L534,541 L533,541 L533,542 L532,542 L531,543 L530,543 L530,544 L529,544 L528,545 L527,545 L527,546 L526,546 L526,547 L525,547 L524,548 L523,548 L522,549 L521,550 L520,551 L519,551 L518,552 L517,552 L517,553 L516,553 L515,554 L514,555 L513,555 L512,556 L511,557 L510,558 L509,558 L508,559 L507,559 L506,560 L505,561 L504,561 L503,562 L502,562 L501,562 L500,562 L499,562 L498,562 L497,563 L496,563 L495,563 L494,563 L493,564 L492,564 L491,565 L490,565 L490,566 L489,566 L488,567 L487,567 L486,568 L485,569 L484,569 L483,570 L482,570 L482,571 L481,571 L480,572 L479,572 L479,573 L478,573 L477,574 L476,574 L476,575 L475,575 L474,576 L473,576 L472,577 L471,577 L471,578 L470,578 L469,579 L468,579 L467,579 L466,580 L465,580 L464,580 L463,581 L462,581 L461,581 L460,581 L459,581 L458,581 L457,581 L456,581 L455,582 L454,582 L453,582 L452,583 L451,583 L450,583 L449,583 L448,583 L447,583 L446,583 L445,583 L444,584 L443,584 L442,584 L441,585 L440,585 L439,585 L438,585 L437,585 L436,585 L435,585 L434,585 L433,586 L432,586 L431,586 L430,587 L429,587 L428,587 L427,587 L426,587 L425,587 L424,587 L423,587 L422,588 L421,588 L421,589 L420,589 L420,590 L419,590 L419,591 L418,591 L418,592 L417,592 L417,593 L416,593 L416,594 L415,594 L415,595 L414,595 L414,596 L413,596 L412,597 L411,597 L411,598 L410,598 L410,599 L409,599 L409,600 L408,600 L408,601 L407,601 L407,602 L406,602 L406,603 L405,603 L405,604 L404,604 L404,605 L403,605 L403,606 L402,606 L402,607 L401,607 L401,608 L400,608 L400,609 L399,609 L399,610 L398,610 L398,611 L397,611 L397,612 L396,612 L396,613 L395,613 L395,614 L394,614 L394,615 L393,615 L393,616 L392,616 L392,617 L391,617 L391,618 L390,618 L390,619 L389,619 L389,620 L388,620 L388,621 L387,621 L387,622 L386,622 L385,622 L384,622 L383,622 L382,622 L381,622 L380,622 L380,623 L379,624 L379,625 L378,625 L377,626 L376,627 L375,628 L374,628 L374,629 L373,629 L373,630 L372,631 L371,632 L370,633 L370,634 L369,634 L369,635 L368,635 L368,636 L367,636 L367,637 L366,637 L366,638 L365,638 L365,639 L364,639 L364,640 L363,640 L363,641 L362,641 L361,642 L360,643 L360,644 L359,644 L358,645 L357,645 L356,646 L355,646 L355,647 L354,647 L354,648 L353,649 L352,650 L351,650 L351,651 L350,652 L349,653 L348,654 L347,655 L346,655 L346,656 L345,656 L345,657 L344,657 L344,658 L343,659 L343,660 L342,660 L342,661 L341,661 L341,662 L340,663 L339,664 L338,664 L338,665 L337,665 L337,666 L336,666 L336,667 L335,667 L335,668 L334,668 L334,669 L333,669 L333,670 L332,670 L332,671 L331,671 L331,672 L330,673 L329,674 L328,674 L328,675 L327,675 L327,676 L326,676 L326,677 L325,677 L325,678 L324,678 L323,679 L322,679 L322,680 L321,680 L321,681 L320,681 L320,682 L319,683 L318,684 L317,684 L317,685 L316,685 L315,685 L314,685 L313,686 L312,686 L311,686 L310,685 L309,685 L308,685 L307,686 L306,686 L305,686 L304,686 L303,686 L302,686 L301,687 L300,687 L299,687 L298,686 L297,686 L296,686 L295,687 L294,687 L293,687 L292,687 L291,687 L290,687 L289,688 L288,688 L287,688 L286,687 L285,688 L284,688 L283,688 L282,688 L281,688 L280,689 L279,689 L278,690 L277,690 L277,691 L276,691 L275,691 L274,692 L273,692 L272,692 L271,693 L270,693 L269,694 L268,694 L267,695 L266,695 L265,696 L264,696 L264,697 L263,697 L262,697 L261,697 L260,698 L259,698 L258,699 L257,699 L256,700 L255,700 L254,701 L253,701 L252,702 L251,702 L250,702 L249,701 L248,701 L247,701 L246,701 L245,701 L244,702 L243,702 L242,702 L241,702 L240,702 L239,702 L238,702 L237,702 L236,702 L235,702 L234,702 L233,702 L232,702 L231,702 L230,703 L229,703 L228,703 L227,703 L226,703 L225,703 L224,702 L225,701 L225,700 L225,699 L226,698 L226,697 L227,697 L227,696 L227,695 L228,694 L228,693 L229,692 L229,691 L230,690 L230,689 L230,688 L231,687 L231,686 L232,685 L232,684 L233,683 L233,682 L233,681 L234,680 L234,679 L235,678 L235,677 L236,676 L236,675 L237,674 L237,673 L238,672 L238,671 L238,670 L238,669 L239,669 L239,668 L239,667 L240,666 L240,665 L241,665 L241,664 L242,663 L242,662 L243,662 L243,661 L244,660 L244,659 L245,659 L245,658 L246,657 L246,656 L247,656 L247,655 L248,654 L248,653 L249,652 L249,651 L250,651 L250,650 L251,649 L251,648 L252,648 L252,647 L253,646 L253,645 L254,645 L254,644 L255,644 L255,643 L256,642 L256,641 L257,641 L257,640 L257,639 L258,638 L259,637 L259,636 L260,635 L261,634 L261,633 L262,632 L263,631 L263,630 L264,629 L265,628 L265,627 L266,626 L267,625 L268,625 L269,624 L270,624 L271,623 L272,623 L272,622 L273,622 L274,621 L275,621 L276,620 L277,620 L278,619 L279,618 L280,617 L281,617 L282,617 L282,616 L283,616 L284,615 L285,615 L285,614 L286,614 L287,613 L288,613 L289,613 L289,612 L290,612 L291,611 L292,611 L293,610 L294,610 L295,609 L296,609 L296,608 L297,608 L298,607 L299,607 L299,606 L300,606 L300,605 L301,605 L302,604 L303,604 L304,604 L305,603 L306,603 L306,602 L307,602 L308,601 L309,601 L310,600 L311,600 L312,599 L313,599 L314,598 L315,598 L315,597 L316,597 L316,596 L317,595 L318,594 L319,594 L319,593 L320,593 L320,592 L321,591 L321,590 L322,590 L322,589 L323,589 L323,588 L324,587 L325,586 L326,586 L326,585 L327,585 L327,584 L328,583 L329,582 L330,582 L331,582 L332,581 L333,581 L334,580 L335,580 L336,579 L337,579 L337,578 L338,578 L339,577 L340,577 L341,576 L342,575 L343,575 L344,575 L344,574 L344,573 L345,572 L345,571 L346,571 L346,570 L347,569 L347,568 L347,567 L348,566 L348,565 L349,564 L350,563 L351,563 L352,562 L353,561 L354,560 L355,560 L356,559 L357,558 L358,557 L359,557 L360,556 L361,555 L362,554 L363,554 L364,553 L365,553 L365,552 L366,552 L366,551 L367,551 L367,550 L368,550 L368,549 L369,549 L370,548 L371,548 L371,547 L372,547 L372,546 L373,546 L374,545 L375,545 L376,544 L377,544 L378,544 L379,543 L380,542 L380,541 L381,541 L381,540 L382,539 L382,538 L383,538 L383,537 L384,537 L384,536 L385,536 L385,535 L386,534 L387,533 L388,532 L388,531 L389,531 L389,530 L390,529 L390,528 L391,528 L391,527 L392,526 L392,525 L393,524 L393,523 L393,522 L394,521 L394,520 L394,519 L394,518 L394,517 L395,516 L395,515 L396,515 L397,515 L397,516 L398,516 L398,517 L399,517 L399,518 L400,518 L401,519 L402,519 L403,519 L404,520 L405,520 L406,520 L407,521 L408,521 L408,522 L409,522 L410,522 L411,522 L411,523 L412,523 L413,523 L414,523 L415,523 L416,523 L417,523 L418,523 L419,523 L420,523 L421,523 L422,523 L423,523 L424,523 L425,523 L426,522 L427,522 L428,522 L429,523 L430,523 L431,524 L432,524 L432,525 L433,525 L434,526 L435,526 L436,527 L437,527 L437,528 L438,528 L439,528 L440,527 L441,527 L442,526 L443,526 L443,525 L444,525 L445,524 L446,524 L447,524 L448,524 L449,524 L450,524 L451,524 L452,524 L453,525 L454,525 L455,525 L456,525 L457,526 L458,526 L458,527 L458,528 L458,529 L459,530 L460,530 L461,530 L462,529 L463,529 L463,528 L464,528 L465,527 L466,527 L466,526 L467,526 L468,525 L469,525 L470,525 L471,525 L472,525 L473,525 L473,524 L474,524 L475,523 L476,523 L476,522 L477,522 L477,521 L478,521 L478,520 L479,520 L479,519 L480,519 L480,518 L481,517 L482,516 L483,516 L483,515 L484,515 L484,514 L485,514 L486,513 L487,513 L487,512 L488,512 L489,511 L490,510 L491,509 L492,509 L493,508 L494,507 L495,507 L496,506 L497,505 L498,504 L499,504 L500,504 L501,504 L502,504 L503,504 L504,504 L505,504 L506,504 L507,503 L508,503 L508,502 L509,502 L509,501 L510,501 L510,500 L511,500 L512,499 L513,499 L513,498 L514,498 L514,497 L515,497 L515,496 L516,496 L516,495 L517,495 L517,494 L518,493 L519,492 L520,492 L521,492 L522,491 L523,491 L524,490 L525,490 L526,489 L527,489 L528,488 L529,488 L530,487 L531,487 L532,486 L533,486 L533,485 L534,485 L535,484 L536,484 L537,483 L538,483 L539,482 L540,482 L541,482 L542,482 L543,482 L544,482 L545,481 L546,481 L547,481 L548,481 L549,481 L550,481 L551,481 L552,480 L553,480 L554,480 L555,480 L556,480 L557,479 L558,479 L559,479 L560,479 L561,479 L562,479 L563,478 L564,478 L565,478 L566,478 L567,478 L568,477 L569,477 L570,477 L571,477 L572,477 L573,477 L574,477 L574,476 L575,476 L576,475 L577,475 L578,475 L579,475 L579,474 L580,474 L581,474 L582,474 L583,473 L584,473 L585,472 L586,472 L587,472 L588,471 L589,471 L590,471 Z" fill="none" id="RE11" stroke="none" stroke-width="1" /><path d="M1209,467 L1210,467 L1210,468 L1211,468 L1212,469 L1213,469 L1213,470 L1214,470 L1215,471 L1216,471 L1216,472 L1217,472 L1218,472 L1219,473 L1220,473 L1220,474 L1221,474 L1221,475 L1222,475 L1222,476 L1223,476 L1224,476 L1225,476 L1226,476 L1227,475 L1228,476 L1229,476 L1229,477 L1230,477 L1231,478 L1232,478 L1233,479 L1234,480 L1235,481 L1236,481 L1236,482 L1237,482 L1237,483 L1238,483 L1238,484 L1239,484 L1239,485 L1240,485 L1240,486 L1241,486 L1241,487 L1242,487 L1242,488 L1243,489 L1243,490 L1244,490 L1244,491 L1245,491 L1246,491 L1247,491 L1248,491 L1249,491 L1250,492 L1250,493 L1250,494 L1250,495 L1249,496 L1249,497 L1249,498 L1249,499 L1249,500 L1249,501 L1249,502 L1248,503 L1248,504 L1247,505 L1247,506 L1246,507 L1246,508 L1245,509 L1245,510 L1245,511 L1244,511 L1244,512 L1243,513 L1243,514 L1242,515 L1242,516 L1241,517 L1241,518 L1240,519 L1240,520 L1240,521 L1239,522 L1239,523 L1239,524 L1238,525 L1238,526 L1238,527 L1237,528 L1237,529 L1237,530 L1236,531 L1236,532 L1236,533 L1235,534 L1235,535 L1235,536 L1234,537 L1234,538 L1233,539 L1233,540 L1233,541 L1232,542 L1232,543 L1232,544 L1231,545 L1231,546 L1231,547 L1230,548 L1230,549 L1230,550 L1229,550 L1229,551 L1228,551 L1227,551 L1226,551 L1225,551 L1224,551 L1223,551 L1222,551 L1221,551 L1220,550 L1219,550 L1219,549 L1218,549 L1217,548 L1216,547 L1216,546 L1215,546 L1214,545 L1213,545 L1212,544 L1211,543 L1211,542 L1210,542 L1209,541 L1208,541 L1207,540 L1206,539 L1206,538 L1205,538 L1204,537 L1203,537 L1203,536 L1202,536 L1202,535 L1201,535 L1201,534 L1200,533 L1201,532 L1201,531 L1201,530 L1201,529 L1201,528 L1201,527 L1201,526 L1201,525 L1201,524 L1201,523 L1201,522 L1201,521 L1201,520 L1201,519 L1202,518 L1202,517 L1202,516 L1202,515 L1202,514 L1202,513 L1202,512 L1202,511 L1202,510 L1202,509 L1202,508 L1202,507 L1202,506 L1202,505 L1202,504 L1202,503 L1202,502 L1202,501 L1203,500 L1203,499 L1203,498 L1203,497 L1203,496 L1203,495 L1203,494 L1203,493 L1203,492 L1203,491 L1203,490 L1203,489 L1204,488 L1204,487 L1204,486 L1204,485 L1204,484 L1204,483 L1204,482 L1204,481 L1204,480 L1205,479 L1205,478 L1205,477 L1205,476 L1205,475 L1205,474 L1205,473 L1205,472 L1205,471 L1206,470 L1206,469 L1206,468 L1207,467 Z" fill="none" id="RE17" stroke="none" stroke-width="1" /><path d="M653,461 L654,461 L654,462 L654,463 L654,464 L655,465 L655,466 L655,467 Z" fill="none" id="RE12" stroke="none" stroke-width="1" /><path d="M719,446 L720,446 L720,447 L720,448 L720,449 L720,450 L720,451 L720,452 L721,453 L721,454 L721,455 L721,456 L720,456 L719,457 L718,457 L717,458 L716,459 L716,460 L716,461 L716,462 L716,463 L715,463 L714,463 L713,464 L712,464 L712,465 L711,465 L711,466 L710,467 L710,468 L709,468 L709,469 L708,470 L708,471 L708,472 L708,473 L708,474 L709,475 L709,476 L709,477 L710,478 L710,479 L711,479 L711,480 L712,480 L713,481 L714,482 L715,482 L716,482 L717,482 L718,482 L719,483 L720,483 L720,484 L720,485 L721,486 L721,487 L721,488 L721,489 L721,490 L721,491 L721,492 L721,493 L721,494 L721,495 L721,496 L720,496 L720,497 L719,498 L719,499 L718,499 L718,500 L717,501 L717,502 L716,503 L715,504 L716,505 L716,506 L716,507 L716,508 L715,508 L715,509 L714,509 L713,509 L712,509 L711,510 L710,510 L709,510 L708,511 L707,511 L706,512 L705,513 L705,514 L705,515 L705,516 L705,517 L705,518 L705,519 L705,520 L705,521 L705,522 L706,523 L706,524 L706,525 L706,526 L706,527 L706,528 L706,529 L707,529 L707,530 L708,530 L708,531 L709,531 L709,532 L710,533 L710,534 L711,534 L711,535 L712,535 L712,536 L713,536 L714,537 L715,537 L716,537 L717,537 L718,537 L719,537 L720,537 L721,536 L722,536 L723,536 L724,536 L725,536 L726,537 L727,538 L727,539 L728,539 L728,540 L729,540 L729,541 L730,541 L730,542 L731,542 L731,543 L732,543 L733,544 L734,544 L734,545 L735,546 L736,547 L737,547 L738,548 L739,548 L740,549 L741,549 L742,550 L743,550 L744,550 L745,551 Z" fill="none" id="RE13" stroke="none" stroke-width="1" /><path d="M397,444 L398,445 L399,445 L400,446 L401,446 L402,446 L403,447 L404,447 L405,448 L406,448 L407,449 L407,450 L407,451 L406,452 L407,453 L408,453 L409,454 L410,455 L411,456 L412,456 L412,457 L413,457 L414,458 L415,458 L415,459 L416,459 L417,460 L418,460 L418,461 L419,461 L420,462 L421,462 L422,463 L423,464 L424,464 L425,465 L426,465 L427,465 L427,466 L427,467 L427,468 L428,469 L428,470 L429,470 L430,470 L431,470 L431,471 L432,471 L433,472 L434,472 L435,473 L436,473 L437,474 Z" fill="none" id="RE10" stroke="none" stroke-width="1" /><path d="M791,415 L792,416 L793,416 L793,417 L793,418 L792,418 L792,419 L791,419 L791,420 L790,420 L790,421 L790,422 L791,423 L791,424 L791,425 L791,426 L792,427 L792,428 L792,429 L792,430 L792,431 L792,432 L792,433 L792,434 L792,435 L792,436 L792,437 L792,438 L792,439 L792,440 L792,441 L792,442 L792,443 L792,444 L792,445 L792,446 L792,447 L792,448 L792,449 L791,449 L790,449 L789,449 L788,449 L787,449 L786,448 L785,448 L784,448 L783,448 L782,447 L781,447 L780,447 L779,446 L778,446 L777,446 L777,445 L776,445 L776,444 L775,444 L774,443 L773,443 L772,443 L771,443 L770,443 L769,443 L768,443 L767,443 L766,443 L765,443 L764,443 L764,442 L763,442 L762,441 L761,441 L760,440 L759,440 L758,440 L757,439 L756,439 L755,438 L754,438 L753,438 L752,437 L751,437 L750,437 L750,436 L749,436 L748,435 L747,435 L746,435 L745,435 L744,435 L743,435 L743,434 L742,434 L742,433 L741,432 L741,431 L741,430 L742,429 L742,428 L742,427 L743,426 L743,425 L744,424 L744,423 L745,423 L746,422 L747,422 L748,422 L748,421 L749,421 L750,420 L751,420 L752,420 L753,420 L754,421 L755,421 L755,422 L756,422 L757,423 L758,423 L759,423 L760,423 L761,423 L762,423 L763,423 L764,423 L765,423 L766,423 L767,422 L768,421 L769,420 L770,420 L771,419 L772,419 L773,419 L774,419 L775,419 L776,419 L777,419 L778,419 L779,419 L780,419 L781,418 L782,418 L782,417 L783,417 L784,416 L785,416 L786,416 L787,416 L788,416 L789,416 Z" fill="none" id="RE43" stroke="none" stroke-width="1" /><path d="M948,398 L949,398 L950,399 L951,399 L951,400 L952,400 L953,401 L954,401 L955,402 L956,402 L957,403 L958,403 L959,404 L960,404 L960,405 L960,406 L960,407 L959,408 L959,409 L959,410 L958,411 L957,411 L956,411 L955,411 L954,411 L953,410 L952,410 L951,409 L950,409 L949,409 L948,409 L947,409 L946,409 L946,410 L945,410 L945,411 L944,411 L944,412 L943,413 L943,414 L942,414 L942,415 L942,416 L943,417 L944,417 L945,418 L946,418 L947,419 L948,419 L948,420 L948,421 L948,422 L947,422 L946,422 L945,423 L944,423 L944,424 L943,424 L943,425 L942,426 L942,427 L942,428 L942,429 L943,429 L943,430 L944,430 L944,431 L945,431 L946,432 L947,433 L947,434 L947,435 L948,436 L948,437 L948,438 L949,439 L949,440 L949,441 L949,442 L948,442 L947,442 L947,441 L946,441 L946,440 L945,440 L945,439 L944,439 L944,438 L943,438 L943,437 L942,436 L942,435 L941,435 L940,434 L939,435 L938,435 L938,436 L937,436 L937,437 L936,438 L937,439 L937,440 L938,440 L938,441 L938,442 L938,443 L938,444 L937,444 L936,444 L936,443 L935,443 L935,442 L934,441 L934,440 L933,440 L933,439 L932,439 L932,438 L931,437 L931,436 L931,435 L930,434 L929,433 L928,433 L927,432 L926,432 L925,432 L924,432 L924,433 L924,434 L924,435 L923,435 L922,435 L921,435 L920,435 L920,434 L919,434 L919,433 L918,432 L918,431 L917,430 L917,429 L917,428 L917,427 L916,426 L916,425 L916,424 L916,423 L915,423 L915,422 L914,422 L914,421 L913,421 L912,420 L911,420 L910,419 L909,418 L908,418 L907,417 L906,416 L906,415 L906,414 L907,413 L908,412 L909,411 L910,410 L911,410 L912,410 L913,410 L914,409 L915,409 L916,409 L917,409 L918,410 L919,410 L919,411 L920,411 L921,411 L922,411 L923,411 L924,410 L925,410 L926,409 L927,409 L928,409 L929,409 L930,410 L931,410 L932,411 L933,411 L934,412 L934,413 Z" fill="none" id="RE31" stroke="none" stroke-width="1" /><path d="M1097,396 L1098,396 L1099,396 L1100,396 L1101,397 L1102,397 L1103,397 L1104,398 L1105,398 L1106,398 L1107,398 L1108,399 L1109,399 L1109,400 L1110,400 L1111,400 L1112,401 L1113,401 L1114,401 L1115,401 L1116,401 L1117,401 L1118,401 L1119,401 L1120,401 L1121,401 L1122,402 L1122,403 L1123,404 L1124,405 L1125,405 L1126,405 L1127,405 L1128,406 L1129,406 L1130,406 L1131,406 L1132,406 L1133,407 L1134,408 L1134,409 L1134,410 L1134,411 L1134,412 L1134,413 L1134,414 L1134,415 L1134,416 L1134,417 L1134,418 L1134,419 L1134,420 L1134,421 L1134,422 Z" fill="none" id="RE23" stroke="none" stroke-width="1" /><path d="M380,384 L381,384 L381,385 L382,385 L382,386 L383,386 L384,387 L385,387 L385,388 L386,388 L387,389 L388,389 L388,390 L389,390 L390,391 L391,391 L391,392 L392,392 L393,393 L394,393 L395,393 L396,393 L397,393 L398,394 L398,395 L398,396 L398,397 L399,398 L400,398 L401,398 L402,398 L403,398 L404,398 L405,398 L406,398 L407,398 Z" fill="none" id="RE9" stroke="none" stroke-width="1" /><path d="M1210,381 L1211,381 L1212,381 L1213,382 L1214,382 L1214,383 L1214,384 L1215,385 L1215,386 L1215,387 L1216,388 L1216,389 L1217,390 L1218,390 L1219,389 L1220,389 Z" fill="none" id="RE19" stroke="none" stroke-width="1" /><path d="M1276,360 L1277,360 L1278,360 L1278,361 L1279,361 L1279,362 L1280,362 L1280,363 L1281,363 L1282,364 L1283,365 L1284,366 L1285,367 L1285,368 L1286,368 L1286,369 L1287,369 L1287,370 L1288,370 L1289,371 L1290,371 L1290,372 L1291,372 L1291,373 L1292,373 L1292,374 L1293,374 L1293,375 L1294,375 L1295,376 L1296,377 L1296,378 L1297,378 L1297,379 L1298,379 L1298,380 L1299,380 L1299,381 L1300,381 L1300,382 L1301,382 L1302,383 L1303,383 L1303,384 L1304,384 L1304,385 L1305,385 L1305,386 L1306,386 L1306,387 L1307,387 L1308,388 L1309,389 L1309,390 L1310,390 L1310,391 L1311,391 L1311,392 L1312,392 L1312,393 L1313,393 L1313,394 L1314,394 L1315,395 L1316,395 L1316,396 L1317,396 L1317,397 L1318,397 L1318,398 L1319,398 L1319,399 L1320,399 L1320,400 L1321,400 L1322,401 L1323,402 L1323,403 L1323,404 L1322,404 L1322,405 L1321,405 L1321,406 L1320,407 L1320,408 L1319,409 L1319,410 L1318,411 L1318,412 L1317,413 L1317,414 L1318,415 L1318,416 L1318,417 L1317,417 L1317,418 L1316,419 L1316,420 L1315,421 L1315,422 L1314,423 L1314,424 L1313,425 L1313,426 L1312,427 L1312,428 L1311,429 L1311,430 L1311,431 L1311,432 L1310,432 L1310,433 L1309,434 L1309,435 L1308,436 L1308,437 L1307,437 L1307,438 L1306,438 L1306,439 L1305,439 L1304,439 L1303,440 L1302,440 L1301,441 L1300,441 L1299,442 L1298,442 L1298,443 L1297,443 L1296,444 L1295,444 L1295,445 L1294,445 L1293,446 L1292,446 L1291,446 L1290,447 L1289,447 L1288,447 L1287,448 L1288,449 L1289,449 L1290,449 L1291,449 L1292,450 L1293,450 L1294,450 L1295,451 L1295,452 L1294,453 L1293,453 L1293,454 L1292,454 L1292,455 L1291,456 L1291,457 L1290,457 L1290,458 L1289,458 L1289,459 L1288,460 L1288,461 L1287,461 L1287,462 L1286,463 L1286,464 L1285,465 L1284,466 L1283,466 L1283,467 L1282,468 L1282,469 L1281,470 L1280,471 L1280,472 L1279,472 L1279,473 L1278,473 L1278,474 L1277,475 L1277,476 L1276,476 L1276,477 L1275,477 L1275,478 L1274,479 L1274,480 L1273,480 L1273,481 L1272,482 L1272,483 L1271,484 L1271,485 L1270,485 L1269,485 L1268,485 L1267,485 L1266,485 L1265,485 L1264,485 L1263,485 L1262,485 L1261,486 L1260,487 L1260,488 L1259,489 L1258,489 L1257,489 L1256,489 L1255,489 L1254,489 L1253,489 L1252,489 L1251,488 L1250,489 L1249,489 L1248,489 L1247,488 L1246,488 L1245,487 L1244,486 L1244,485 L1243,485 L1243,484 L1242,484 L1241,483 L1240,482 L1239,481 L1238,480 L1238,479 L1237,479 L1237,478 L1236,478 L1235,477 L1234,477 L1233,476 L1232,475 L1231,475 L1231,474 L1230,474 L1229,473 L1228,473 L1228,472 L1227,472 L1226,471 L1225,472 L1224,472 L1223,472 L1222,472 L1221,471 L1220,471 L1219,471 L1219,470 L1218,470 L1218,469 L1217,469 L1217,468 L1216,468 L1215,467 L1214,467 L1213,467 L1213,466 L1212,466 L1212,465 L1211,465 L1210,464 L1209,464 L1209,463 L1208,463 L1207,462 L1206,461 L1206,460 L1206,459 L1206,458 L1206,457 L1205,457 L1204,456 L1203,456 L1202,455 L1202,454 L1202,453 L1202,452 L1201,451 L1201,450 L1201,449 L1201,448 L1201,447 L1201,446 L1201,445 L1201,444 L1202,443 L1202,442 L1202,441 L1201,441 L1201,440 L1200,440 L1200,439 L1199,438 L1199,437 L1199,436 L1199,435 L1200,434 L1200,433 L1200,432 L1200,431 L1200,430 L1201,429 L1201,428 L1202,428 L1202,427 L1203,427 L1204,426 L1205,425 L1206,424 L1207,424 L1208,423 L1209,423 L1209,422 L1210,422 L1210,421 L1211,421 L1211,420 L1212,420 L1212,419 L1213,419 L1214,418 L1215,418 L1215,417 L1216,417 L1217,416 L1218,416 L1219,415 L1220,415 L1220,414 L1221,414 L1222,413 L1223,413 L1224,412 L1225,411 L1226,410 L1227,410 L1228,410 L1228,409 L1229,409 L1229,408 L1230,408 Z" fill="none" id="RE18" stroke="none" stroke-width="1" /><path d="M678,358 L679,358 L680,358 L681,359 L681,360 L681,361 L680,362 L680,363 L680,364 L681,365 L681,366 L681,367 L681,368 L681,369 L681,370 L681,371 L681,372 Z" fill="none" id="RE42" stroke="none" stroke-width="1" /><path d="M862,353 L863,354 L864,354 L865,354 L866,355 L867,355 L868,355 L869,355 L870,355 L871,354 L872,354 L873,354 L874,355 L875,355 L875,356 L876,356 L876,357 L877,357 L878,357 L879,356 L880,356 L881,356 L882,356 L883,355 L884,355 L885,355 L886,356 L887,356 L888,357 L889,357 L889,358 L890,359 L890,360 L891,360 L892,360 L893,359 L894,359 L894,358 L895,358 L896,358 L896,359 L897,360 L897,361 L898,361 L898,362 L899,362 L899,363 L900,363 L900,364 L901,365 L901,366 L902,366 L902,367 L903,367 L903,368 L904,368 L904,369 L905,370 L905,371 L906,371 L907,372 L908,372 L909,372 L910,373 L910,374 L911,375 L911,376 L911,377 L912,378 L912,379 L913,379 L913,380 L914,380 L915,381 L916,381 L916,382 L917,382 L918,382 L919,383 L920,383 L920,384 L921,384 L922,384 L923,385 L924,385 L925,385 L926,385 L927,384 L928,384 L929,384 L930,383 L931,383 L932,383 L933,383 L934,384 L935,384 L935,385 L936,385 L937,385 L938,386 L939,386 L939,387 L940,388 L940,389 L941,389 L941,390 L942,391 L942,392 L943,392 L943,393 L944,393 L944,394 L944,395 L944,396 L943,397 L942,397 L941,398 L940,398 L939,399 L938,400 L937,400 L936,401 L935,401 L934,402 L933,402 L932,402 L932,401 L931,401 L930,400 L929,400 L928,400 L927,400 L926,400 L925,400 L924,400 L923,401 L922,401 L921,402 L920,402 L919,402 L919,401 L918,401 L917,400 L916,400 L915,400 L914,400 L913,401 L912,401 L911,401 L910,401 L909,402 L908,402 L907,402 L906,402 L905,402 L904,402 L903,402 L903,401 L902,401 L901,400 L900,400 L900,399 L899,399 L899,398 L898,398 L897,397 L896,397 L896,396 L895,396 L895,395 L894,395 L894,394 L893,393 L893,392 L892,392 L892,391 L891,391 L891,390 L890,390 L890,389 L889,388 L889,387 L888,387 L887,386 L886,386 L885,385 L884,385 L883,384 L882,384 L881,383 L880,383 L879,382 L879,381 L879,380 L879,379 L879,378 L879,377 L878,376 L878,375 L878,374 L877,374 L877,373 L876,373 L876,372 L875,372 L874,371 L873,371 L873,370 L872,370 L871,369 L870,369 L870,368 L869,368 L868,367 L867,367 L866,367 L865,367 L864,367 L863,367 L862,367 L861,367 L861,366 L860,365 L860,364 L859,363 L859,362 L859,361 L859,360 L859,359 L859,358 L859,357 L859,356 L859,355 L860,354 Z" fill="none" id="RE30" stroke="none" stroke-width="1" /><path d="M1040,344 L1041,344 L1042,344 L1043,344 L1044,345 L1045,345 L1045,346 L1046,346 L1047,346 L1048,347 L1049,347 L1050,347 L1051,347 L1052,347 L1053,348 L1054,348 L1055,348 L1056,348 L1057,348 L1058,348 L1058,347 L1059,347 L1060,346 L1061,346 L1062,346 L1063,346 L1064,346 L1065,347 L1066,347 L1067,347 L1068,347 L1069,347 L1070,347 L1071,347 L1072,348 L1073,348 L1074,348 L1075,348 L1076,348 L1077,348 L1078,348 L1079,348 L1080,349 L1081,349 L1082,349 L1083,349 L1084,349 L1085,349 L1086,349 L1087,349 L1088,350 L1089,350 L1090,350 L1091,351 L1091,352 L1091,353 L1091,354 L1091,355 L1090,356 L1090,357 L1090,358 L1091,359 L1091,360 L1092,361 L1092,362 L1092,363 L1092,364 L1093,365 L1093,366 L1093,367 L1093,368 L1093,369 L1094,369 L1095,369 L1096,370 L1097,370 L1097,371 L1098,371 L1099,372 L1100,372 L1101,373 L1102,373 L1103,373 L1104,373 L1105,374 L1106,374 L1106,375 L1107,375 L1107,376 L1107,377 L1107,378 L1106,378 L1106,379 L1105,380 L1105,381 L1104,381 L1104,382 L1103,382 L1103,383 L1102,384 L1102,385 L1101,385 L1101,386 L1100,387 L1100,388 L1099,388 L1099,389 L1098,389 L1098,390 L1097,390 L1097,391 L1096,392 L1095,393 L1094,393 L1094,394 L1093,394 L1093,395 L1092,395 L1092,396 L1091,396 L1090,397 L1089,397 L1089,398 L1088,398 L1088,399 L1087,399 L1087,400 L1086,400 L1085,401 L1084,401 L1084,402 L1083,402 L1083,403 L1082,403 L1082,404 L1081,404 L1080,405 L1079,405 L1079,406 L1078,407 L1078,408 L1078,409 L1078,410 L1078,411 L1077,411 L1076,412 L1075,412 L1074,413 L1073,413 L1073,414 L1072,414 L1071,415 L1070,416 L1070,417 L1070,418 L1070,419 L1070,420 L1069,420 L1068,420 L1067,421 L1066,421 L1066,422 L1065,422 L1064,422 L1063,423 L1062,423 L1061,424 L1060,424 L1059,424 L1059,425 L1059,426 L1059,427 L1058,428 L1058,429 L1057,430 L1056,430 L1056,429 L1055,429 L1054,429 L1053,429 L1052,429 L1051,429 L1050,430 L1049,430 L1048,430 L1047,430 L1046,430 L1045,430 L1045,429 L1044,429 L1044,428 L1043,428 L1043,427 L1042,427 L1041,426 L1040,425 L1039,424 L1038,424 L1037,424 L1036,424 L1035,424 L1034,424 L1033,425 L1032,425 L1031,425 L1030,425 L1029,424 L1028,424 L1027,424 L1027,423 L1027,422 L1027,421 L1027,420 L1026,420 L1026,419 L1025,419 L1025,418 L1024,417 L1024,416 L1023,416 L1023,415 L1022,414 L1022,413 L1021,412 L1020,411 L1019,410 L1019,409 L1019,408 L1018,407 L1019,406 L1019,405 L1019,404 L1020,403 Z" fill="none" id="RE24" stroke="none" stroke-width="1" /><path d="M387,331 L388,331 L389,331 L390,332 L391,332 L391,333 L392,333 L392,334 L393,334 L394,335 L395,335 L395,336 L396,336 L397,336 L398,336 L399,335 L400,335 L401,335 L402,335 L403,334 L404,334 L405,334 L406,333 L407,333 L408,334 L409,334 L410,334 L411,334 Z" fill="none" id="RE8" stroke="none" stroke-width="1" /><path d="M463,327 L464,327 L465,327 L465,328 L466,328 L466,329 L467,329 L467,330 L468,330 L468,331 L469,331 L470,332 L471,332 L471,333 L472,333 L473,334 L474,335 L474,336 L475,336 L476,337 L477,337 L478,337 L479,338 L480,338 L481,339 L482,339 L482,340 L482,341 L482,342 L482,343 L482,344 Z" fill="none" id="RE7" stroke="none" stroke-width="1" /><path d="M932,323 L933,323 L934,323 L935,323 L936,324 L937,324 L937,325 L938,325 L938,326 L939,326 L940,326 L941,327 L942,328 L943,329 L944,329 L945,329 L946,329 L947,329 L948,330 L949,330 L949,331 L950,331 L950,332 L951,332 L951,333 L952,333 L952,334 L953,334 L953,335 L954,335 L955,335 L956,335 L957,335 L958,335 L959,335 L960,336 L960,337 L960,338 L959,339 L958,339 L957,339 L956,340 L955,341 L955,342 L955,343 L954,343 L954,344 L953,344 L952,344 L951,344 L950,344 L949,344 L948,344 L947,344 L946,344 L945,344 L944,345 L943,345 L943,346 L942,346 L942,347 L941,348 L941,349 L941,350 L942,350 L943,351 L944,351 L945,351 L946,352 L947,352 L948,353 L949,353 L949,354 L950,355 L950,356 L950,357 L950,358 L950,359 L949,360 L948,361 L948,362 L947,362 L946,363 L945,363 L945,364 L944,364 L943,364 L942,364 L941,364 L940,364 L939,364 L938,363 L938,362 L937,362 L937,361 L936,361 L935,360 L934,360 L934,359 L933,359 L933,358 L932,358 L931,357 L930,357 L929,358 L928,358 L927,358 L926,359 L925,359 L924,360 L924,361 L924,362 L925,363 L925,364 L925,365 L925,366 L925,367 L925,368 L925,369 L925,370 L925,371 L925,372 L925,373 L925,374 L926,375 L926,376 L927,376 L928,377 L929,377 L930,377 L931,378 L932,378 L932,379 L932,380 L932,381 L931,381 L930,381 L929,381 L928,381 L927,381 L926,381 L925,381 L924,381 L923,381 L922,380 L922,379 L921,379 L920,379 L919,379 L918,379 L917,379 L916,378 L915,378 L915,377 L914,376 L914,375 L914,374 L913,373 L913,372 L913,371 L912,370 L911,369 L910,369 L909,369 L908,369 L907,368 L906,367 L905,366 L905,365 L904,365 L904,364 L903,363 L902,362 L901,361 L901,360 L900,360 L900,359 L899,358 L899,357 L898,357 L898,356 L897,356 L897,355 L896,355 L895,354 L894,355 L893,356 L892,356 L891,356 L890,355 L889,354 L888,353 L887,353 L886,353 L885,353 L884,353 L883,353 L882,353 L881,353 L880,353 L879,353 L878,353 L877,353 L876,353 L875,353 L875,352 L874,352 L874,351 L873,351 L872,350 L871,350 L870,350 L870,351 L869,352 L868,352 L867,352 L866,352 L865,351 L864,351 L863,351 L862,351 L861,351 L860,350 L859,350 L858,350 L858,349 L857,349 L857,348 L856,347 L856,346 L855,345 L855,344 L854,343 L854,342 L855,341 L855,340 L855,339 L855,338 L855,337 L855,336 L856,335 L856,334 L857,334 L858,334 L859,334 L860,334 L861,334 L862,334 L863,334 L864,334 L865,334 L866,334 L867,334 L868,334 L869,334 L870,334 L871,334 L872,334 L873,334 L874,334 L875,334 L876,334 L877,334 L878,334 L879,334 L880,334 L881,334 L882,334 L883,334 L884,334 L885,334 L886,334 L887,334 L888,334 L889,334 L890,334 L890,333 L889,332 L889,331 L890,331 L891,331 L892,331 L893,331 L894,330 L895,330 L896,330 L897,330 L898,330 L899,330 L900,329 L901,329 L902,329 L903,328 L904,327 L905,327 L906,327 L907,327 L908,327 L908,328 L909,329 L910,329 L911,329 L912,329 L913,329 L914,328 L915,328 L916,328 L916,327 L916,326 L917,325 L917,324 L918,324 L919,324 L919,325 L920,326 L921,326 L922,326 L923,326 L924,325 L925,325 L926,324 L927,324 L928,324 L929,324 L930,324 Z" fill="none" id="RE29" stroke="none" stroke-width="1" /><path d="M670,309 L671,309 L672,310 L672,311 L672,312 L672,313 L673,314 L673,315 L673,316 L673,317 L673,318 L674,319 L674,320 L675,321 L675,322 L675,323 L675,324 L675,325 L676,326 L676,327 L676,328 L676,329 L676,330 L675,331 L675,332 L675,333 L675,334 L675,335 L675,336 L675,337 L674,337 L674,338 L673,339 L673,340 L672,341 L672,342 L672,343 L672,344 L673,345 L673,346 L673,347 L672,348 L672,349 L672,350 L671,351 L671,352 L671,353 L671,354 L670,354 L670,355 L669,355 L668,355 L667,354 L666,354 L665,354 L664,354 L663,353 L662,353 L661,353 Z" fill="none" id="RE41" stroke="none" stroke-width="1" /><path d="M1142,307 L1143,307 L1144,307 L1145,307 L1146,308 L1146,309 L1146,310 L1147,311 L1147,312 L1147,313 L1147,314 L1147,315 L1148,316 L1148,317 L1148,318 L1148,319 L1148,320 L1149,321 L1149,322 L1150,323 L1151,324 L1152,324 L1152,325 L1152,326 L1152,327 L1151,327 L1151,328 L1150,328 L1150,329 L1150,330 L1151,331 L1151,332 L1152,333 L1152,334 L1153,335 L1153,336 L1154,337 L1154,338 L1155,338 L1156,338 L1157,337 L1158,337 L1159,337 L1160,338 L1161,338 L1162,339 L1163,340 L1163,341 L1164,341 L1164,342 L1164,343 L1163,344 L1162,344 L1161,344 L1160,344 L1159,344 L1158,345 L1157,345 L1157,346 L1156,347 L1156,348 L1155,348 L1155,349 L1154,349 L1154,350 L1153,350 L1153,351 L1152,351 L1152,352 L1151,352 L1151,353 L1150,353 L1150,354 L1149,354 L1149,355 L1148,355 L1148,356 L1147,357 L1146,358 L1145,359 L1145,360 L1144,360 L1144,361 L1143,361 L1143,362 L1142,362 L1142,363 L1141,363 L1141,364 L1140,364 L1139,365 L1138,366 L1138,367 L1138,368 L1138,369 L1138,370 L1139,371 L1139,372 L1140,373 L1140,374 L1141,374 L1142,375 L1143,375 L1143,376 L1144,376 L1145,377 L1146,378 L1146,379 L1147,379 L1147,380 L1148,381 L1148,382 L1149,382 L1149,383 L1150,383 L1150,384 L1151,385 L1151,386 L1152,386 L1152,387 L1153,387 L1153,388 L1154,388 L1154,389 L1155,390 L1155,391 L1156,391 L1156,392 L1156,393 L1156,394 L1155,394 L1154,394 L1153,394 L1152,393 L1151,393 L1150,394 L1149,394 L1149,395 L1148,395 L1148,396 L1147,396 L1146,397 L1145,397 L1145,398 L1144,398 L1143,399 L1142,399 L1142,400 L1141,400 L1141,401 L1140,401 L1139,402 L1138,402 L1138,403 L1137,403 L1136,404 L1135,404 L1134,404 L1133,404 L1132,404 L1131,403 L1130,403 L1129,403 L1128,403 L1127,403 L1127,402 L1126,401 L1126,400 L1126,399 L1125,398 L1124,398 L1123,398 L1122,398 L1121,398 L1120,398 L1119,398 L1118,398 L1117,398 L1116,398 L1115,398 L1114,398 L1113,398 L1112,398 L1111,397 L1110,397 L1109,397 L1108,396 L1107,396 L1106,395 L1105,395 L1104,395 L1103,394 L1102,394 L1101,393 L1100,392 L1101,391 L1101,390 L1102,389 L1102,388 L1103,388 L1103,387 L1104,387 L1104,386 L1105,385 L1105,384 L1106,383 L1106,382 L1107,382 L1107,381 L1108,381 L1108,380 L1108,379 L1109,378 L1110,377 L1111,377 L1111,376 L1112,376 L1112,375 L1113,374 L1113,373 L1114,373 Z" fill="none" id="RE22" stroke="none" stroke-width="1" /><path d="M1268,304 L1269,304 L1269,305 L1269,306 L1269,307 L1269,308 L1269,309 L1269,310 L1269,311 L1269,312 L1270,313 L1270,314 L1271,315 L1271,316 L1271,317 L1271,318 L1271,319 L1271,320 L1271,321 L1271,322 L1271,323 L1271,324 L1271,325 L1271,326 L1271,327 L1271,328 L1271,329 L1271,330 L1271,331 L1271,332 L1271,333 L1271,334 L1271,335 L1271,336 L1271,337 L1271,338 L1271,339 L1271,340 L1271,341 L1271,342 L1271,343 L1271,344 L1271,345 L1272,346 L1272,347 L1273,347 L1273,348 L1274,348 L1274,349 L1275,349 L1275,350 L1275,351 L1275,352 L1275,353 L1275,354 L1274,355 L1274,356 L1274,357 L1273,358 L1272,358 L1272,359 L1271,359 L1270,359 L1269,359 L1268,359 L1267,359 L1266,359 L1265,360 L1264,360 L1264,361 L1263,361 L1263,362 L1262,362 L1262,363 L1261,363 L1261,364 L1260,365 L1259,365 L1258,365 L1257,365 L1256,365 L1255,365 L1254,365 L1253,366 L1252,366 L1251,367 L1250,367 L1249,367 L1248,368 L1247,368 L1247,369 L1246,369 L1245,369 L1244,369 L1243,370 L1242,370 L1241,371 L1240,371 L1239,372 L1238,372 L1237,372 L1236,373 L1235,373 L1234,374 L1233,374 L1232,374 L1231,374 L1230,374 L1229,374 L1228,374 L1227,374 L1226,374 L1225,374 L1224,374 L1223,375 L1222,375 L1221,375 L1220,376 L1219,376 L1218,376 L1217,377 L1216,377 L1215,377 L1214,378 L1213,378 L1212,378 L1211,378 L1210,378 L1209,378 L1208,379 L1207,379 L1206,379 L1205,380 L1204,380 L1204,381 Z" fill="none" id="RE20" stroke="none" stroke-width="1" /><path d="M1152,303 L1153,303 L1154,303 L1155,303 L1156,303 L1157,303 L1158,304 L1159,304 L1160,305 L1161,305 L1162,306 L1163,306 L1164,307 L1165,307 L1166,307 L1167,308 L1168,308 L1168,309 L1169,309 L1170,310 L1171,310 L1172,310 L1173,311 L1174,311 L1175,311 L1176,311 L1177,311 L1178,311 L1179,311 L1180,311 L1181,311 L1182,311 L1183,311 L1184,311 L1185,311 L1186,311 L1187,311 L1188,311 L1189,312 L1190,312 L1191,312 L1192,312 L1193,312 L1194,312 L1195,313 L1196,313 L1197,313 L1198,313 L1199,313 L1200,313 L1201,314 L1202,314 L1203,315 L1204,315 L1205,315 L1206,315 L1207,316 L1208,316 L1209,316 L1210,315 L1211,315 L1212,314 L1213,314 L1214,313 L1215,313 L1216,312 L1217,312 L1218,311 L1219,311 L1220,310 L1221,310 L1222,309 L1223,309 L1224,310 L1225,310 L1226,310 L1227,310 L1228,310 L1229,310 L1230,310 L1231,310 L1232,310 L1233,310 L1234,310 L1235,311 L1236,311 L1237,311 L1238,310 L1239,310 L1240,310 L1241,311 L1242,311 L1243,311 L1244,312 L1245,312 L1246,312 L1247,312 L1248,312 L1249,313 L1250,313 L1251,313 L1252,313 L1253,314 L1254,315 L1254,316 L1255,316 Z" fill="none" id="RE21" stroke="none" stroke-width="1" /><path d="M1137,297 L1138,297 L1139,298 L1140,298 L1141,299 L1142,299 L1142,300 L1143,300 L1144,301 L1145,301 L1145,302 L1145,303 L1145,304 L1144,304 L1143,305 L1142,305 L1141,305 L1140,305 L1139,305 L1138,305 L1137,306 L1136,306 L1136,307 L1135,307 L1135,308 L1134,308 L1134,309 L1133,309 L1132,309 L1131,309 L1130,309 L1129,309 L1128,309 L1127,309 L1126,309 L1125,309 L1124,309 L1123,309 L1122,309 L1121,310 L1120,310 L1119,310 L1118,311 L1117,312 L1117,313 L1117,314 L1116,315 L1116,316 L1116,317 L1116,318 L1116,319 L1116,320 L1116,321 L1115,322 L1115,323 L1115,324 L1115,325 L1115,326 L1115,327 L1115,328 L1115,329 L1115,330 L1116,331 L1116,332 L1116,333 L1115,333 L1114,334 L1113,334 L1113,335 L1112,336 L1112,337 L1113,338 L1113,339 L1113,340 L1113,341 L1112,342 L1111,342 L1110,343 L1109,343 L1109,344 L1108,344 L1107,344 L1106,344 L1105,344 L1104,344 L1103,344 L1102,344 L1101,345 L1100,345 L1099,345 L1098,345 L1097,345 L1097,346 L1096,346 L1095,347 L1094,347 L1093,347 L1092,347 L1091,347 L1090,347 L1089,347 L1088,347 L1087,347 L1086,347 L1085,346 L1084,346 L1083,346 L1082,346 L1081,346 L1080,346 L1079,346 L1078,345 L1077,345 L1076,345 L1075,345 L1074,345 L1073,345 L1072,345 L1071,345 L1070,345 L1069,344 L1068,344 L1067,344 L1066,344 L1065,344 L1064,344 L1063,344 L1062,343 L1061,343 L1060,343 L1059,343 L1058,343 L1057,344 L1056,344 L1056,345 L1055,345 L1054,345 L1053,345 L1052,345 L1051,344 L1050,344 L1049,344 L1048,344 L1047,344 L1047,343 L1047,342 L1048,342 L1048,341 L1049,341 Z" fill="none" id="RE25" stroke="none" stroke-width="1" /><path d="M1003,291 Z" fill="none" id="RE26" stroke="none" stroke-width="1" /><path d="M575,270 L576,270 L576,271 L577,271 L578,272 L579,272 L580,273 L581,273 L581,274 L582,274 L583,274 L583,273 L584,272 L585,271 L586,271 L587,271 L588,271 L589,270 L590,271 L590,272 L590,273 L590,274 L590,275 L590,276 L590,277 L590,278 L590,279 L590,280 L590,281 L590,282 L590,283 L591,284 L592,285 L593,285 L594,285 L595,285 L596,286 L596,287 L596,288 L596,289 L596,290 L596,291 L596,292 L596,293 L596,294 L597,295 L597,296 L598,296 L599,296 L600,297 L601,297 L602,297 L603,298 L604,298 L605,298 L606,299 L607,299 L608,300 L609,300 L610,300 L611,301 L612,301 L613,302 L614,302 L615,302 L616,302 L616,303 L617,304 L617,305 L618,305 L618,306 L619,306 L619,307 L620,307 L620,308 L621,308 L621,309 L622,309 L622,310 L622,311 L621,312 L620,312 L619,312 L618,313 L617,313 L617,314 L616,314 L616,315 L615,315 L615,316 L614,317 L613,318 L612,318 L612,319 L611,319 L610,320 L609,320 L608,321 L607,321 L606,321 L605,320 L604,320 L603,320 L602,320 L601,320 L600,319 L599,319 L599,318 L598,318 L597,317 L596,317 L595,316 L594,316 L593,316 L592,317 L591,317 L590,317 L589,317 L588,317 L587,317 L586,317 L586,316 L585,316 L585,315 L584,314 L584,313 L583,313 L582,312 L581,311 L580,310 L579,311 L578,311 L577,311 L576,312 L575,312 L574,312 L573,313 L572,313 L571,313 L570,314 L569,314 L568,315 L567,315 L566,316 L565,316 L564,316 L563,316 L563,317 L562,317 L561,318 L560,318 L560,319 L559,319 L559,320 L558,320 L558,321 L557,321 L557,322 L556,322 L556,323 L555,323 L555,324 L554,325 L554,326 L554,327 L553,327 L553,328 L552,328 L552,329 L551,330 L551,331 L550,332 L549,333 L549,334 L549,335 L549,336 L549,337 L550,338 L550,339 L550,340 L550,341 L550,342 L549,342 L548,342 L547,342 L546,342 L545,342 L544,342 L543,342 L542,342 L541,341 L540,341 L539,341 L538,341 L537,340 L536,340 L535,340 L534,339 L533,339 L532,339 L531,339 L530,338 L529,338 L528,338 L527,338 L526,338 L525,337 L524,338 L523,338 L522,339 L521,339 L520,339 L519,339 L518,339 L517,339 L516,339 L515,338 L514,338 L513,337 L513,336 L512,335 L512,334 L512,333 L512,332 L512,331 L511,330 L511,329 L511,328 L510,327 L510,326 L510,325 L509,324 L509,323 L508,322 L508,321 L509,320 L509,319 L510,319 L510,318 L511,318 L511,317 L511,316 L511,315 L510,314 L510,313 L511,312 L511,311 L512,310 L512,309 L513,309 L514,308 L515,309 L516,309 L517,309 L518,309 L519,309 L520,309 L521,310 L522,310 L523,310 L524,311 L525,311 L526,311 L527,312 L528,312 L529,312 L530,313 L531,313 L532,313 L533,314 L534,314 L535,314 L536,314 L537,314 L538,314 L539,313 L540,313 L541,313 L542,312 L543,312 L544,312 L545,311 L546,311 L546,310 L546,309 L546,308 L547,307 L547,306 L548,306 L548,305 L549,305 L550,304 L551,304 L552,304 L553,304 L553,303 L554,302 L554,301 L555,301 L555,300 L556,300 L557,299 L558,299 L559,299 L560,299 L561,299 L561,298 L561,297 L560,296 L560,295 L559,294 L559,293 L558,292 L558,291 L557,290 L558,289 L558,288 L559,288 L559,287 L560,287 L561,286 L562,286 L563,285 L564,285 L564,284 L565,283 L565,282 L566,282 L566,281 L567,281 L567,280 L567,279 L568,278 L568,277 L569,277 L569,276 L570,275 L570,274 L571,273 L571,272 L572,271 L572,270 L573,270 Z" fill="none" id="RE6" stroke="none" stroke-width="1" /><path d="M878,257 L879,258 L880,258 L881,258 L882,259 L883,259 L884,259 L885,260 L886,260 L887,261 L888,261 L889,261 L890,262 L891,262 L892,262 L893,262 L894,263 L895,263 L896,263 L897,263 L898,264 L899,264 L900,264 L901,264 L902,265 L903,265 L904,265 L905,265 L906,266 L907,266 L908,266 L909,266 L910,267 L911,267 L912,267 L913,267 L914,267 L915,268 L916,268 L917,268 L918,269 L919,269 L920,269 L921,269 L922,269 L923,270 L924,270 L925,270 L926,270 L927,270 L928,271 L929,271 L929,272 L930,272 L931,272 L932,273 L932,274 Z" fill="none" id="RE28" stroke="none" stroke-width="1" /><path d="M686,258 L687,258 L688,258 L689,258 L690,259 L691,259 L692,260 L693,260 L694,260 L695,260 L696,261 L697,261 L698,262 L699,262 L700,262 L701,262 L702,262 L703,262 L704,261 L705,261 L706,261 L707,260 L708,260 L709,260 L710,259 L711,259 L712,259 L712,258 L713,258 Z" fill="none" id="RE40" stroke="none" stroke-width="1" /><path d="M756,245 L757,246 L758,246 L758,247 L759,247 L760,247 L761,247 L762,246 L763,246 L764,246 L765,246 L766,246 L767,246 L768,245 L769,245 L770,246 L771,246 L771,247 L772,247 L773,248 L774,248 L775,249 L776,249 L777,249 L778,248 L779,248 L779,247 L780,247 L781,248 L781,249 L782,249 L782,250 L783,251 L783,252 L784,252 L785,252 L786,252 L787,251 L788,251 L789,251 L789,252 L790,252 L791,252 L792,253 L793,253 L794,254 L795,254 L796,255 L797,255 L798,255 L799,256 L800,256 L801,257 L802,257 L803,258 L804,258 L805,258 L806,259 L807,259 L808,259 L809,260 L810,260 L811,261 L812,261 L812,262 L813,262 L814,262 L815,262 L816,261 L817,262 L818,262 L819,262 L820,263 L821,263 L821,264 L822,264 L822,265 L823,266 L823,267 L824,267 L824,268 L825,269 L825,270 Z" fill="none" id="RE33" stroke="none" stroke-width="1" /><path d="M688,232 L689,232 L690,232 L691,232 L692,232 L693,232 L694,232 L695,232 L696,232 L697,232 L698,232 L699,232 L700,233 L701,233 L702,233 L703,233 L704,233 L705,234 L706,235 L706,236 L707,237 L708,237 L709,237 L710,237 L711,237 L712,237 L713,237 L714,237 L715,238 L716,238 L717,238 L718,238 L719,238 L720,238 L721,238 L722,238 L723,238 L724,238 L725,238 L726,239 L727,239 L728,240 L729,240 L730,241 L731,241 L731,242 L731,243 L731,244 L731,245 L731,246 L732,247 L733,247 L734,247 L735,247 L736,247 L737,248 L738,248 L738,249 L739,250 L739,251 L739,252 L740,253 L740,254 L740,255 L741,256 L741,257 L741,258 L741,259 L742,260 L742,261 L743,261 L743,262 L743,263 L743,264 L743,265 L743,266 L743,267 L742,267 L741,267 L740,267 L739,266 L738,265 L738,264 L738,263 L738,262 L737,261 L736,261 L736,260 L735,259 L735,258 L735,257 L735,256 L735,255 L735,254 L735,253 L735,252 L734,252 L733,251 L732,251 L731,251 L730,252 L729,252 L728,252 L727,253 L726,253 L725,254 L724,254 L723,254 L722,254 L721,254 L720,254 L719,254 L718,254 L717,254 L716,254 L715,255 L714,255 L713,255 L712,256 L711,256 L710,256 L709,257 L708,257 L707,257 L706,258 L705,258 L704,259 L703,259 L702,260 L701,260 L700,260 L699,260 L698,259 L697,259 L696,258 L695,258 L694,257 L693,257 L692,256 L691,256 L690,256 L689,256 L688,255 L687,255 L686,255 L685,255 L684,255 L683,256 L682,256 L681,256 L680,256 L680,257 L680,258 L681,259 L681,260 L681,261 L681,262 L681,263 L682,264 L682,265 L682,266 L681,267 L681,268 L680,269 L680,270 L680,271 L680,272 L679,272 L679,273 L678,274 L678,275 L677,275 L677,276 L676,276 L676,277 L675,278 L674,279 L673,279 L672,279 L671,279 L670,279 L669,280 L668,281 L668,282 L668,283 L668,284 L667,285 L667,286 L667,287 L666,287 L665,287 L664,287 L663,287 L662,287 L661,287 L660,287 L659,287 L658,287 L657,286 L656,286 L655,286 L654,286 L653,286 L652,286 L651,286 L650,286 L649,286 L648,287 L647,287 L647,288 L646,289 L646,290 L646,291 L646,292 L645,293 L644,294 L643,294 L643,295 L642,295 L641,296 L640,297 L639,298 L638,298 L637,299 L636,300 L635,300 L634,300 L633,301 L632,301 L631,301 L630,301 L629,300 L628,300 L628,299 L627,299 L626,298 L625,298 L625,297 L624,297 L623,296 L622,296 L622,295 L621,295 L620,294 L619,294 L619,293 L618,293 L617,292 L616,292 L616,291 L615,291 L614,290 L613,290 L612,290 L611,289 L610,289 L610,288 L609,287 L609,286 L609,285 L609,284 L609,283 L609,282 L609,281 L609,280 L609,279 L609,278 L608,277 L608,276 L607,275 L606,275 L605,275 L604,274 L604,273 L604,272 L604,271 L604,270 L604,269 L604,268 L604,267 L604,266 L604,265 L604,264 L604,263 L604,262 L604,261 L605,260 L605,259 L606,259 L607,258 L608,258 L609,258 L609,257 L610,256 L610,255 L611,254 L611,253 L612,253 L613,252 L614,252 L615,252 L616,252 L617,251 L618,251 L619,251 L620,251 L621,251 L622,251 L623,251 L624,250 L625,250 L626,250 L627,250 L628,250 L629,250 L630,250 L631,249 L632,249 L633,249 L634,249 L635,249 L636,249 L637,248 L638,248 L639,248 L640,248 L641,248 L642,248 L643,248 L644,247 L645,247 L646,247 L647,247 L648,247 L649,247 L650,246 L651,246 L652,246 L653,246 L654,246 L655,246 L656,246 L657,245 L658,245 L659,244 L660,244 L660,243 L661,243 L662,242 L663,243 L664,244 L664,245 L665,246 L666,246 L667,246 L668,246 L668,245 L669,245 L670,244 L671,244 L671,243 L672,243 L673,242 L674,242 L675,241 L676,241 L676,240 L677,240 L678,239 L679,239 L679,238 L680,238 L681,237 L682,237 L682,236 L683,236 L684,235 L685,235 L685,234 L686,233 Z" fill="none" id="RE39" stroke="none" stroke-width="1" /><path d="M1004,229 L1005,229 L1006,229 L1007,229 L1008,229 L1009,229 L1010,229 L1011,229 L1012,230 L1013,230 L1014,231 L1015,232 L1015,233 L1016,233 L1017,233 L1018,234 L1019,234 L1020,234 L1021,233 L1022,234 L1022,235 L1022,236 L1022,237 L1022,238 L1022,239 L1022,240 L1021,240 L1020,241 L1019,241 L1018,241 L1017,241 L1016,241 L1016,240 L1015,240 L1014,239 L1013,239 L1012,239 L1011,240 L1010,240 L1009,241 L1008,241 L1008,242 L1007,242 L1007,243 L1006,243 L1006,244 L1005,245 L1005,246 L1004,247 L1004,248 L1004,249 L1005,250 L1006,251 L1007,251 L1008,251 Z" fill="none" id="RE27" stroke="none" stroke-width="1" /><path d="M522,221 L523,221 L524,221 L525,221 L526,221 L527,222 L528,223 L528,224 L528,225 L529,226 L529,227 L530,228 L530,229 L531,230 L531,231 L532,232 L532,233 L533,233 L534,233 L535,234 L536,234 L536,235 L537,235 L537,236 L537,237 L537,238 L537,239 L538,240 L538,241 L538,242 L539,243 L540,243 L541,244 L542,245 L543,246 L543,247 L543,248 L544,249 L544,250 L544,251 L544,252 L545,253 L545,254 L545,255 L545,256 L546,257 L546,258 L547,259 L548,260 L549,260 L550,261 L550,262 L550,263 L550,264 L550,265 L550,266 L550,267 L550,268 L551,269 L552,270 L553,271 L553,272 L554,273 L554,274 L555,274 L555,275 L556,275 L556,276 L557,276 L557,277 L558,278 L558,279 L559,279 L559,280 L560,281 L560,282 L561,282 L561,283 L561,284 L560,284 L559,284 L558,285 L557,285 L557,286 L556,286 L556,287 L555,287 L555,288 L554,288 L554,289 L554,290 L555,291 L555,292 L555,293 L555,294 L555,295 L555,296 L554,297 L553,298 L553,299 L552,300 L552,301 L551,301 L550,302 L549,302 L548,302 L547,302 L546,303 L545,304 L545,305 L544,306 L544,307 L543,308 L543,309 L542,309 L541,310 L540,310 L539,310 L538,311 L537,311 L536,311 L535,311 L534,311 L533,311 L532,310 L531,310 L530,310 L529,309 L528,309 L527,309 L526,308 L525,308 L524,308 L523,307 L522,307 L521,307 L520,306 L519,306 L518,306 L517,306 L516,306 L515,306 L514,306 L513,306 L512,306 L511,305 L510,306 L509,307 L509,308 L509,309 L508,310 L508,311 L508,312 L507,313 L507,314 L507,315 L507,316 L507,317 L507,318 L507,319 L506,319 L506,320 L505,320 L505,321 L505,322 L505,323 L506,324 L506,325 L506,326 L507,327 L507,328 L508,329 L508,330 L508,331 L509,332 L509,333 L509,334 L509,335 L509,336 L509,337 L509,338 L508,338 L507,338 L506,338 L505,338 L504,338 L503,338 L502,337 L501,337 L500,337 L499,337 L498,338 L497,338 L496,338 L495,338 L494,339 L493,339 L492,339 L491,339 L490,339 L489,339 L488,339 L487,339 L486,339 L486,338 L485,337 L484,336 L483,336 L482,335 L481,335 L480,335 L479,335 L478,334 L477,334 L476,333 L475,333 L475,332 L474,332 L474,331 L473,331 L473,330 L472,330 L472,329 L471,329 L471,328 L470,328 L470,327 L469,327 L468,326 L467,325 L467,324 L466,323 L467,322 L467,321 L468,321 L468,320 L468,319 L468,318 L468,317 L468,316 L468,315 L468,314 L468,313 L469,312 L469,311 L469,310 L469,309 L469,308 L469,307 L469,306 L469,305 L469,304 L469,303 L468,302 L468,301 L467,300 L466,299 L466,298 L466,297 L466,296 L466,295 L466,294 L467,293 L467,292 L467,291 L467,290 L467,289 L467,288 L468,287 L468,286 L469,285 L470,284 L471,285 L472,285 L473,285 L474,286 L475,286 L476,286 L477,287 L478,287 L479,287 L480,287 L480,286 L480,285 L479,285 L479,284 L478,284 L478,283 L477,283 L477,282 L476,282 L476,281 L475,281 L475,280 L474,280 L474,279 L473,278 L473,277 L472,277 L472,276 L471,276 L470,275 L469,274 L469,273 L468,273 L468,272 L467,272 L467,271 L466,270 L466,269 L466,268 L466,267 L465,266 L465,265 L465,264 L465,263 L465,262 L464,261 L463,260 L462,260 L461,260 L460,259 L459,259 L458,259 L457,258 L457,257 L456,256 L456,255 L455,254 L455,253 L455,252 L454,251 L454,250 L454,249 L454,248 L455,248 L456,247 L457,247 L458,246 L459,246 L458,245 L457,245 L457,244 L456,243 L456,242 L455,241 L455,240 L456,239 L456,238 L457,238 L458,237 L459,237 L460,237 L461,236 L462,236 L463,236 L464,235 L465,235 L466,235 L467,234 L468,234 L469,234 L470,234 L471,234 L472,234 L473,235 L474,235 L475,236 L476,236 L476,237 L477,237 L477,238 L478,238 L478,239 L479,240 L480,240 L481,240 L482,240 L483,239 L484,239 L485,239 L486,240 L487,240 L488,241 L489,241 L490,242 L491,242 L491,243 L492,243 L493,243 L494,243 L495,243 L496,243 L496,242 L497,242 L498,241 L499,241 L499,240 L500,240 L501,239 L502,239 L502,238 L503,237 L503,236 L504,235 L504,234 L505,234 L505,233 L506,232 L507,231 L508,231 L509,231 L510,231 L510,230 L511,229 L511,228 L511,227 L512,226 L512,225 L513,225 L513,224 L514,224 L515,223 L516,223 L517,222 L518,222 L519,222 L520,222 Z" fill="none" id="RE5" stroke="none" stroke-width="1" /><path d="M909,192 L910,192 L911,193 L912,194 L913,194 L914,194 L915,194 L916,194 L917,194 L918,193 L919,193 L920,193 L921,193 L922,192 L923,192 L924,192 L925,192 L926,193 L927,193 L928,194 L929,194 L930,195 L931,195 L932,195 L933,196 L934,196 L934,197 L935,197 L936,198 L937,198 L937,199 L938,199 L939,200 L940,200 L941,201 L942,201 L943,202 L944,202 L945,202 L946,203 L947,203 L947,204 L948,204 L948,205 L948,206 L948,207 L948,208 L948,209 L948,210 L949,211 L950,212 L951,212 L951,213 L952,213 L952,214 L952,215 L952,216 L952,217 L952,218 L952,219 L952,220 L952,221 L951,222 L950,222 L949,223 L948,223 L947,223 L946,224 L945,224 L945,225 L944,225 L943,225 L942,225 L941,226 L940,226 L939,227 L938,227 L937,227 L936,228 L935,228 L934,229 L933,229 L932,229 L932,230 L932,231 L932,232 L933,233 L933,234 L934,235 L934,236 L934,237 L934,238 L934,239 L934,240 L934,241 L935,242 L935,243 L935,244 L935,245 L935,246 L935,247 L935,248 L935,249 L936,250 L936,251 L936,252 L936,253 L936,254 L936,255 L936,256 L936,257 L936,258 L936,259 L936,260 L936,261 L935,261 L934,261 L933,261 L933,260 L932,260 L932,259 L931,259 L930,258 L929,258 L928,257 L927,258 L926,258 L925,258 L924,258 L923,258 L922,258 L921,258 L920,258 L919,258 L918,257 L917,257 L916,257 L915,256 L914,256 L913,256 L912,256 L911,255 L910,255 L909,255 L908,255 L907,254 L906,254 L905,254 L904,254 L903,253 L902,253 L901,253 L900,253 L899,253 L898,253 L897,252 L896,252 L895,251 L894,251 L893,251 L892,250 L891,250 L890,250 L889,249 L888,249 L887,249 L886,248 L885,248 L884,248 L883,247 L882,247 L881,247 L880,246 L879,246 L878,246 L877,246 L876,246 L875,246 L874,246 L873,246 L872,246 L871,246 L870,246 L869,246 L868,246 L867,246 L866,246 L865,246 L864,246 L863,246 L862,247 L861,248 L861,249 L861,250 L861,251 L861,252 L860,252 L859,252 L859,251 L858,250 L858,249 L858,248 L858,247 L857,246 L857,245 L857,244 L856,243 L856,242 L856,241 L856,240 L855,239 L855,238 L855,237 L855,236 L856,236 L856,235 L857,234 L857,233 L857,232 L857,231 L858,230 L858,229 L858,228 L858,227 L857,226 L857,225 L856,225 L856,224 L855,224 L855,223 L854,223 L854,222 L853,222 L853,221 L852,221 L852,220 L851,219 L851,218 L851,217 L851,216 L851,215 L851,214 L851,213 L851,212 L851,211 L851,210 L852,209 L853,208 L854,208 L855,208 L856,208 L857,207 L858,207 L859,207 L860,207 L860,206 L861,206 L861,205 L862,205 L862,204 L863,203 L863,202 L864,202 L864,201 L865,201 L866,200 L867,200 L867,199 L868,199 L868,198 L869,198 L869,197 L870,197 L871,197 L872,197 L872,198 L873,199 L874,199 L875,199 L876,199 L877,198 L878,198 L879,198 L880,198 L881,198 L882,198 L883,197 L884,197 L885,197 L886,197 L887,197 L888,196 L889,196 L890,196 L891,196 L892,196 L893,195 L894,195 L895,195 L896,195 L897,195 L898,194 L899,194 L900,194 L901,194 L902,194 L903,193 L904,193 L905,193 L906,193 L907,193 Z" fill="none" id="RE32" stroke="none" stroke-width="1" /><path d="M775,186 L776,186 L777,186 L778,186 L779,186 L780,186 L781,186 L782,187 L783,187 L784,188 L785,188 L786,188 L787,189 L788,189 L789,189 L790,190 L791,190 L792,190 L793,191 L794,191 L795,191 L796,191 L797,191 L798,191 L799,191 L800,191 L801,192 L802,192 L803,192 L804,192 L805,192 L806,192 L807,192 L808,192 L809,192 L810,192 L811,193 L812,193 L813,193 L814,193 L815,193 L816,193 L817,194 L818,194 L818,195 L818,196 L818,197 L818,198 L818,199 L817,200 L817,201 L817,202 L816,203 L816,204 L816,205 L816,206 L817,206 L817,207 L818,208 L818,209 L819,209 L819,210 L819,211 L819,212 L819,213 L819,214 L819,215 L819,216 L819,217 L818,218 L819,219 L819,220 L819,221 L818,222 L818,223 L818,224 L818,225 L819,226 L819,227 L820,228 L820,229 L821,229 L821,230 L822,231 L822,232 L823,232 L823,233 L824,233 L824,234 L825,234 L825,235 L825,236 L826,237 L826,238 L827,238 L827,239 L827,240 L827,241 L828,242 L828,243 L828,244 L829,245 L829,246 L830,247 L830,248 L830,249 L831,250 L831,251 L832,252 L832,253 L832,254 L833,255 L833,256 L834,256 L835,256 L836,256 L837,255 L838,255 L839,254 L840,254 L841,254 L842,253 L843,253 L844,253 L845,252 L846,252 L847,253 L848,253 L849,253 L850,253 L851,253 L852,253 L853,254 L854,254 L855,254 L856,254 L857,255 L858,255 L859,256 L860,257 L860,258 L861,258 L861,259 L862,260 L862,261 L862,262 L863,263 L863,264 L864,265 L864,266 L865,266 L865,267 L865,268 L865,269 L865,270 L865,271 L865,272 L865,273 L865,274 L866,275 L866,276 L866,277 L866,278 L866,279 L866,280 Z" fill="none" id="RE34" stroke="none" stroke-width="1" /><path d="M723,185 L724,185 L725,185 L726,185 L727,185 L728,185 L729,185 L730,185 L731,185 L732,185 L733,185 L734,185 L735,185 L736,185 L737,185 L738,185 L739,186 L740,186 L741,186 L742,186 L743,186 L744,186 L745,186 L746,186 L747,186 L748,186 L749,186 L750,186 L751,186 L752,186 L753,186 L754,186 L755,186 L756,186 L757,187 L758,187 L759,188 L760,188 L761,189 L762,189 L763,190 L764,190 L765,190 L766,190 L767,190 L768,189 L769,189 L770,190 L770,191 L770,192 L770,193 L770,194 L770,195 L770,196 L770,197 L770,198 L769,199 L769,200 L769,201 L769,202 L769,203 L769,204 L769,205 L769,206 L769,207 L768,208 L768,209 L767,209 L766,210 L765,210 L765,211 L766,212 L766,213 L767,214 L767,215 L767,216 L767,217 L766,218 L766,219 L766,220 L766,221 L765,222 L765,223 L765,224 L765,225 L764,226 L764,227 L764,228 L764,229 L764,230 L763,231 L762,231 L761,231 L760,231 L759,231 L758,231 L757,231 L756,232 L755,232 L755,233 L754,234 L753,234 L752,235 L751,235 L750,235 L749,234 L748,234 L747,234 L746,234 L745,234 L744,233 L743,233 L742,233 L741,232 L740,232 L739,232 L738,231 L737,231 L736,231 L735,230 L734,230 L733,229 L732,229 L731,229 L730,228 L729,228 L728,228 L727,228 L726,228 L725,228 L724,228 L723,228 L722,227 L721,227 L720,227 L719,227 L718,227 L717,227 L716,227 L715,227 L715,226 L714,225 L714,224 L713,223 L712,222 L711,222 L710,222 L709,222 L708,222 L707,222 L706,222 L705,222 L704,222 L703,221 L703,220 L703,219 L704,218 L705,217 L705,216 L705,215 L705,214 L705,213 L705,212 L705,211 L704,210 L704,209 L704,208 L704,207 L704,206 L703,205 L703,204 L703,203 L703,202 L703,201 L702,200 L702,199 L702,198 L702,197 L702,196 L702,195 L703,194 L704,193 L705,192 L706,192 L707,192 L707,191 L708,191 L709,190 L710,190 L711,189 L712,189 L712,188 L713,188 L714,187 L715,187 L716,187 L717,187 L718,186 L719,186 L720,186 L721,186 Z" fill="none" id="RE35" stroke="none" stroke-width="1" /><path d="M685,175 L686,175 L687,175 L688,175 L689,175 L690,175 L691,175 L692,175 L693,175 L694,175 L695,175 L696,175 L697,175 L698,175 L699,175 L700,175 L701,175 L702,176 L703,176 L704,176 L705,177 L706,177 L707,178 L708,178 L709,179 L710,179 L711,179 L712,180 L713,180 L714,181 L715,181 L716,182 L716,183 L716,184 L715,185 L714,185 L713,186 L712,186 L711,186 L710,186 L710,187 L709,187 L708,188 L707,188 L706,189 L705,190 L704,190 L703,191 L702,191 L702,192 L701,192 L700,193 L699,193 L699,194 L698,195 L699,196 L699,197 L699,198 L699,199 L699,200 L700,201 L700,202 L700,203 L700,204 L700,205 L701,206 L701,207 L701,208 L701,209 L701,210 L702,211 L702,212 L702,213 L702,214 L702,215 L702,216 L701,216 L700,216 L700,217 L700,218 L700,219 L700,220 L700,221 L699,221 L698,221 L697,221 L696,221 L695,221 L694,221 L693,221 L692,221 L691,221 L690,221 L689,221 L688,221 L687,221 L686,221 L685,221 L684,221 L683,221 L682,221 L681,221 L680,221 L679,222 L678,223 L678,224 L677,224 L677,225 L676,226 L676,227 L675,227 L674,227 L673,227 L672,226 L671,226 L670,226 L669,227 L668,227 L668,228 L667,228 L666,228 L665,229 L664,229 L663,230 L662,230 L662,231 L661,231 L660,231 L659,232 L658,232 L657,233 L656,233 L655,234 L654,234 L653,234 L652,235 L651,235 L650,236 L649,236 L648,236 L647,236 L646,236 L645,236 L644,236 L643,236 L642,236 L641,237 L640,237 L639,237 L638,237 L637,237 L636,237 L635,237 L634,238 L633,238 L632,238 L631,238 L630,238 L629,239 L628,239 L627,239 L626,239 L625,240 L624,240 L623,240 L622,240 L622,239 L622,238 L622,237 L623,237 L624,236 L625,236 L626,236 L627,235 L628,235 L629,234 L630,234 L631,233 Z" fill="none" id="RE36" stroke="none" stroke-width="1" /><path d="M505,168 L506,169 L506,170 L507,170 L507,171 L508,171 L508,172 L508,173 L509,174 L509,175 L510,176 L510,177 L511,177 L512,177 L513,177 L514,178 L514,179 L514,180 L514,181 L514,182 L514,183 L515,184 L515,185 L516,185 L517,186 L518,186 L519,187 L519,188 L519,189 L519,190 L519,191 L520,192 L520,193 L520,194 L521,195 L522,195 L523,196 L524,196 L525,196 L526,196 L527,196 L528,197 L529,197 L530,197 L531,198 L532,199 L532,200 L533,200 L533,201 L534,201 L534,202 L535,202 L535,203 L536,203 L537,204 L537,205 L537,206 L537,207 L537,208 L538,208 L539,209 L540,209 L540,210 L541,210 L542,211 L543,212 L543,213 L544,213 L545,213 L546,213 L547,213 L548,213 L549,214 L550,214 L550,215 L551,216 L552,217 L553,217 L553,218 L554,219 L554,220 L555,220 L555,221 L556,221 L556,222 L557,223 L557,224 L558,224 L558,225 L559,225 L560,226 L561,227 L561,228 L562,228 L562,229 L563,229 L563,230 L564,230 L564,231 L565,231 L565,232 L566,232 L566,233 L566,234 L566,235 L566,236 L566,237 L566,238 L566,239 L566,240 L566,241 L566,242 L566,243 L566,244 L566,245 L566,246 L566,247 L566,248 L566,249 L566,250 L566,251 L566,252 L566,253 L566,254 L566,255 L567,256 L567,257 L567,258 L567,259 L567,260 L566,261 L566,262 L566,263 L566,264 L567,265 L568,265 L569,266 L569,267 L569,268 L569,269 L569,270 L568,271 L568,272 L567,273 L567,274 L566,275 L566,276 L565,277 L565,278 L564,278 L563,278 L562,278 L561,278 L560,277 L560,276 L559,275 L559,274 L558,274 L558,273 L557,273 L557,272 L556,271 L556,270 L555,270 L555,269 L554,269 L554,268 L553,267 L553,266 L553,265 L553,264 L553,263 L553,262 L553,261 L553,260 L553,259 L552,259 L551,258 L550,258 L550,257 L549,257 L549,256 L548,255 L548,254 L548,253 L548,252 L547,251 L547,250 L547,249 L546,248 L546,247 L546,246 L546,245 L545,245 L545,244 L544,244 L544,243 L543,243 L543,242 L542,242 L542,241 L541,241 L541,240 L540,239 L540,238 L540,237 L540,236 L539,235 L539,234 L539,233 L538,232 L537,231 L536,231 L535,231 L534,230 L534,229 L533,229 L533,228 L532,227 L532,226 L531,225 L531,224 L531,223 L530,222 L530,221 L529,220 L529,219 L528,218 L527,218 L526,218 L525,218 L524,219 L523,219 L522,219 L521,219 L520,219 L519,219 L518,219 L517,219 L516,220 L515,220 L514,221 L513,221 L513,222 L512,222 L511,223 L510,223 L510,224 L509,225 L509,226 L508,227 L508,228 L508,229 L507,229 L506,229 L505,229 L504,229 L504,230 L503,230 L503,231 L502,232 L502,233 L501,234 L501,235 L500,236 L499,237 L498,238 L497,238 L497,239 L496,239 L495,240 L494,240 L493,240 L492,240 L491,239 L490,239 L489,238 L488,238 L487,237 L486,237 L485,236 L484,236 L483,237 L482,237 L481,237 L480,237 L480,236 L479,235 L479,234 L478,234 L477,233 L476,233 L475,233 L474,232 L473,232 L472,232 L471,232 L470,231 L469,231 L468,232 L467,232 L466,232 L465,232 L464,232 L463,233 L462,233 L461,234 L460,234 L459,234 L458,235 L457,235 L456,236 L455,236 L454,237 L453,238 L452,238 L451,238 L450,238 L449,238 L448,238 L447,238 L446,238 L445,238 L445,237 L444,236 L445,235 Z" fill="none" id="RE4" stroke="none" stroke-width="1" /><path d="M608,149 L609,149 L610,150 L611,150 L612,151 L613,152 L614,153 L615,153 L615,154 L616,154 L617,155 L618,155 L618,156 L619,156 L619,157 L620,157 L620,158 L621,158 L622,159 Z" fill="none" id="RE38" stroke="none" stroke-width="1" /><path d="M539,131 L539,132 L539,133 L540,134 L540,135 L540,136 L541,137 L541,138 L541,139 L541,140 L542,141 L542,142 L542,143 L542,144 L542,145 L542,146 L542,147 L543,148 L543,149 L544,150 L544,151 L545,152 L545,153 L546,154 L546,155 L547,155 L547,156 L547,157 L548,158 L548,159 L549,159 L549,160 L550,161 L550,162 L550,163 L551,164 L551,165 L552,165 L553,166 L554,166 L555,167 L556,168 L556,169 L557,169 L558,170 L559,170 L560,171 L561,172 L562,173 L563,173 L563,174 L564,174 L565,175 L566,175 L567,175 L568,174 L569,174 L570,174 L571,174 L571,173 L572,173 L573,172 L574,172 L575,172 L576,172 L577,171 L578,171 L579,171 L580,171 L581,171 L581,170 L582,170 L582,169 L583,169 L583,168 L584,168 L585,167 L586,168 L587,168 L587,169 L588,170 L589,171 L590,172 L590,173 L591,174 L592,175 L592,176 L592,177 L592,178 L592,179 L592,180 L592,181 L591,182 L591,183 L591,184 L591,185 L591,186 L591,187 L590,188 L590,189 L590,190 L590,191 L590,192 L590,193 L589,194 L589,195 L589,196 L589,197 L588,197 L587,197 L586,197 L585,197 L584,197 L583,197 L582,197 L581,197 L580,197 L579,198 L578,199 L578,200 L578,201 L578,202 L578,203 L578,204 L579,205 L579,206 L579,207 L579,208 L579,209 L579,210 L579,211 L579,212 L579,213 L578,214 L578,215 L578,216 L577,216 L577,217 L576,217 L575,218 L574,218 L574,219 L573,220 L573,221 L572,221 L572,222 L571,223 L571,224 L570,225 L570,226 L570,227 L569,227 L569,228 L568,229 L568,230 L567,230 L566,230 L566,229 L565,229 L565,228 L564,228 L564,227 L563,227 L563,226 L562,226 L562,225 L561,225 L561,224 L560,223 L560,222 L559,222 L559,221 L558,221 L558,220 L557,220 L557,219 L556,219 L556,218 L555,218 L555,217 L554,216 L553,215 L552,214 L552,213 L551,213 L551,212 L550,211 L549,210 L548,210 L547,210 L546,210 L545,210 L544,210 L544,209 L543,208 L543,207 L543,206 L543,205 L542,205 L541,204 L540,203 L539,202 L538,202 L538,201 L537,201 L537,200 L536,200 L536,199 L535,199 L535,198 L534,198 L534,197 L533,197 L533,196 L532,196 L531,195 L530,195 L529,194 L528,194 L527,194 L526,194 L525,193 L524,193 L523,193 L522,192 L522,191 L522,190 L522,189 L522,188 L522,187 L522,186 L522,185 L521,185 L520,184 L519,184 L518,183 L517,182 L517,181 L517,180 L517,179 L517,178 L517,177 L516,177 L516,176 L515,176 L514,175 L513,175 L512,174 L512,173 L511,173 L511,172 L510,172 L510,171 L509,170 L509,169 L508,168 L508,167 L508,166 L507,165 L507,164 L506,163 L506,162 L506,161 L506,160 L507,159 L507,158 L507,157 L507,156 L507,155 L507,154 L507,153 L507,152 L506,151 L506,150 L505,149 L505,148 L504,147 L504,146 L505,145 L505,144 L506,144 L506,143 L507,143 L507,142 L508,142 L509,141 L510,141 L511,141 L512,140 L513,140 L514,140 L515,140 L516,139 L517,139 L518,139 L519,139 L520,139 L521,139 L522,139 L523,139 L524,139 L525,139 L526,139 L527,139 L528,139 L528,138 L529,138 L529,137 L530,137 L530,136 L531,136 L531,135 L532,134 L532,133 L533,133 L534,132 L535,132 L536,132 L536,131 L537,131 Z" fill="none" id="RE3" stroke="none" stroke-width="1" /><path d="M557,93 L558,93 L558,94 L558,95 L558,96 L558,97 L557,98 L557,99 L556,100 L556,101 L556,102 L556,103 L557,104 L557,105 L558,105 L558,106 L558,107 L559,108 L559,109 L560,109 L561,109 L562,109 L563,108 L564,109 L565,109 L565,110 L566,110 L567,111 L568,111 L569,111 L570,111 L571,112 L572,112 L573,113 L574,113 L574,114 L575,115 L575,116 L576,116 L577,116 L578,116 L579,116 L580,116 L581,117 L582,117 L582,118 L583,119 L583,120 L584,121 L584,122 L585,123 L585,124 L586,124 L586,125 L586,126 L587,127 L587,128 L588,129 L589,129 L590,129 L591,129 L592,129 L593,130 L593,131 L593,132 L594,133 L594,134 L595,135 L595,136 L595,137 L595,138 L595,139 L595,140 L596,141 L596,142 L596,143 Z" fill="none" id="RE37" stroke="none" stroke-width="1" /><path d="M394,81 L395,81 L396,81 L397,81 L398,81 L399,81 L400,81 L401,81 L402,81 L403,82 L404,83 L404,84 L405,85 L406,86 L406,87 L407,88 L407,89 L408,89 L408,90 L409,91 L409,92 L410,93 L410,94 L411,95 L411,96 L411,97 L412,98 L412,99 L412,100 L413,101 L413,102 L414,102 L414,103 L415,104 L415,105 L416,106 L416,107 L417,108 L418,109 L419,110 L419,111 L420,111 L420,112 L421,112 L422,112 L423,112 L424,113 L425,113 L426,113 L427,113 L428,113 L429,114 L430,114 L431,114 L432,114 L433,114 L434,114 L435,114 L436,114 L437,114 L438,114 L439,114 L440,113 L441,113 L442,113 L443,113 L444,113 L445,113 L446,112 L447,112 L448,112 L449,112 L450,112 L451,112 L452,111 L453,111 L454,111 L455,111 L456,111 L457,111 L458,111 L459,111 L460,112 L461,112 L462,112 L463,113 L464,113 L465,113 L466,114 L467,114 L468,115 L469,115 L470,116 L470,117 L471,118 L471,119 L472,119 L472,120 L472,121 Z" fill="none" id="RE1" stroke="none" stroke-width="1" /><path d="M427,46 L428,47 L429,47 L429,48 L430,48 L430,49 L430,50 L430,51 L431,52 L431,53 L432,54 L432,55 L433,56 L433,57 L434,58 L434,59 L435,59 L436,59 L437,60 L438,60 L439,61 L440,61 L441,61 L442,62 L443,62 L443,63 L444,63 L444,64 L445,64 L445,65 L445,66 L445,67 L444,67 L443,67 L442,67 L441,68 L442,69 L443,69 L444,69 L445,69 L446,69 L447,69 L448,69 L449,70 L450,70 L450,71 L451,71 L451,72 L452,72 L452,73 L453,73 L453,74 L453,75 L453,76 L454,77 L454,78 L454,79 L454,80 L454,81 L455,82 L455,83 L456,83 L456,84 L457,85 L458,86 L459,86 L459,87 L460,87 L461,87 L462,86 L463,86 L464,85 L465,85 L465,84 L466,84 L467,83 L468,83 L469,83 L470,83 L471,82 L472,82 L473,82 L474,82 L475,82 L476,82 L477,82 L478,82 L479,83 L480,84 L480,85 L481,86 L481,87 L481,88 L481,89 L481,90 L481,91 L482,92 L482,93 L482,94 L482,95 L482,96 L482,97 L482,98 L481,99 L480,99 L479,99 L478,100 L477,101 L477,102 L476,102 L476,103 L475,104 L475,105 L474,106 L474,107 L473,108 L473,109 L472,109 L472,110 L471,111 L471,112 L470,112 L469,112 L468,112 L467,111 L466,111 L465,111 L464,110 L463,110 L462,110 L461,109 L460,109 L459,109 L458,109 L457,109 L456,109 L455,109 L454,109 L453,109 L452,109 L451,109 L450,109 L449,110 L448,110 L447,110 L446,110 L445,110 L444,110 L443,111 L442,111 L441,111 L440,111 L439,111 L438,111 L437,112 L436,112 L435,112 L434,112 L433,112 L432,112 L431,111 L430,111 L429,111 L428,111 L427,111 L426,111 L425,110 L424,110 L423,110 L422,110 L422,109 L421,109 L421,108 L420,108 L420,107 L419,107 L419,106 L418,105 L418,104 L417,104 L417,103 L416,102 L416,101 L416,100 L415,99 L415,98 L414,97 L414,96 L414,95 L413,94 L413,93 L413,92 L412,92 L412,91 L411,91 L411,90 L410,89 L410,88 L409,87 L409,86 L408,85 L408,84 L407,84 L407,83 L406,82 L406,81 L405,81 L405,80 L404,80 L404,79 L403,78 L403,77 L403,76 L403,75 L402,74 L402,73 L402,72 L402,71 L401,70 L401,69 L400,68 L400,67 L399,66 L399,65 L400,65 L401,64 L402,64 L402,63 L403,63 L404,62 L405,62 L406,61 L407,61 L408,60 L409,60 L410,59 L411,59 L412,58 L413,58 L414,57 L415,57 L416,56 L417,56 L418,56 L419,55 L420,55 L421,54 L422,54 L423,54 L424,53 L425,53 L426,53 L426,52 L426,51 L425,51 L425,50 L424,49 L424,48 L425,47 Z" fill="none" id="RE2" stroke="none" stroke-width="1" /></svg>